<?xml version="1.0" encoding="UTF-8" standalone="no"?>
<svg
   xmlns="http://www.w3.org/2000/svg"
   version="1.1"
   viewBox="0 0 32 32">
  <path
     d="m 16.362,5.358 c -8.525,0 -15.436,4.16 -15.436,10.692 0,6.532 6.911,10.592 15.436,10.592 6.729,-0.002 12.682,-2.108 14.712,-7.024 -2.238,3.155 -7.447,3.89 -12.834,3.894 -7.608,0 -10.016,-2.614 -10.016,-7.512 0,-0.359886 0.013,-0.707441 0.040108,-1.042535 C 8.6059344,10.731979 11.191006,8.488 18.24,8.488 23.39,8.489 28.428,8.918 30.792,11.864 28.522,7.267 22.777,5.361 16.362,5.359 Z"
     id="path3735"/>
  <path
     d="m 21.37,9.756 c -4.009,10e-4 -7.555,1.767 -8.764,4.366 1.333,-1.668 4.302,-1.474 7.512,-1.476 4.532,0 6.26,0.72 6.26,3.309 0,2.589 -1.728,3.309 -6.26,3.309 -3.068,0 -5.936,0.513 -7.344,-1.044 1.352,2.43 4.775,4.038 8.596,4.039 5.078,0 9.39,-2.852 9.39,-6.304 0,-3.452 -4.312,-6.199 -9.39,-6.199 z"
     id="path3723"/>
</svg>
