<svg version="1.1" xmlns="http://www.w3.org/2000/svg" width="32" height="32" viewBox="0 0 32 32">
<path d="M16.362 5.358c-8.525 0-15.436 4.16-15.436 10.692s6.911 10.592 15.436 10.592c6.729-0.002 12.682-2.108 14.712-7.024-2.238 3.155-7.447 3.89-12.834 3.894-7.608 0-10.016-2.614-10.016-7.512s2.408-7.512 10.016-7.512c5.15 0.001 10.188 0.43 12.552 3.376-2.27-4.597-8.015-6.503-14.43-6.505zM21.37 9.756c-4.009 0.001-7.555 1.767-8.764 4.366 1.333-1.668 4.302-1.474 7.512-1.476 4.532-0 6.26 0.72 6.26 3.309s-1.728 3.309-6.26 3.309c-3.068-0-5.936 0.513-7.344-1.044 1.352 2.43 4.775 4.038 8.596 4.039 5.078-0 9.39-2.852 9.39-6.304s-4.312-6.199-9.39-6.199z"></path>
</svg>
