<?xml version="1.0" encoding="UTF-8" standalone="no"?>
<svg
   xmlns:dc="http://purl.org/dc/elements/1.1/"
   xmlns:cc="http://creativecommons.org/ns#"
   xmlns:rdf="http://www.w3.org/1999/02/22-rdf-syntax-ns#"
   xmlns:svg="http://www.w3.org/2000/svg"
   xmlns="http://www.w3.org/2000/svg"
   xmlns:sodipodi="http://sodipodi.sourceforge.net/DTD/sodipodi-0.dtd"
   xmlns:inkscape="http://www.inkscape.org/namespaces/inkscape"
   width="155pt"
   height="155.66861pt"
   viewBox="0 0 155 155.66861"
   version="1.1"
   id="svg1869"
   sodipodi:docname="neutral-youre-the-man..svg"
   inkscape:version="0.92.2 (5c3e80d, 2017-08-06)">
  <metadata
     id="metadata1875">
    <rdf:RDF>
      <cc:Work
         rdf:about="">
        <dc:format>image/svg+xml</dc:format>
        <dc:type
           rdf:resource="http://purl.org/dc/dcmitype/StillImage" />
        <dc:title></dc:title>
      </cc:Work>
    </rdf:RDF>
  </metadata>
  <defs
     id="defs1873" />
  <sodipodi:namedview
     pagecolor="#ffffff"
     bordercolor="#666666"
     borderopacity="1"
     objecttolerance="10"
     gridtolerance="10"
     guidetolerance="10"
     inkscape:pageopacity="0"
     inkscape:pageshadow="2"
     inkscape:window-width="1920"
     inkscape:window-height="1027"
     id="namedview1871"
     showgrid="false"
     inkscape:pagecheckerboard="true"
     fit-margin-top="0"
     fit-margin-left="0"
     fit-margin-right="0"
     fit-margin-bottom="0"
     inkscape:zoom="2.4589999"
     inkscape:cx="60.748786"
     inkscape:cy="91.511824"
     inkscape:window-x="-8"
     inkscape:window-y="-8"
     inkscape:window-maximized="1"
     inkscape:current-layer="svg1869" />
  <path
     d="m 36.96,5.0886095 c 14.49,-7 31.55,-6.01000002 46.65,-1.65 10.61,3.98 16.47,14.6399995 20.25,24.7299995 4.66,-0.1 9.31,-0.07 13.97,-0.07 -4.64,1.45 -9.35,2.71 -14.07,3.86 3.17,2.91 8.1,4.99 8.72,9.73 0.59,9.77 -7,16.91 -9.23,25.93 -2.28,7.67 -7.24,14.33 -13.59,19.12 13.71,4.77 28.41,4.13 42.7,3.81 -2.2,-4.93 -5.15,-9.45 -7.71,-14.19 8.05,-4.27 17.31,-3.51 26.04,-2.35 -0.24,0.64 -0.7,1.92 -0.94,2.55 -4.16,1.31 -8.89,2.07 -11.68,5.82 -3.56,2.86 -3.3,7.68 -4.24,11.74 -9.62,0.54 -19.29,0.8 -28.89,-0.12 -6.39,-0.66 -12.39,-3.44 -18.8,-3.93 -7.43,0.86 -14.55,3.53 -22.03,4.17 -8.66,0.59 -17.23,-0.94 -25.68,-2.6 8.92,13.030001 17.13,26.630001 27.44,38.650001 6.84,-5.92 14.17,-11.3 20.64,-17.63 3.84,-3.77 4.49,-9.28 6.55,-13.990001 7.3,-1.12 14.72,-0.82 22.08,-0.9 -0.04,0.96 -0.09,1.92 -0.13,2.890001 -3.31,0.95 -6.78,1.5 -9.87,3.04 -11.88,8.17 -22.83,17.59 -33.93,26.78 -1.96,1.06 -3.87,3.95 -6.4,2.84 -2.79,-0.9 -4.56,-3.52 -6.23,-5.73 -8.7,-11.81 -16.44,-24.29 -24.97,-36.220001 C 22.18,110.96861 16.41,133.37861 13.14,155.66861 H 9 c 1.86,-7.6 2.55,-15.42 4.49,-23 3.56,-15.63 9.78,-30.54 17.5,-44.550001 -11.77,-8.65 -21,-22.3 -20.23,-37.38 -0.45,-18.45 9.28,-37.39 26.2,-45.6499995 m -7.15,9.0699995 c -9.18,7.96 -13.53,19.95 -15.42,31.65 9.67,-1.63 19.2,-3.94 28.64,-6.56 9.23,-2.59 18.91,-1.33 28.35,-1.67 1.02,1.76 2.03,3.52 3.03,5.3 6.76,-6.87 17.02,-6.82 25.97,-7.63 0.04,-1.1 0.08,-2.2 0.13,-3.3 -7.1,1.67 -14.25,3.46 -21.58,3.57 -0.62,-1.37 -1.85,-4.11 -2.47,-5.49 1.35,-0.52 2.71,-1.03 4.07,-1.55 -0.28,1.47 -0.56,2.93 -0.84,4.39 6.71,-0.88 13.37,-2.15 20.03,-3.38 -2.06,-5.32 -3.03,-11.61 -7.43,-15.68 C 85.46,6.7186095 75.38,4.4586095 65.91,3.9586095 c -12.83,-1.34 -25.51,3.25 -36.1,10.1999995 m 53.77,26.62 c -1.32,0.69 -1.33,1.36 -0.03,2.03 1.32,-0.68 1.33,-1.36 0.03,-2.03 m -45,2 c -1.32,0.69 -1.33,1.36 -0.03,2.03 1.32,-0.68 1.33,-1.36 0.03,-2.03 m -24.59,5.92 c 1.22,7.86 2.02,16.12 6.43,22.98 6.43,11.85 20.19,17.83 33.14,18.82 12.83,0.14 26.73,-1.26 37.07,-9.67 6.64,-4.95 8.88,-13.23 10.93,-20.83 -4.9,-0.59 -10.13,0.07 -14.78,-1.71 -4.59,-3.17 -6.92,-8.65 -9.28,-13.54 -1.44,0.37 -2.87,0.76 -4.29,1.15 -1.58,6.31 -4.08,13.08 -9.83,16.76 -7.31,2.45 -15.91,2.34 -22.95,-1 -4.96,-3.89 -5.43,-11.12 -6.88,-16.8 -6.5,1.4 -13.01,2.73 -19.56,3.84 z"
     id="path1847"
     inkscape:connector-curvature="0"
     style="opacity:1;fill:#000000" />
  <path
     d="M 29.81,14.158609 C 40.4,7.2086095 53.08,2.6186095 65.91,3.9586095 c 9.47,0.5 19.55,2.76 26.38,9.8499995 4.4,4.07 5.37,10.36 7.43,15.68 -6.66,1.23 -13.32,2.5 -20.03,3.38 0.28,-1.46 0.56,-2.92 0.84,-4.39 -1.36,0.52 -2.72,1.03 -4.07,1.55 0.62,1.38 1.85,4.12 2.47,5.49 7.33,-0.11 14.48,-1.9 21.58,-3.57 -0.05,1.1 -0.09,2.2 -0.13,3.3 -8.95,0.81 -19.21,0.76 -25.97,7.63 -1,-1.78 -2.01,-3.54 -3.03,-5.3 -9.44,0.34 -19.12,-0.92 -28.35,1.67 -9.44,2.62 -18.97,4.93 -28.64,6.56 1.89,-11.7 6.24,-23.69 15.42,-31.65 m 29.38,-2.52 c 2.14,1.42 4.4,2.66 6.73,3.74 -2.12,-1.46 -4.38,-2.69 -6.73,-3.74 m -13.16,0.96 c 5.37,1.35 10.69,2.87 16.03,4.35 -4.87,-2.86 -10.22,-5.12 -16.03,-4.35 m 21.94,6.23 c 0.33,2.74 0.78,5.47 1.25,8.2 -8.18,-2.2 -16.02,-6.47 -24.66,-6.27 -6.79,0.98 -14.48,3.42 -17.97,9.86 7.32,-2.85 14.29,-8.57 22.66,-6.55 7.94,1.81 15.75,6.01 24.12,4.11 -1.33,-3.37 -2.98,-6.64 -5.4,-9.35 m 18.12,9.74 c 3.35,-0.4 6.64,-1.21 9.77,-2.47 -3.29,0.7 -6.56,1.49 -9.77,2.47 z"
     id="path1849"
     inkscape:connector-curvature="0"
     style="opacity:1;fill:#ffffff" />
  <path
     d="m 59.19,11.638609 c 2.35,1.05 4.61,2.28 6.73,3.74 -2.33,-1.08 -4.59,-2.32 -6.73,-3.74 z"
     id="path1851"
     inkscape:connector-curvature="0"
     style="opacity:1;fill:#000000" />
  <path
     d="m 46.03,12.598609 c 5.81,-0.77 11.16,1.49 16.03,4.35 -5.34,-1.48 -10.66,-3 -16.03,-4.35 z"
     id="path1853"
     inkscape:connector-curvature="0"
     style="opacity:1;fill:#000000" />
  <path
     d="m 67.97,18.828609 c 2.42,2.71 4.07,5.98 5.4,9.35 -8.37,1.9 -16.18,-2.3 -24.12,-4.11 -8.37,-2.02 -15.34,3.7 -22.66,6.55 3.49,-6.44 11.18,-8.88 17.97,-9.86 8.64,-0.2 16.48,4.07 24.66,6.27 -0.47,-2.73 -0.92,-5.46 -1.25,-8.2 z"
     id="path1855"
     inkscape:connector-curvature="0"
     style="opacity:1;fill:#000000" />
  <path
     d="m 86.09,28.568609 c 3.21,-0.98 6.48,-1.77 9.77,-2.47 -3.13,1.26 -6.42,2.07 -9.77,2.47 z"
     id="path1857"
     inkscape:connector-curvature="0"
     style="opacity:1;fill:#000000" />
  <path
     d="m 83.58,40.778609 c 1.3,0.67 1.29,1.35 -0.03,2.03 -1.3,-0.67 -1.29,-1.34 0.03,-2.03 z"
     id="path1859"
     inkscape:connector-curvature="0"
     style="opacity:1;fill:#ffffff" />
  <path
     d="m 38.58,42.778609 c 1.3,0.67 1.29,1.35 -0.03,2.03 -1.3,-0.67 -1.29,-1.34 0.03,-2.03 z"
     id="path1861"
     inkscape:connector-curvature="0"
     style="opacity:1;fill:#ffffff" />
  <path
     d="m 13.99,48.698609 c 6.55,-1.11 13.06,-2.44 19.56,-3.84 1.45,5.68 1.92,12.91 6.88,16.8 7.04,3.34 15.64,3.45 22.95,1 5.75,-3.68 8.25,-10.45 9.83,-16.76 1.42,-0.39 2.85,-0.78 4.29,-1.15 2.36,4.89 4.69,10.37 9.28,13.54 4.65,1.78 9.88,1.12 14.78,1.71 -2.05,7.6 -4.29,15.88 -10.93,20.83 -10.34,8.41 -24.24,9.81 -37.07,9.67 -12.95,-0.99 -26.71,-6.97 -33.14,-18.82 -4.41,-6.86 -5.21,-15.12 -6.43,-22.98 m 23.02,22.6 c -1.9,3.25 1.52,5.71 3.6,7.69 -0.36,-2.43 -0.8,-4.85 -1.23,-7.27 2.56,-1.37 5.13,-2.71 7.64,-4.15 -3.74,-1.01 -8.59,-0.52 -10.01,3.73 m 7.01,0.08 c -0.28,1.2 -0.55,2.41 -0.82,3.61 7.93,2.19 16.04,3.65 24.16,4.9 0.4,-0.96 0.8,-1.91 1.2,-2.87 -8.31,-1.18 -16.73,-2.44 -24.54,-5.64 z"
     id="path1863"
     inkscape:connector-curvature="0"
     style="opacity:1;fill:#ffffff" />
  <path
     d="m 37.01,71.298609 c 1.42,-4.25 6.27,-4.74 10.01,-3.73 -2.51,1.44 -5.08,2.78 -7.64,4.15 0.43,2.42 0.87,4.84 1.23,7.27 -2.08,-1.98 -5.5,-4.44 -3.6,-7.69 z"
     id="path1865"
     inkscape:connector-curvature="0"
     style="opacity:1;fill:#000000" />
  <path
     d="m 44.02,71.378609 c 7.81,3.2 16.23,4.46 24.54,5.64 -0.4,0.96 -0.8,1.91 -1.2,2.87 -8.12,-1.25 -16.23,-2.71 -24.16,-4.9 0.27,-1.2 0.54,-2.41 0.82,-3.61 z"
     id="path1867"
     inkscape:connector-curvature="0"
     style="opacity:1;fill:#000000" />
</svg>
