<?xml version="1.0" encoding="UTF-8" standalone="no"?>
<!-- Created by Naziur Rahman from the Noun Project -->

<svg
   xmlns:dc="http://purl.org/dc/elements/1.1/"
   xmlns:cc="http://creativecommons.org/ns#"
   xmlns:rdf="http://www.w3.org/1999/02/22-rdf-syntax-ns#"
   xmlns:svg="http://www.w3.org/2000/svg"
   xmlns="http://www.w3.org/2000/svg"
   xmlns:sodipodi="http://sodipodi.sourceforge.net/DTD/sodipodi-0.dtd"
   xmlns:inkscape="http://www.inkscape.org/namespaces/inkscape"
   version="1.1"
   x="0px"
   y="0px"
   viewBox="0 0 85 85"
   xml:space="preserve"
   id="svg86"
   sodipodi:docname="feels_bad.svg"
   width="85"
   height="85"
   inkscape:version="0.92.2 (5c3e80d, 2017-08-06)"><metadata
     id="metadata92"><rdf:RDF><cc:Work
         rdf:about=""><dc:format>image/svg+xml</dc:format><dc:type
           rdf:resource="http://purl.org/dc/dcmitype/StillImage" /><dc:title></dc:title></cc:Work></rdf:RDF></metadata><defs
     id="defs90" /><sodipodi:namedview
     pagecolor="#ffffff"
     bordercolor="#666666"
     borderopacity="1"
     objecttolerance="10"
     gridtolerance="10"
     guidetolerance="10"
     inkscape:pageopacity="0"
     inkscape:pageshadow="2"
     inkscape:window-width="1920"
     inkscape:window-height="1027"
     id="namedview88"
     showgrid="false"
     fit-margin-top="0"
     fit-margin-left="0"
     fit-margin-right="0"
     fit-margin-bottom="0"
     inkscape:zoom="54.911999"
     inkscape:cx="57.081567"
     inkscape:cy="76.957229"
     inkscape:window-x="-8"
     inkscape:window-y="-8"
     inkscape:window-maximized="1"
     inkscape:current-layer="svg86"
     inkscape:pagecheckerboard="true" /><polygon
     points="70.5,48.4 69.5,48.5 70,51.5 71.5,54.7 73.8,56.7 74,57.5 71.8,60.9 71.8,61.8 70.2,61.2 69.8,62.1 71.5,62.8 72.8,62.8 72.8,61.2 75.1,57.6 74.6,56.1 72.4,54.2 71,51.2 "
     id="polygon52"
     transform="translate(-8.4,-4.099997)" /><polygon
     points="64.9,60.3 64.2,61 64.9,61.7 65.3,61.3 66.8,61.3 66.8,60.3 "
     id="polygon54"
     transform="translate(-8.4,-4.099997)" /><polygon
     points="62.1,61.2 60.8,60.9 59.9,59.9 59.9,58.2 61.2,58.2 62.2,57.6 61.7,56.7 60.9,57.2 58.9,57.2 58.9,60.3 60.2,61.8 61.8,62.2 "
     id="polygon56"
     transform="translate(-8.4,-4.099997)" /><path
     d="m 41.8,41.700003 0.1,0.1 h 1.8 1.8 l 3,-0.3 h 2 v -2.2 l -0.2,-0.1 c 0,0 -3.1,-1.9 -3.2,-2 -0.2,-0.1 -0.8,-0.4 -1.9,-0.8 h -4.9 l -0.1,0.4 c -0.7,2.6 -0.7,2.8 -0.7,2.9 -0.1,0.1 -0.1,0.4 2.3,2 z m 7.7,-1.2 h -0.7 c 0.1,-0.3 0.2,-0.6 0.1,-1 0.2,0.1 0.4,0.3 0.6,0.4 z m -8.6,-3.2 h 2.8 c -0.3,0.8 -0.9,2.5 -0.3,3.4 h -1.2 c -0.7,-0.5 -1.6,-1.1 -1.9,-1.3 0.2,-0.3 0.4,-1.2 0.6,-2.1 z"
     id="path58"
     inkscape:connector-curvature="0" /><path
     d="m 68.3,42.600003 1.7,0.8 h 1.5 l 0.6,-1.4 -0.1,-3.1 -1.9,-1.3 h -1.4 l -1.7,0.8 -1.7,0.2 -1.2,0.6 -0.4,1.4 v 1.7 l 3.7,0.2 z m 2.5,-0.2 h -0.5 l -0.7,-0.3 c 0.7,-0.1 1.1,-0.3 1.5,-0.7 v 0.4 z m -6.1,-1.7 0.2,-0.9 0.6,-0.3 1.6,-0.2 0.5,-0.2 c -0.2,0.7 -0.4,1.7 0.1,2.4 l -0.3,-0.1 -2.8,-0.1 v -0.6 z"
     id="path60"
     inkscape:connector-curvature="0" /><rect
     x="-28.905373"
     y="66.220566"
     transform="rotate(-82.484111)"
     width="4.0999641"
     height="0.9999913"
     id="rect62"
     style="stroke-width:0.9999913" /><polygon
     points="60.8,39.4 61.8,39.4 61.8,38 59.7,36.2 59.1,36.9 60.8,38.5 "
     id="polygon64"
     transform="translate(-8.4,-4.099997)" /><polygon
     points="58.2,34.1 58.5,34.4 59.2,33.7 58.6,33.1 52.4,33 51.6,33.3 48.2,34 45.7,35.3 46.1,36.1 48.4,34.9 51.8,34.3 52.6,34 "
     id="polygon66"
     transform="translate(-8.4,-4.099997)" /><polygon
     points="72.2,34.3 76.7,34.3 80.1,36.7 80.6,35.9 77.1,33.3 72,33.3 70.2,34.2 70.7,35.1 "
     id="polygon68"
     transform="translate(-8.4,-4.099997)" /><polygon
     points="42.3,31.3 47.1,31.3 56.6,28.4 59.4,28.4 64.1,30.1 70.4,30.1 71.1,30.3 72.4,30.4 73.7,30.3 74.6,31 75.2,30.2 74,29.3 72.4,29.4 71.3,29.3 70.6,29.1 64.4,29.1 59.6,27.4 56.5,27.4 47,30.3 42.3,30.3 "
     id="polygon70"
     transform="translate(-8.4,-4.099997)" /><polygon
     points="46.8,25.8 49.5,25.6 53.9,24.9 60.1,24.9 64.1,26.4 70.5,26.1 73.7,26 76.6,28.3 77.2,27.5 74,25 64.3,25.4 60.3,23.9 53.8,23.9 49.3,24.7 46.7,24.8 "
     id="polygon72"
     transform="translate(-8.4,-4.099997)" /><polygon
     points="58,68.2 62.2,69.5 72.3,69.5 73,70.2 73.7,69.6 72.8,68.5 62.4,68.5 57.7,67 56.2,68.4 56.8,69.1 "
     id="polygon74"
     transform="translate(-8.4,-4.099997)" /><path
     d="M 38.289485,85.563578 C 35.40355,83.324456 79.374302,88.449856 73.1,81.200003 h -8.9 l -2.6,-0.6 h -1.7 l -1.1,-1.9 -0.1,-1.5 2.8,-0.5 h 0.1 c 0,0 3.3,-1.6 3.7,-1.8 0.4,-0.2 1.2,-0.6 1.5,-0.8 0.1,-0.1 0.3,-0.2 1.3,-2 l 3.6,-4 v -3.9 c 0.8,-0.7 0.9,-0.8 0.9,-0.8 0.1,-0.1 1,-1.3 1,-1.3 l 1.5,-2.6 0.9,-2 1.2,-1.5 0.4,-2.3 0.4,-1.9 v -0.1 c 0,-0.6 0.1,-6.2 0,-6.8 -0.1,-0.6 -0.8,-1.8 -1.2,-2.3 l 0.1,-3.1 c 0.1,-0.8 0.3,-2.2 0.4,-2.5 0.3,-0.6 0.2,-1 0,-1.2 l 0.1,-0.9 c 0,-0.3 0.1,-0.9 0.2,-1.1 0,-0.1 0.1,-0.4 -0.5,-2.1 l -0.2,-1.9 -0.7,-1.1 -1.3,-2.5 v -2.4 l -1.3,-4.3 -3,-5.4 -0.1,-0.2 c -1.1,-0.8 -3.5,-2.7 -3.6,-2.8 -0.2,-0.1 -1.7,-1.6 -2.8,-2.5 l -2.9,-2.1999999 -3.3,-2 -2.7,-1.2 -6.9,-1.6 c -0.9,0 -1.9,-0.1 -2,-0.1 -0.2,0 -2.3,-0.1 -3.6,-0.2 l -5.8,0.5 -3.8,1 -4.7,2.6 -2.4,0.8 -2.1,1 c -0.2,0 -0.9,0.1 -1,0.1 -0.2,0 -0.2,0 -1.5,0.9999999 l -0.1,0.1 -1.3,2.6 -2.1,1.4 -0.2,4 -2.1,2.5 -0.2,2.4 -0.1,2.4 -1.2,2.2 -0.1,3.8 -0.4,6 0.2,1.5 0.1,2.1 1.3,2.5 v 1.7 l 1.7,4 2.5,3.8 0.9,1.6 0.7,2.7 v 10.9 l -1.4,3 -0.3,3.1 -1.2,2 -1,2.1 -1,1.1 c -0.6,0.8 -1.4,1.5 -1.6,1.6 -0.6,0.1 -1.1,1.1 -1.4,1.8 l 0.148572,0.528118 0.575729,0.254312 24.877251,3.272095 C 38.519195,84.050169 17.81486,81.666055 15.6,81.200003 h -1.7 c 0.2,-0.4 0.4,-0.8 0.5,-0.8 0.7,-0.1 1.8,-1.4 2.2,-1.9 l 1,-1.1 1.1,-2.2 1.3,-2.1 0.4,-3.2 1.4,-3.2 v -11.3 l -0.7,-2.9 -1,-1.8 -2.4,-3.7 -1.6,-3.6 v -1.9 l -1.3,-2.5 -0.1,-1.9 -0.1,-1.4 0.4,-6.1 0.1,-3.6 1.2,-2.2 0.1,-2.6 0.1,-2 2,-2.4 0.2,-3.9 1.9,-1.3 1.3,-2.7 c 0.4,-0.3 0.8,-0.6 1,-0.7 0.1,0 0.4,0 1.1,-0.1 l 2.3,-1.0999999 2.4,-0.8 4.6,-2.5 3.7,-1 5.6,-0.4 c 1.2,0.1 3.3,0.1 3.5,0.2 0.2,0 1.5,0.1 2,0.1 l 6.7,1.6 2.5,1.1 3.3,2 2.8,2.0999999 c 2.7,2.5 2.8,2.5 2.8,2.6 0.1,0.1 2.2,1.6 3.5,2.7 l 2.9,5.2 1.2,4 v 2.6 l 1.4,2.8 0.6,0.9 0.2,1.7 v 0.1 c 0.2,0.6 0.4,1.4 0.5,1.6 0.1,0.2 -0.1,1.3 -0.1,1.3 v 0.1 l 0.3,1 v 0 c 0,0 0,0.1 -0.1,0.2 -0.3,0.6 -0.5,2.5 -0.5,2.9 l -0.1,3.4 0.1,0.1 c 0.5,0.8 1,1.7 1.1,2 0.1,0.4 0,4.3 0,6.6 l -0.4,1.8 -0.4,2.1 -1.1,1.4 -1,2.1 -1.4,2.5 c 0,0 -0.9,1.2 -1,1.3 -0.1,0.1 -0.5,0.5 -0.9,0.8 l -0.2,0.1 v 4 l -3.4,3.8 -0.1,0.1 c -0.4,0.7 -0.9,1.6 -1,1.7 -0.2,0.1 -0.9,0.5 -1.4,0.7 -0.4,0.2 -3.2,1.5 -3.7,1.8 l -3.1,0.5 -6.3,-0.4 -3.7,-1.3 -7.6,-6.9 -2.2,-1.5 -5.7,-5.5 -1.6,-3 -0.2,-0.3 -0.2,-2.6 -1,-1.4 -0.7,-3.8 0.4,-1.3 v -1.1 h -1 v 0.8 l -0.5,1.4 0.7,4.1 1,1.5 0.1,2.8 0.4,0.4 1.6,3 6.1,5.9 2.2,1.5 7.6,7 4,1.5 6.1,0.4 0.1,1.7 1.5,2.7 h 2.1 l 2.6,0.6 9.057542,0.103017 c 5.203512,4.414031 -36.518405,0.0304 -34.668057,3.360558"
     id="path76"
     inkscape:connector-curvature="0"
     sodipodi:nodetypes="cccccccccscccccccccccssccccccccccccccccccccsccccccscccccccccccccccccccccccccccccccccccccccccccccccccccccccccccccccccccccccccccccccscccccccccccccccscccccccccccccccccccccccccccccccccccccccc" /><path
     d="m 53,81.200003 c -0.2,-0.1 -1,-0.8 -1.6,-1.4 l -0.8,-2 -0.9,0.4 0.8,2.1 0.1,0.2 c 1.6,1.6 2,1.7 2.2,1.7 0,0 0,0 0.1,0 l 0.4,-0.2 -0.5,-0.4 z"
     id="path78"
     inkscape:connector-curvature="0" /><polygon
     points="35.8,81.6 36.9,80.7 39.1,80.2 38.9,79.2 36.4,79.8 34.9,81.1 34.5,83.5 32.8,85.3 31.4,85.3 31.4,86.3 33.2,86.3 35.4,84 "
     id="polygon82"
     transform="translate(-8.4,-4.099997)" /><polygon
     points="38.6,73.9 39.8,72.2 39.8,67.3 39.1,65.3 38.2,65.6 38.8,67.4 38.8,71.9 37.8,73.4 "
     id="polygon84"
     transform="translate(-8.4,-4.099997)" /><path
     style="fill:#ffffff;stroke-width:0.05150836"
     d="M 35.745435,84.642086 C 32.037388,83.889451 28.449953,83.200278 24.387842,82.460205 l -1.10743,-0.201761 0.754167,-0.0049 0.754167,-0.0049 1.112315,-1.160078 c 0.611774,-0.638042 1.124051,-1.211716 1.138394,-1.274832 0.01434,-0.06311 0.09618,-0.543561 0.181866,-1.067659 0.08568,-0.524097 0.168875,-1.016902 0.184869,-1.09512 0.0207,-0.10126 0.184229,-0.269822 0.567835,-0.58533 l 0.538756,-0.443115 1.083701,-0.247256 c 0.596035,-0.13599 1.093601,-0.257157 1.105703,-0.269259 0.02662,-0.02662 -0.160729,-0.958555 -0.200753,-0.998579 -0.01553,-0.01553 -0.588173,0.106608 -1.272531,0.271428 l -1.244287,0.299672 -0.754827,0.654334 -0.754828,0.654335 -0.206548,1.208779 -0.206548,1.208779 -0.824133,0.878239 -0.824134,0.878238 -0.70824,0.0029 -0.70824,0.0029 v 0.515083 c 0,0.437358 -0.01241,0.515084 -0.08224,0.515084 -0.04523,0 -0.491421,-0.06884 -0.991536,-0.152973 -1.3996,-0.235458 -3.324823,-0.502828 -4.463377,-0.619861 -0.566592,-0.05824 -1.232992,-0.139967 -1.480888,-0.181613 -0.257286,-0.04322 -0.782299,-0.07572 -1.223324,-0.07572 -0.424931,0 -0.771951,-0.01739 -0.771154,-0.03863 0.0034,-0.09148 0.340309,-0.651906 0.410618,-0.683096 0.583807,-0.258982 0.725333,-0.361402 1.313955,-0.950892 0.340226,-0.340726 0.903634,-0.941066 1.252018,-1.334087 0.627001,-0.707335 0.638865,-0.72545 1.169441,-1.785685 0.294808,-0.589105 0.84147,-1.564721 1.214804,-2.168035 l 0.678789,-1.096934 0.200103,-1.598608 0.200102,-1.598608 0.693996,-1.586815 0.693997,-1.586815 V 61.046278 55.353742 L 21.470956,53.92818 21.129488,52.502617 20.61924,51.584314 c -0.280636,-0.505066 -1.045383,-1.743178 -1.699438,-2.751358 l -1.18919,-1.833055 -0.792054,-1.779975 -0.792054,-1.779974 v -0.915677 -0.915676 h 12.741373 c 12.663379,0 12.742175,6.3e-4 12.872338,0.103017 0.125514,0.09873 0.208958,0.103016 2.005131,0.103016 1.506513,0 2.070323,-0.02021 2.874108,-0.103016 0.954129,-0.0983 1.367594,-0.103017 9.024604,-0.103017 h 8.024664 v 0.360558 0.360559 l 0.167402,8.7e-5 c 0.09207,4.8e-5 0.538262,0.02243 0.991536,0.04975 0.453273,0.02731 1.26453,0.07513 1.802792,0.106259 1.531808,0.08859 1.537499,0.08981 2.487679,0.534973 l 0.839406,0.393268 0.778024,-0.01421 0.778023,-0.01421 0.299439,-0.695363 c 0.183024,-0.425015 0.300144,-0.770459 0.301257,-0.888519 l 0.0018,-0.193156 h 1.931563 1.931564 v 0.486289 c 0,0.267685 0.02309,0.500559 0.05136,0.518031 0.06662,0.04117 0.655109,1.033038 0.938529,1.581836 l 0.220558,0.427083 -0.01667,3.292015 -0.01667,3.292014 -0.181134,0.8029 c -0.09962,0.441596 -0.279428,1.315422 -0.399566,1.941837 l -0.218426,1.138936 -0.551104,0.699347 c -0.506296,0.642493 -0.592511,0.786489 -1.06047,1.771286 -0.760958,1.601404 -1.764351,3.359175 -2.387294,4.182132 -0.493501,0.651959 -1.166808,1.32388 -1.465557,1.462548 l -0.115894,0.05379 v 2.004142 2.004141 l -1.756703,1.959954 c -1.751294,1.95392 -1.758119,1.96243 -2.218702,2.764991 -0.254101,0.442771 -0.503082,0.840648 -0.553292,0.884172 -0.05021,0.04352 -0.738043,0.388973 -1.528528,0.767664 -0.790483,0.378691 -1.927199,0.926348 -2.526037,1.217014 l -1.088795,0.528484 -1.511042,0.243354 -1.511042,0.243355 -3.117591,-0.193483 -3.11759,-0.193482 -1.868431,-0.65065 L 48.130679,74.187638 44.321696,70.731699 40.512712,67.275762 39.422485,66.533768 38.332258,65.791775 35.467841,63.027038 32.603425,60.2623 31.884838,58.906369 C 31.489615,58.160606 31.08917,57.418011 30.994961,57.256157 30.82382,56.962133 30.823583,56.960759 30.72147,55.671921 l -0.1022,-1.289957 -0.466544,-0.648781 c -0.256599,-0.35683 -0.487444,-0.698557 -0.512988,-0.759394 -0.02554,-0.06084 -0.197061,-0.933459 -0.38115,-1.93916 l -0.334706,-1.828547 0.204381,-0.662236 c 0.185302,-0.600415 0.204381,-0.714785 0.204381,-1.225126 v -0.562889 l -0.52796,0.01468 -0.527961,0.01468 -0.03102,0.515084 c -0.02617,0.434628 -0.06539,0.607096 -0.251051,1.104156 l -0.220033,0.589073 0.347511,2.037854 c 0.191131,1.120819 0.371552,2.084211 0.400935,2.14087 0.02938,0.05666 0.25538,0.405121 0.502217,0.77436 l 0.448792,0.671343 0.05316,1.408006 0.05316,1.408007 0.22919,0.238526 c 0.163412,0.170071 0.453114,0.659837 1.009419,1.706516 l 0.780229,1.467988 3.042173,2.93543 3.042174,2.93543 1.09697,0.748831 1.096971,0.748831 3.801099,3.501156 3.801099,3.501155 2.013637,0.753269 2.013637,0.753268 3.024123,0.196319 3.024124,0.196319 0.02484,0.132088 c 0.01366,0.07265 0.04016,0.451675 0.05888,0.842281 l 0.03404,0.710192 0.754367,1.362121 0.754367,1.362122 1.064809,8.96e-4 1.064808,8.96e-4 1.33033,0.304841 1.330331,0.304842 4.269177,0.03642 c 2.34805,0.02003 4.386633,0.0509 4.530187,0.06859 0.23137,0.02852 0.280308,0.05748 0.43096,0.255085 0.652698,0.85611 -0.658097,1.369407 -4.156751,1.62775 -2.778145,0.20514 -6.861019,0.223587 -16.946251,0.07657 -7.188982,-0.1048 -11.133621,0.04079 -12.846272,0.474127 -0.404462,0.102338 -0.869555,0.304462 -0.931609,0.404868 -0.01784,0.02887 -0.07164,0.0502 -0.119539,0.04741 -0.04791,-0.0028 -1.153323,-0.221491 -2.456485,-0.485998 z m 17.361636,-2.508952 0.237861,-0.115562 -0.247984,-0.215131 -0.247983,-0.215132 0.09097,-0.190767 c 0.05003,-0.104922 0.08418,-0.196434 0.07588,-0.20336 -0.0083,-0.0069 -0.154157,-0.124226 -0.324135,-0.260665 -0.169977,-0.136439 -0.521867,-0.443004 -0.781977,-0.681258 L 51.436781,79.818072 51.064698,78.88291 c -0.204646,-0.514339 -0.391798,-0.974456 -0.415895,-1.022482 -0.03946,-0.07865 -0.08728,-0.06796 -0.481642,0.107622 -0.240807,0.107217 -0.449406,0.206517 -0.463554,0.220664 -0.02589,0.02589 0.697941,1.960502 0.826641,2.209379 0.0965,0.186611 1.147253,1.183568 1.55135,1.471927 0.28581,0.203949 0.612991,0.368079 0.750358,0.376415 0.02049,0.0012 0.144291,-0.04974 0.275115,-0.113301 z m -22.282507,-13.171028 0.619923,-0.873074 7.32e-4,-2.410584 7.31e-4,-2.410583 -0.338165,-0.97987 c -0.185991,-0.538929 -0.355681,-1.008212 -0.37709,-1.042853 -0.02949,-0.04771 -0.138115,-0.03019 -0.448071,0.07229 -0.22503,0.0744 -0.429132,0.153406 -0.453561,0.175569 -0.02443,0.02216 0.08567,0.430594 0.244665,0.907623 l 0.289084,0.867325 v 2.266602 2.266601 l -0.493775,0.739575 c -0.303295,0.454276 -0.475353,0.757997 -0.446021,0.787329 0.03865,0.03865 0.731199,0.491313 0.770571,0.503659 0.0061,0.0019 0.290019,-0.389418 0.630977,-0.869609 z m 34.215381,-3.207467 0.295302,-0.271915 -0.46352,-0.553714 -0.463518,-0.553715 h -5.2037 -5.2037 L 51.655808,63.625192 49.310806,62.875089 49.043929,63.1087 c -0.146783,0.128487 -0.494277,0.448649 -0.772209,0.711472 l -0.50533,0.47786 0.293997,0.347682 c 0.161698,0.191224 0.317541,0.347681 0.346317,0.347681 0.02878,0 0.311739,-0.194855 0.628806,-0.43301 l 0.576486,-0.43301 2.054928,0.638315 2.05493,0.638315 5.074955,7.31e-4 5.074955,7.26e-4 0.354982,0.357724 c 0.402998,0.40611 0.362414,0.406537 0.813199,-0.0085 z m -0.630106,-7.833713 v -0.78845 l 1.161158,-1.817015 1.161158,-1.817016 -0.246885,-0.749057 -0.246885,-0.749058 -1.109928,-0.959303 -1.109928,-0.959303 -0.699045,-1.498598 -0.699045,-1.498599 -0.249388,-1.403777 -0.249389,-1.403776 -0.388285,0.03302 c -0.616988,0.05247 -0.675514,0.07059 -0.646014,0.200035 0.01401,0.0615 0.129528,0.739748 0.256697,1.507226 l 0.231217,1.395415 0.754436,1.604809 0.754436,1.60481 1.146706,0.991674 1.146707,0.991673 0.10023,0.389841 0.100236,0.38984 -1.098481,1.696248 -1.098479,1.696248 -7.01e-4,0.445396 -7e-4,0.445397 -0.733994,-0.278151 c -0.403697,-0.152983 -0.763815,-0.283875 -0.800263,-0.290871 -0.0562,-0.01079 -0.50475,0.878294 -0.462479,0.91668 0.0075,0.0068 0.384524,0.164694 0.837798,0.350822 l 0.824133,0.338414 0.682486,0.0019 0.682491,0.0019 z m -10.736093,-0.685061 0.03106,-0.160047 -0.506559,-0.114661 c -0.278607,-0.06306 -0.569484,-0.130115 -0.646392,-0.149004 -0.0873,-0.02144 -0.304549,-0.218179 -0.578265,-0.523671 l -0.438431,-0.48933 -0.0012,-0.83701 -0.0012,-0.837011 h 0.640596 0.640596 l 0.492588,-0.295968 c 0.270923,-0.162782 0.492588,-0.313664 0.492588,-0.335294 0,-0.05178 -0.466545,-0.913989 -0.494566,-0.913989 -0.0119,0 -0.206567,0.115894 -0.432584,0.257542 l -0.410941,0.257541 H 51.45606 50.451084 v 1.543844 1.543843 l 0.6656,0.766933 0.665601,0.766933 0.815265,0.203922 0.815264,0.203922 0.114943,-0.364224 c 0.06322,-0.200323 0.128918,-0.436245 0.146,-0.524271 z m 4.003324,-0.02023 h 0.757799 v -0.515083 -0.515084 h -0.99015 -0.990151 l -0.323312,0.320439 c -0.177823,0.176242 -0.323314,0.343706 -0.323314,0.372144 0,0.02844 0.155709,0.208614 0.34602,0.400395 l 0.346019,0.348691 0.209645,-0.205751 0.209645,-0.205751 z"
     id="path52"
     inkscape:connector-curvature="0" /><path
     style="fill:#ffffff;stroke-width:0.05150836"
     d="m 13.985158,81.076881 c 0.0044,-0.08399 0.338512,-0.596817 0.410598,-0.630153 0.760248,-0.35156 1.051899,-0.60579 2.303168,-2.007632 l 0.898333,-1.006432 0.539804,-1.074778 C 18.433954,75.76676 18.97825,74.79607 19.34661,74.200793 l 0.669744,-1.08232 0.201934,-1.604516 0.201934,-1.604522 0.696101,-1.589218 0.696101,-1.589213 v -5.683788 -5.683791 l -0.342366,-1.430404 -0.342367,-1.430404 -0.551272,-0.978659 c -0.3032,-0.538262 -1.069383,-1.778326 -1.702629,-2.755697 l -1.151358,-1.777038 -0.787964,-1.76984 -0.787964,-1.769839 -9.19e-4,-0.960104 -9.19e-4,-0.960104 -0.661343,-1.275553 -0.661344,-1.275553 -0.06346,-1.171094 c -0.0349,-0.644102 -0.0792,-1.385903 -0.09844,-1.648447 -0.02464,-0.336192 0.02128,-1.326263 0.155281,-3.348044 0.104644,-1.578879 0.216888,-3.751483 0.24943,-4.828008 l 0.05917,-1.957318 0.600141,-1.107429 0.60014,-1.10743 0.06013,-1.545251 c 0.03307,-0.849888 0.07715,-1.883631 0.09795,-2.297206 l 0.03782,-0.751955 0.993459,-1.192292 0.993459,-1.192291 0.03005,-0.37363 c 0.01653,-0.205496 0.06548,-1.077979 0.108774,-1.938851 0.0433,-0.860872 0.08843,-1.580934 0.100301,-1.600138 0.01187,-0.0192 0.43684,-0.319167 0.944382,-0.666584 l 0.922802,-0.631669 0.661551,-1.364718 c 0.363852,-0.7505955 0.701651,-1.3861801 0.750663,-1.4124107 0.05422,-0.029018 8.007659,-0.047692 20.312573,-0.047692 h 20.223458 l 0.421904,0.3196304 c 0.374077,0.2833981 1.16105,0.9873113 2.842796,2.5427573 0.283296,0.26202 1.013427,0.85211 1.622513,1.31131 0.609086,0.459201 1.357225,1.034958 1.662535,1.27946 l 0.555101,0.44455 1.453143,2.601172 1.453139,2.601172 0.60547,2.008826 0.605471,2.008827 5.15e-4,1.300953 5.15e-4,1.300954 0.699942,1.399146 c 0.384968,0.76953 0.833101,1.598005 0.995847,1.841056 l 0.2959,0.441911 0.113808,0.952904 c 0.09404,0.787419 0.154582,1.08261 0.348598,1.699776 0.129137,0.410779 0.245324,0.816408 0.258196,0.901397 0.01287,0.08499 -0.01071,0.394556 -0.05241,0.687927 l -0.07582,0.533402 0.155437,0.519578 c 0.144192,0.481974 0.149735,0.529244 0.07654,0.653153 -0.110779,0.187539 -0.27509,0.841761 -0.366672,1.459956 -0.12462,0.841232 -0.173954,1.605579 -0.211865,3.282608 l -0.03558,1.573722 0.386039,0.641138 c 0.212323,0.352626 0.487584,0.838157 0.611693,1.078959 l 0.225653,0.437821 -0.01661,3.296535 c -0.01552,3.081304 -0.02333,3.325121 -0.11952,3.734356 -0.0566,0.240802 -0.237171,1.112404 -0.401256,1.936894 l -0.298346,1.499073 -0.560793,0.724882 c -0.506007,0.654068 -0.608004,0.82463 -1.044084,1.745954 -0.723152,1.527816 -1.770796,3.363255 -2.384235,4.177092 -0.494403,0.655918 -1.168117,1.330734 -1.462446,1.464841 l -0.1255,0.05718 v 2.005524 2.00552 l -1.01729,1.136573 c -2.609924,2.91595 -2.481276,2.759328 -2.996535,3.648188 l -0.477606,0.823907 -0.522862,0.262481 c -0.287571,0.144368 -1.345702,0.654975 -2.351403,1.134683 -1.0057,0.479713 -1.921262,0.925234 -2.03458,0.990053 -0.160181,0.09162 -0.547737,0.172769 -1.741435,0.364632 L 58.120123,75.876993 54.994018,75.683832 51.867553,75.49067 49.996089,74.839156 48.124626,74.187638 44.317239,70.732199 40.509852,67.276766 39.418814,66.534268 38.327777,65.791775 35.465601,63.028469 32.603425,60.265166 31.938389,59.010818 C 31.572619,58.320927 31.172322,57.579548 31.04884,57.36331 L 30.824327,56.970151 30.721799,55.676057 30.61927,54.381964 30.152726,53.733183 c -0.256599,-0.35683 -0.487822,-0.698557 -0.513828,-0.759394 -0.02601,-0.06084 -0.197915,-0.93401 -0.382018,-1.940384 L 28.922145,49.203635 29.1272,48.53525 c 0.184785,-0.60232 0.205073,-0.723117 0.205249,-1.2221 l 1.95e-4,-0.553715 H 28.8243 28.315956 l -0.03193,0.193156 c -0.01756,0.106236 -0.03218,0.312066 -0.03249,0.4574 -4.12e-4,0.182011 -0.07403,0.47054 -0.236633,0.927151 l -0.236067,0.662907 0.344898,2.03458 0.344898,2.03458 0.505155,0.772626 0.505154,0.772625 0.05226,1.411099 0.05225,1.411099 0.217108,0.221217 c 0.1522,0.155081 0.450682,0.660235 0.998379,1.689668 l 0.78127,1.468452 3.049367,2.94653 3.049367,2.946526 1.102516,0.753542 1.102515,0.753541 3.802684,3.502749 3.802685,3.502749 2.03458,0.754814 2.03458,0.754819 2.998394,0.192971 2.998395,0.19297 0.02529,0.131975 c 0.01391,0.07259 0.04087,0.452645 0.05992,0.844583 l 0.03463,0.712603 0.634831,1.141698 0.634832,1.141693 -3.017729,0.01329 -3.017728,0.01329 -0.237599,-0.19314 c -0.130679,-0.106226 -0.461093,-0.39544 -0.734254,-0.642696 l -0.496656,-0.44956 -0.401373,-1.005984 c -0.284499,-0.713056 -0.424851,-1.005536 -0.482003,-1.004444 -0.04435,8.24e-4 -0.25971,0.08777 -0.478586,0.193156 l -0.397957,0.191617 0.282671,0.746871 c 0.155469,0.410779 0.344278,0.909123 0.419577,1.10743 0.106583,0.2807 0.210996,0.437563 0.471417,0.70824 l 0.334512,0.347681 H 38.523669 25.858247 l 0.385804,-0.39919 c 0.212193,-0.219554 0.47347,-0.493965 0.580615,-0.609807 l 0.19481,-0.210613 0.197427,-1.178851 0.197428,-1.178851 0.199408,-0.172873 c 0.109675,-0.09508 0.35556,-0.300844 0.546411,-0.45725 l 0.347003,-0.284367 1.087978,-0.249295 c 0.598388,-0.13711 1.097221,-0.258536 1.108518,-0.269832 0.02432,-0.02432 -0.162552,-0.957448 -0.199044,-0.993941 -0.01379,-0.01379 -0.584636,0.108064 -1.268548,0.270784 l -1.243475,0.295859 -0.682063,0.586835 c -0.375135,0.322756 -0.715123,0.618327 -0.75553,0.656819 -0.04474,0.04262 -0.155519,0.541636 -0.283295,1.276099 l -0.209831,1.206104 -0.798379,0.854339 -0.79838,0.854343 -5.240976,0.0019 c -2.882536,0.001 -5.240073,-0.01555 -5.23897,-0.0368 z M 30.82225,68.959055 31.444487,68.082933 v -2.415716 -2.415716 l -0.356701,-1.013834 c -0.196186,-0.557609 -0.365944,-1.02308 -0.37724,-1.034376 -0.02537,-0.02537 -0.820924,0.234842 -0.879416,0.287649 -0.02329,0.02102 0.08681,0.431068 0.244665,0.911198 l 0.287017,0.872964 v 2.257951 2.257952 l -0.463759,0.713586 c -0.255067,0.392473 -0.46947,0.736714 -0.476452,0.764982 -0.009,0.0366 0.67516,0.537943 0.768671,0.563244 0.0048,0.0013 0.288747,-0.391891 0.630978,-0.873762 z m 34.180314,-3.173312 c 0.340353,-0.288746 0.340847,-0.289554 0.243201,-0.39919 -0.05381,-0.06042 -0.265066,-0.312676 -0.469449,-0.56056 l -0.371605,-0.450698 h -5.206342 -5.206342 l -2.341694,-0.749045 -2.341695,-0.749045 -0.36881,0.334485 c -0.202846,0.183962 -0.550519,0.503649 -0.772607,0.710413 l -0.403797,0.375929 0.290731,0.334804 c 0.159901,0.184143 0.311187,0.342047 0.336191,0.350901 0.025,0.0089 0.308018,-0.181114 0.62892,-0.422152 l 0.583458,-0.438244 2.059565,0.639688 2.059565,0.639687 5.075061,0.0014 5.075062,0.0014 0.331828,0.334804 c 0.182506,0.184143 0.360152,0.334805 0.394771,0.334805 0.03462,0 0.216412,-0.130198 0.403988,-0.289328 z m -0.592725,-7.866508 v -0.79014 l 1.155574,-1.809449 1.155575,-1.809449 -0.256723,-0.768387 -0.256723,-0.768387 -1.092007,-0.939804 -1.092009,-0.939804 -0.70271,-1.50386 -0.702709,-1.50386 -0.248802,-1.404507 -0.248802,-1.404505 -0.387706,0.0347 c -0.541112,0.04843 -0.619494,0.0725 -0.619494,0.190274 0,0.05546 0.104698,0.730927 0.232662,1.501036 l 0.232662,1.400197 0.753056,1.6081 0.753055,1.608099 1.139003,0.985371 1.139002,0.98537 0.109579,0.399946 0.109574,0.399946 -1.099607,1.693845 -1.099607,1.693845 -0.0015,0.445396 -0.0015,0.445397 -0.733994,-0.277793 c -0.403697,-0.152785 -0.764029,-0.277882 -0.800738,-0.277993 -0.05642,-1.55e-4 -0.502983,0.870178 -0.462305,0.901021 0.0077,0.0058 0.384825,0.163852 0.838099,0.351173 l 0.824134,0.340583 0.682485,0.0019 0.682484,0.0019 z m -10.841165,-0.31733 c 0.07948,-0.269152 0.134423,-0.499461 0.122088,-0.511797 -0.01234,-0.01234 -0.304968,-0.08765 -0.650293,-0.167362 l -0.627865,-0.144935 -0.439896,-0.489329 -0.439895,-0.48933 -3.3e-5,-0.83701 -3.2e-5,-0.837011 h 0.644405 0.644405 l 0.475902,-0.291605 c 0.261746,-0.160382 0.48669,-0.300585 0.499875,-0.311561 0.02364,-0.01968 -0.328957,-0.708001 -0.44346,-0.865694 -0.0516,-0.07106 -0.10987,-0.04881 -0.468332,0.178769 l -0.409404,0.259923 h -1.012534 -1.012532 v 1.542973 1.542972 l 0.666841,0.768161 0.666842,0.768162 0.711007,0.182153 c 0.391054,0.100183 0.75992,0.184344 0.819701,0.187021 0.09384,0.0042 0.128449,-0.06202 0.25321,-0.4845 z m 4.108396,-0.386273 h 0.757799 v -0.515083 -0.515084 h -0.967164 -0.967163 l -0.357795,0.360559 -0.357796,0.360558 0.357515,0.360276 0.357515,0.360276 0.209645,-0.205751 0.209645,-0.205751 z m 14.155252,-14.533098 0.296493,-0.703104 -0.04619,-1.22846 c -0.0254,-0.675653 -0.04694,-1.371787 -0.04787,-1.546965 l -0.0017,-0.318504 -0.950906,-0.647278 -0.950906,-0.647276 H 69.388812 68.64638 l -0.817695,0.390624 -0.817695,0.390625 -0.875642,0.10546 -0.875642,0.105461 -0.592347,0.296727 -0.592346,0.296728 -0.193156,0.692225 c -0.188824,0.676697 -0.193156,0.71206 -0.193156,1.576571 v 0.884348 h 0.131593 c 0.335208,0 3.807545,0.211949 4.122925,0.25166 0.280257,0.03529 0.529877,0.127274 1.179614,0.434688 l 0.824133,0.389928 0.794419,-0.01018 0.794419,-0.01018 z M 47.129775,41.660485 c 1.07172,-0.106979 1.824024,-0.154263 2.458533,-0.154525 l 0.914273,-3.78e-4 V 40.380666 39.25575 L 50.370795,39.1957 C 50.298315,39.16267 49.51603,38.686868 48.632388,38.138352 46.818853,37.012611 46.827444,37.017344 45.930665,36.649587 L 45.274482,36.3805 h -2.494043 -2.494044 l -0.273773,1.030167 c -0.150575,0.566592 -0.341669,1.330679 -0.424654,1.69797 -0.131981,0.584154 -0.142249,0.684493 -0.08197,0.801051 0.128463,0.248421 0.676853,0.70037 1.783471,1.469827 l 0.625775,0.435117 h 1.835138 c 1.659694,0 1.982774,-0.01474 3.379398,-0.154147 z M 63.15451,35.423762 c 0.146806,-1.116911 0.259174,-2.038755 0.249708,-2.048542 -0.01437,-0.01485 -0.995521,-0.151682 -1.00697,-0.140429 -0.01597,0.0157 -0.547169,4.076814 -0.535016,4.090327 0.0217,0.02412 0.913257,0.151422 0.975226,0.139243 0.02757,-0.0054 0.170246,-0.923689 0.317052,-2.040599 z M 53.438558,34.61039 v -0.714189 l -1.066995,-0.914182 -1.066995,-0.914184 -0.296264,0.327786 c -0.162945,0.180282 -0.297035,0.353856 -0.297977,0.38572 -9.43e-4,0.03187 0.36692,0.402725 0.817471,0.824134 l 0.819183,0.766199 0.005,0.476452 0.005,0.476453 h 0.540838 0.540838 V 34.61039 Z m 18.54301,-2.403655 c 0.127483,-0.212132 0.222598,-0.402861 0.211364,-0.423841 -0.01123,-0.02098 -0.793316,-0.611821 -1.737964,-1.312978 L 68.737427,29.195084 H 66.13524 63.533052 l -0.87507,0.438107 c -0.481288,0.240959 -0.87507,0.449529 -0.87507,0.463488 0,0.06575 0.494744,0.900897 0.533774,0.901038 0.02444,1.03e-4 0.368239,-0.173681 0.763989,-0.386153 l 0.719544,-0.386313 2.249249,4.12e-4 2.249252,4.12e-4 1.674022,1.183868 c 0.920712,0.651112 1.6972,1.183536 1.72553,1.183164 0.02833,-3.61e-4 0.155813,-0.17424 0.283296,-0.386372 z M 41.756613,30.512307 c 1.198131,-0.209259 1.797927,-0.337888 2.07742,-0.445511 l 0.392945,-0.15131 2.79012,0.05658 2.79012,0.05658 0.156432,0.149281 0.156431,0.149281 0.357702,-0.360465 0.357703,-0.360464 -0.315539,-0.315539 -0.315539,-0.315538 -3.108817,-0.05033 -3.108818,-0.05033 -0.412067,0.156386 c -0.245961,0.09335 -1.092195,0.295835 -2.099296,0.502325 l -1.687229,0.345938 -1.248747,0.644485 c -0.686811,0.354468 -1.256007,0.650131 -1.26488,0.657029 -0.0089,0.0069 0.07885,0.201456 0.194942,0.432348 l 0.211073,0.419805 1.195785,-0.613175 1.195784,-0.613174 z m 1.714627,-4.742529 4.806768,-1.467989 h 1.330108 1.330109 l 2.348885,0.849888 2.348884,0.849888 h 3.138009 c 2.98656,0 3.155402,0.005 3.498402,0.103285 0.507644,0.145484 1.428254,0.222211 2.188942,0.182435 0.35412,-0.01852 0.680761,-0.04442 0.72587,-0.05757 0.04774,-0.01391 0.252238,0.108916 0.489331,0.29391 0.22402,0.174796 0.434323,0.338659 0.467335,0.364139 0.04123,0.03182 0.159743,-0.08467 0.378463,-0.371988 0.175139,-0.230074 0.310379,-0.42481 0.300536,-0.432749 -0.0098,-0.0079 -0.288766,-0.216663 -0.619826,-0.463835 l -0.601917,-0.449401 -0.770345,0.05682 c -0.888373,0.06552 -1.733619,0.0084 -2.28081,-0.154119 C 62.228217,24.976922 62.039961,24.9714 59.103411,24.9714 H 55.997195 L 54.885279,24.578315 C 54.273724,24.362119 53.195846,23.97967 52.489993,23.728427 l -1.283368,-0.456803 h -1.547689 -1.547689 l -4.724131,1.442234 -4.72413,1.442234 H 36.264183 33.86538 v 0.540838 0.540838 h 2.399547 2.399546 z m 24.913643,-1.765262 c 0.07572,-0.105631 0.208104,-0.286628 0.29419,-0.402215 l 0.156524,-0.210159 -1.607066,-1.255761 -1.607071,-1.25576 -4.868127,0.19579 -4.868128,0.19579 -1.996126,-0.751574 -1.996126,-0.751574 -3.231973,2.58e-4 -3.231973,2.58e-4 -2.292122,0.407298 c -2.236104,0.397345 -2.318557,0.408094 -3.373797,0.439817 -0.594922,0.01788 -1.170865,0.04551 -1.279875,0.06139 l -0.198199,0.02888 0.03598,0.471074 c 0.01979,0.25909 0.05178,0.488045 0.07109,0.50879 0.01931,0.02074 0.645154,-0.0085 1.390757,-0.06496 1.067734,-0.08087 1.834752,-0.179132 3.611567,-0.462662 l 2.255923,-0.359972 h 2.993632 2.993631 l 2.046546,0.765369 2.046545,0.76537 2.96173,-0.143146 c 1.628952,-0.07873 3.778257,-0.170409 4.776233,-0.20373 l 1.814501,-0.06058 0.683653,0.540203 c 0.376011,0.297111 1.019747,0.808154 1.430527,1.13565 0.410779,0.327497 0.77005,0.596072 0.798379,0.596835 0.02833,7.62e-4 0.113463,-0.08504 0.18918,-0.190672 z"
     id="path54"
     inkscape:connector-curvature="0" /><path
     style="fill:#ffffff;stroke-width:0.05150836"
     d="m 41.359847,40.084934 c -0.481603,-0.327589 -0.906976,-0.613569 -0.945273,-0.635511 -0.05653,-0.03239 -0.04567,-0.106808 0.05769,-0.395471 0.07003,-0.195567 0.189633,-0.622131 0.265788,-0.947922 0.07616,-0.32579 0.150266,-0.632909 0.164689,-0.682486 0.02413,-0.08292 0.135648,-0.09014 1.393235,-0.09014 1.280844,0 1.364816,0.0057 1.332185,0.09014 -0.289782,0.750035 -0.446545,1.433092 -0.475808,2.073212 -0.0233,0.509671 -0.01243,0.633683 0.07784,0.888519 l 0.104922,0.296173 -0.549817,-4.49e-4 -0.549816,-4.48e-4 z"
     id="path56"
     inkscape:connector-curvature="0" /><path
     style="fill:#ffffff;stroke-width:0.05150836"
     d="m 48.876941,40.359521 c 0.01905,-0.06374 0.04811,-0.260761 0.06457,-0.437821 0.01646,-0.17706 0.04035,-0.321927 0.05308,-0.321927 0.01274,0 0.125458,0.07346 0.25049,0.163256 0.219919,0.157935 0.227331,0.172209 0.227331,0.437822 v 0.274564 h -0.315058 c -0.302652,0 -0.313693,-0.0046 -0.280415,-0.115894 z"
     id="path59"
     inkscape:connector-curvature="0" /><path
     style="fill:#ffffff;stroke-width:0.05150836"
     d="M 67.473923,41.40274 C 67.416903,41.38111 66.75051,41.3462 65.993058,41.32516 l -1.377186,-0.03825 v -0.272683 c 0,-0.149976 0.02394,-0.280664 0.0532,-0.290418 0.02926,-0.0098 0.08723,-0.168143 0.128808,-0.351974 0.04158,-0.183832 0.08759,-0.386265 0.102231,-0.449851 0.01789,-0.07766 0.123565,-0.163397 0.321891,-0.261161 0.240487,-0.118546 0.443374,-0.163096 1.093642,-0.240139 0.448571,-0.05315 0.894295,-0.13539 1.01729,-0.187708 0.120401,-0.05121 0.218911,-0.08379 0.218911,-0.07239 0,0.0114 -0.03741,0.178622 -0.08313,0.371605 -0.12535,0.529072 -0.115547,1.262784 0.02151,1.609762 0.06088,0.154125 0.105443,0.284701 0.09903,0.29017 -0.0064,0.0055 -0.05831,-0.0078 -0.115335,-0.02938 z"
     id="path61"
     inkscape:connector-curvature="0" /><path
     style="fill:#ffffff;stroke-width:0.05150836"
     d=""
     id="path63"
     inkscape:connector-curvature="0" /><path
     style="fill:#ffffff;stroke-width:0.05150836"
     d="m 70.037176,42.262615 c -0.279658,-0.117066 -0.344919,-0.190441 -0.169383,-0.190441 0.168342,0 0.657263,-0.203392 0.929811,-0.386803 l 0.256813,-0.172823 v 0.149901 c 0,0.08245 -0.06278,0.277898 -0.139501,0.434338 -0.139102,0.283624 -0.140169,0.284429 -0.373435,0.281722 -0.128664,-0.0015 -0.355601,-0.05365 -0.504305,-0.115894 z"
     id="path65"
     inkscape:connector-curvature="0" /><path
     style="fill:#ffffff;stroke-width:0.01287709"
     d="m 22.309433,12.321371 5.02e-4,-3.7182595 0.06066,-0.044762 c 0.144757,-0.1068107 0.375765,-0.2633656 0.446977,-0.3029172 0.07553,-0.041952 0.08245,-0.043233 0.30905,-0.057235 0.235572,-0.014556 0.460747,-0.037028 0.727556,-0.072607 l 0.148086,-0.019747 1.146061,-0.5482792 1.146061,-0.5482793 1.204946,-0.4020671 1.204945,-0.4020672 2.29977,-1.2498994 2.29977,-1.2498993 1.839277,-0.4980417 1.839277,-0.4980417 2.749259,-0.1979741 c 1.512093,-0.1088858 2.789822,-0.1985507 2.839399,-0.1992553 0.04958,-7.045e-4 0.232109,0.00772 0.405628,0.018715 0.354343,0.022459 0.698368,0.037644 1.487304,0.065651 1.025146,0.036392 1.377957,0.056767 1.558128,0.089982 0.05666,0.010445 0.259473,0.027985 0.450698,0.038976 0.876406,0.050375 1.226346,0.069308 1.429357,0.077332 l 0.218911,0.00865 3.338272,0.7971956 3.338274,0.7971955 1.252409,0.5513172 1.25241,0.551317 0.891548,0.5399392 0.891549,0.5399392 1.93e-4,4.8256903 1.94e-4,4.825689 H 40.697422 22.308937 l 5.03e-4,-3.71826 z"
     id="path67"
     inkscape:connector-curvature="0" /><path
     style="fill:#ffffff;stroke-width:0.02575418"
     d="m 20.243522,22.876441 4.36e-4,-11.016351 0.184616,-0.128771 0.184615,-0.128771 0.648079,-1.345736 0.648078,-1.3457358 0.267861,-0.201606 C 22.32453,8.5985869 22.539969,8.4439979 22.655961,8.365939 l 0.210893,-0.1419253 0.381453,-0.031314 c 0.741737,-0.060889 0.632249,-0.02432 1.938129,-0.6473372 l 1.173267,-0.5597491 1.177633,-0.3912215 1.177633,-0.3912214 2.294007,-1.2467033 2.294007,-1.2467032 1.859475,-0.5014754 1.859476,-0.5014754 2.755697,-0.1968088 2.755697,-0.1968087 0.579469,0.028898 c 0.318708,0.015894 1.019866,0.045846 1.558128,0.06656 0.538263,0.020714 1.129321,0.055015 1.313464,0.076224 0.350339,0.040351 1.596231,0.1166216 1.904645,0.116598 0.145933,-1.12e-5 0.801946,0.1486833 3.5412,0.8026636 l 3.362084,0.8026773 1.249078,0.5494515 c 1.398401,0.6151364 1.036271,0.4163043 3.605189,1.9794826 0.949845,0.577979 0.988394,0.6047615 2.395139,1.6640382 1.318452,0.9927943 1.478872,1.1220514 2.060731,1.6604071 0.347037,0.321092 0.914917,0.83868 1.261955,1.150195 0.347037,0.311515 0.701044,0.63788 0.786684,0.725255 0.08564,0.08737 0.598834,0.492266 1.140434,0.899759 1.060199,0.797677 1.680141,1.279157 2.129165,1.653619 l 0.283296,0.236254 1.446095,2.597935 1.446095,2.597935 0.594924,1.985328 0.594924,1.985328 v 1.306489 1.306489 l 0.696079,1.386821 c 0.592099,1.179656 0.74156,1.455694 1.000547,1.847874 l 0.304469,0.461051 0.108226,0.912543 0.108227,0.912542 0.178278,0.605224 c 0.09805,0.332873 0.213343,0.708804 0.256198,0.835404 0.04286,0.126599 0.07792,0.274364 0.07792,0.328365 v 0.09819 h -6.583863 -6.583861 l 0.01598,-0.15289 c 0.0088,-0.08409 0.02332,-0.198781 0.03229,-0.254869 0.01939,-0.121258 0.06275,-0.106594 -0.552687,-0.186913 -0.333836,-0.04357 -0.425776,-0.0483 -0.441587,-0.02271 -0.01098,0.01777 -0.03464,0.163951 -0.05257,0.324847 l -0.0326,0.29254 h -4.454034 -4.454031 l -1.041926,-0.894958 c -0.573062,-0.492227 -1.05211,-0.894958 -1.064554,-0.894958 -0.02813,0 -0.592233,0.657139 -0.592233,0.689906 0,0.0131 0.153559,0.170186 0.341243,0.349082 0.187683,0.178894 0.439752,0.42087 0.560153,0.537724 l 0.218911,0.212464 -15.793752,3.61e-4 -15.793751,3.79e-4 z m 51.71231,9.339498 c 0.18817,-0.30198 0.236712,-0.398285 0.216724,-0.429971 -0.01417,-0.02246 -0.80138,-0.617773 -1.749368,-1.322925 l -1.723612,-1.282097 -2.543369,-5.93e-4 -2.543367,-5.92e-4 -0.907694,0.453549 c -0.499229,0.249453 -0.910899,0.456442 -0.914819,0.459975 -0.0081,0.0073 0.424408,0.776983 0.483581,0.860579 0.03817,0.05392 0.0476,0.04978 0.785503,-0.344136 l 0.746871,-0.398708 2.242478,-5.41e-4 2.242478,-5.4e-4 1.453247,1.024813 c 1.920049,1.353995 1.940493,1.368311 1.955721,1.369391 0.0072,5.15e-4 0.12226,-0.174179 0.255626,-0.388209 z m -33.098912,-0.804475 1.152499,-0.601275 1.571005,-0.276361 c 0.864052,-0.151998 1.643518,-0.292701 1.732146,-0.312671 0.08863,-0.01997 0.332004,-0.09937 0.540837,-0.176444 0.369862,-0.136508 0.385368,-0.139858 0.598608,-0.129307 0.120401,0.006 1.372054,0.02957 2.781451,0.05248 l 2.562541,0.04165 0.155043,0.151537 0.155043,0.151538 0.353638,-0.354313 0.353636,-0.354316 -0.30947,-0.308682 -0.309467,-0.308682 -3.098488,-0.04868 -3.098486,-0.04868 -0.393385,0.148135 c -0.37086,0.139652 -0.491675,0.168432 -2.109913,0.502598 l -1.716527,0.354463 -1.223324,0.636728 c -0.672828,0.3502 -1.232755,0.645598 -1.244282,0.656441 -0.01683,0.01583 0.363311,0.825109 0.387572,0.825109 0.0038,0 0.525449,-0.270573 1.159323,-0.601272 z m 2.684872,-5.065732 c 1.579376,-0.482194 3.724481,-1.136992 4.766904,-1.455106 l 1.895309,-0.57839 h 1.398053 1.398053 l 2.348809,0.849888 2.34881,0.849888 h 3.151966 3.151967 l 0.36147,0.10112 c 0.319669,0.08943 0.42402,0.105842 0.902311,0.141944 0.658691,0.04972 0.874854,0.04996 1.455111,0.0016 0.247884,-0.02066 0.48073,-0.0378 0.517435,-0.0381 0.04687,-3.76e-4 0.195778,0.100127 0.500332,0.337696 0.337614,0.263359 0.442562,0.332778 0.474101,0.313598 0.04318,-0.02626 0.590412,-0.728843 0.592802,-0.761089 7.72e-4,-0.01052 -0.269518,-0.222393 -0.60066,-0.470838 l -0.602079,-0.45172 -0.795085,0.05201 -0.795086,0.05201 -0.553715,-0.05192 c -0.469375,-0.04401 -0.602751,-0.06646 -0.875642,-0.147418 l -0.321927,-0.0955 -3.167764,-0.01322 -3.167765,-0.01322 -2.368169,-0.843449 -2.368166,-0.84345 h -1.538699 -1.538702 l -0.200923,0.06298 c -0.110509,0.03464 -1.516319,0.464274 -3.124024,0.954746 -1.607705,0.490471 -3.660946,1.11693 -4.562758,1.39213 l -1.639658,0.500365 h -2.345801 -2.345801 v 0.515083 0.515084 l 2.3887,-5e-6 2.3887,-5e-6 z m 26.9765,-2.546964 c 0.16381,-0.218666 0.288993,-0.406065 0.278189,-0.416443 -0.0108,-0.01038 -0.732389,-0.576275 -1.603524,-1.25755 l -1.583883,-1.238681 -0.347681,0.01619 c -0.191225,0.0089 -2.370029,0.100402 -4.841786,0.203332 l -4.494105,0.187144 -2.021703,-0.756901 -2.021703,-0.7569 -3.216458,2.73e-4 -3.21646,2.7e-4 -2.243427,0.397712 c -1.233885,0.218741 -2.307169,0.403996 -2.385076,0.411676 -0.07791,0.0077 -0.668964,0.03285 -1.313463,0.05592 -0.644498,0.02308 -1.181677,0.05108 -1.19373,0.06222 -0.01205,0.01115 -2.57e-4,0.238714 0.02623,0.505708 l 0.04815,0.485443 0.166923,-0.006 c 0.374574,-0.01348 2.350979,-0.165557 2.626448,-0.202098 0.162895,-0.02161 1.20489,-0.183541 2.315544,-0.359851 l 2.01937,-0.320564 h 3.086315 3.086314 l 2.002468,0.751029 2.00247,0.75103 3.167764,-0.148114 c 2.604811,-0.121792 5.712038,-0.242862 6.310117,-0.245867 l 0.129113,-6.49e-4 1.441892,1.144913 c 0.793041,0.629703 1.449983,1.142533 1.459876,1.139623 0.0099,-0.0029 0.152009,-0.184199 0.315816,-0.402865 z"
     id="path69"
     inkscape:connector-curvature="0" /><path
     style="fill:#000000;stroke-width:0.05150836"
     d="m 17.356678,76.232797 c 0,-0.116352 0.915414,-1.876542 1.373505,-2.641024 l 0.592799,-0.989291 0.15112,-1.550442 0.15112,-1.550438 0.694275,-1.482936 0.694274,-1.482941 V 61.042749 55.549774 L 20.659225,54.19514 20.304679,52.840506 19.881581,52.093635 c -0.232705,-0.410779 -0.99293,-1.613748 -1.68939,-2.673264 L 16.925901,47.493977 16.085368,45.51754 15.244835,43.541103 V 42.684819 41.828535 L 14.581757,40.554631 13.91868,39.280727 13.88462,38.411625 c -0.01873,-0.478006 -0.08421,-1.294134 -0.145498,-1.813617 l -0.111438,-0.944514 0.19433,-2.918613 c 0.106882,-1.605237 0.218948,-3.798123 0.249036,-4.873081 l 0.05471,-1.95447 0.604952,-1.110278 0.604952,-1.110278 0.03504,-1.081676 c 0.01927,-0.594922 0.07996,-1.612367 0.134867,-2.260989 0.0549,-0.648623 0.09983,-1.231143 0.09983,-1.29449 0,-0.07393 0.316068,-0.49085 0.88268,-1.164317 0.485473,-0.577027 0.961637,-1.145462 1.058142,-1.263189 l 0.175463,-0.214048 0.102859,-1.999047 c 0.05657,-1.099476 0.122209,-2.01143 0.145858,-2.026565 0.02365,-0.01514 0.495227,-0.328594 1.04795,-0.696573 l 1.004953,-0.669055 0.636884,-1.2775608 c 0.383414,-0.7691104 0.698384,-1.3359151 0.79141,-1.4241846 0.08499,-0.080643 0.401945,-0.3316751 0.704347,-0.557849 l 0.549822,-0.4112252 0.609117,-0.065603 0.609116,-0.065603 1.030167,-0.4889292 c 0.736136,-0.3493789 1.374549,-0.6042539 2.236744,-0.892981 1.175412,-0.3936153 1.241635,-0.423399 2.563821,-1.153082 l 1.357244,-0.7490302 0.830003,0.014147 0.830003,0.014147 -2.025128,1.1000943 -2.025129,1.1000943 -1.317187,0.4501235 c -0.975787,0.3334565 -1.584194,0.5789377 -2.347354,0.9471139 -1.05396,0.508469 -1.342355,0.6005055 -1.881673,0.6005055 -0.277692,0 -0.322407,0.018401 -0.701209,0.2885618 -0.222532,0.158709 -0.453079,0.3331367 -0.512328,0.3876173 -0.05925,0.054481 -0.394104,0.6958672 -0.744122,1.4253034 l -0.636396,1.32625 -0.942801,0.642641 c -0.820631,0.559366 -0.945806,0.662665 -0.965983,0.797167 -0.01275,0.08499 -0.0619,0.965781 -0.109231,1.957317 l -0.08605,1.802793 -0.997624,1.195782 -0.997625,1.195782 -0.05144,0.967569 c -0.02829,0.532164 -0.07585,1.570217 -0.105685,2.306787 l -0.05425,1.339217 -0.596117,1.098481 -0.596117,1.098481 -0.04774,1.708725 c -0.02626,0.939799 -0.140831,3.134219 -0.25461,4.876489 -0.11378,1.74227 -0.193998,3.283658 -0.178263,3.425306 0.01573,0.141648 0.06414,0.881903 0.107577,1.645011 l 0.07897,1.38747 0.642251,1.232226 0.64225,1.232227 v 0.946718 0.946719 l 0.805928,1.814297 0.805927,1.814297 1.182983,1.825049 c 0.65064,1.003778 1.415191,2.240023 1.699002,2.747213 l 0.51602,0.922163 0.353784,1.469043 0.353784,1.469046 v 5.609713 5.609719 l -0.702538,1.607973 -0.702538,1.607973 -0.201029,1.599582 -0.201028,1.599581 -0.636022,1.030168 c -0.349811,0.566592 -0.759748,1.279339 -0.910969,1.583882 l -0.274947,0.553715 h -0.400324 c -0.220178,0 -0.400324,-0.0082 -0.400324,-0.01826 z"
     id="path71"
     inkscape:connector-curvature="0" /><path
     style="fill:#000000;stroke-width:0.07284383"
     d="m 23.054719,81.723511 v -0.473484 h 0.679075 0.679076 l 0.853478,-0.90747 0.853479,-0.90747 0.209011,-1.2105 0.20901,-1.210501 0.313511,-0.267665 c 0.172432,-0.147216 0.507101,-0.436191 0.74371,-0.642167 0.426488,-0.371272 0.440646,-0.377024 1.641748,-0.667038 0.666352,-0.160895 1.219745,-0.284654 1.229763,-0.27502 0.05178,0.0498 0.178274,0.852979 0.140311,0.890942 -0.02442,0.02442 -0.463431,0.138194 -0.975586,0.252837 -1.14012,0.25521 -1.157378,0.262669 -1.765804,0.763203 l -0.491814,0.404599 -0.194601,1.168824 c -0.129186,0.775919 -0.238538,1.224679 -0.325304,1.334984 -0.07188,0.09139 -0.574033,0.628142 -1.115883,1.192786 l -0.985183,1.026625 h -0.848999 -0.848998 z"
     id="path73"
     inkscape:connector-curvature="0" /><path
     style="fill:#000000;stroke-width:0.07284383"
     d="m 29.828086,69.519052 c -0.179679,-0.120265 -0.317663,-0.253205 -0.306631,-0.295423 0.01103,-0.04222 0.215905,-0.368026 0.455274,-0.724019 l 0.435216,-0.647258 v -2.31545 -2.315449 l -0.261799,-0.785677 c -0.14399,-0.432123 -0.245313,-0.82864 -0.225163,-0.88115 0.03948,-0.102896 0.682773,-0.310809 0.750891,-0.242691 0.02267,0.02267 0.185629,0.455527 0.36213,0.961902 l 0.320911,0.920682 -6.2e-4,2.453599 -6.19e-4,2.453598 -0.513702,0.728439 c -0.701807,0.995173 -0.630525,0.946835 -1.015892,0.688897 z"
     id="path75"
     inkscape:connector-curvature="0" /><path
     style="fill:#000000;stroke-width:0.07284383"
     d="m 73.418938,82.886769 c 0,-0.191689 -0.05879,-0.315982 -0.230816,-0.48801 l -0.230817,-0.230813 -4.539336,-0.05337 -4.539337,-0.05336 -1.284682,-0.296329 c -1.183347,-0.272945 -1.367016,-0.296328 -2.328477,-0.296372 l -1.043796,-5.8e-5 -0.742992,-1.336065 -0.742992,-1.336073 -0.05085,-0.850502 c -0.04697,-0.785621 -0.06253,-0.852863 -0.203978,-0.881352 -0.08422,-0.01696 -1.457589,-0.113454 -3.051928,-0.214423 L 51.530141,76.66646 49.529264,75.92034 47.528387,75.174221 43.728016,71.67439 C 40.349097,68.562684 39.801901,68.088151 38.793775,67.39538 37.731563,66.665442 37.469041,66.431407 34.639804,63.692177 L 31.619702,60.768155 30.801254,59.226603 C 30.351108,58.378749 29.903165,57.61949 29.805825,57.539362 29.633127,57.397201 29.627613,57.359481 29.578001,55.981058 L 29.527159,54.568442 29.02961,53.826858 28.532061,53.085272 28.185526,51.050954 27.83899,49.016635 28.069648,48.36104 c 0.1567,-0.445387 0.230524,-0.789893 0.230242,-1.074446 l -4.16e-4,-0.418852 h 0.473485 0.473485 v 0.553877 c 0,0.39272 -0.05532,0.731317 -0.19014,1.163721 l -0.19014,0.609846 0.350046,1.913929 0.350047,1.91393 0.445045,0.619172 c 0.244775,0.340545 0.469844,0.660268 0.500153,0.710496 0.03031,0.05023 0.101149,0.658905 0.157423,1.352617 l 0.102316,1.261294 0.776802,1.45187 c 0.427241,0.798529 0.8463,1.569 0.931243,1.712158 0.08494,0.143159 1.422577,1.482489 2.972519,2.97629 2.600655,2.506458 2.902924,2.773862 3.917831,3.465947 0.951772,0.649031 1.611577,1.21461 4.90337,4.203126 l 3.803613,3.453181 1.821096,0.643051 1.821095,0.64305 3.19493,0.209692 3.194929,0.209689 1.539919,-0.250957 1.539919,-0.25096 1.821096,-0.877859 c 1.001602,-0.482823 2.165283,-1.050578 2.585956,-1.261676 l 0.76486,-0.383817 0.473112,-0.821817 c 0.406588,-0.706265 0.72154,-1.099887 2.239947,-2.799465 l 1.766836,-1.977649 0.0016,-1.971805 0.0016,-1.971805 0.471729,-0.382897 c 0.963797,-0.782305 2.067979,-2.464339 3.383155,-5.153661 0.482861,-0.987374 0.775867,-1.483598 1.185257,-2.00731 l 0.54383,-0.695693 0.200591,-1.052131 c 0.110324,-0.578673 0.295533,-1.473587 0.411573,-1.988699 l 0.210982,-0.936568 v -3.27224 -3.27224 l -0.226568,-0.453197 c -0.124613,-0.249258 -0.399644,-0.748214 -0.611179,-1.108791 l -0.384611,-0.655594 0.06337,-1.890309 c 0.07861,-2.344862 0.252833,-3.699983 0.550702,-4.283481 0.09097,-0.178201 0.08514,-0.25744 -0.05225,-0.709762 -0.136085,-0.448033 -0.146373,-0.581376 -0.08568,-1.110593 0.06651,-0.580007 0.05933,-0.633856 -0.20164,-1.511974 -0.178883,-0.601902 -0.300993,-1.206848 -0.360242,-1.784674 -0.08665,-0.845093 -0.100183,-0.890266 -0.407337,-1.360074 -0.174739,-0.267272 -0.630572,-1.111022 -1.012963,-1.875 l -0.695258,-1.389052 7.28e-4,-1.293706 7.29e-4,-1.293707 L 73.22909,21.88231 72.629799,19.879105 71.191773,17.293149 C 69.553543,14.347293 69.894668,14.755928 67.635139,13.032712 66.934017,12.498005 65.690557,11.447519 64.871893,10.698297 62.965436,8.953551 61.208753,7.631768 59.050203,6.3178747 57.772786,5.5403213 57.019732,5.1385428 56.027184,4.7049975 54.773579,4.1574226 54.594932,4.1017528 52.565672,3.6263252 l -2.139687,-0.5012995 2.098914,-0.019351 c 2.452576,-0.022611 2.276691,-0.055473 4.110822,0.7680573 2.796566,1.2556666 6.228782,3.6013132 9.029311,6.170816 1.005189,0.922268 2.78094,2.368191 4.221635,3.437509 l 0.563494,0.41824 1.574175,2.843716 1.574174,2.843717 0.624084,2.079222 0.624083,2.079221 v 1.218644 1.218644 l 0.631404,1.218452 c 0.347272,0.670147 0.769897,1.435309 0.939168,1.700358 0.456922,0.715463 0.44823,0.689277 0.541295,1.63077 0.05723,0.578926 0.161928,1.107511 0.310185,1.565936 0.266051,0.822658 0.285866,1.300556 0.108353,2.613388 -0.107507,0.795097 -0.109274,0.919586 -0.01497,1.054233 0.141746,0.20237 0.134961,0.371149 -0.03575,0.889185 -0.243522,0.739002 -0.443901,2.363283 -0.507229,4.111609 -0.05882,1.623836 -0.05787,1.641006 0.102216,1.857518 0.270761,0.366188 0.740929,1.235124 0.903693,1.670151 0.14863,0.397249 0.153911,0.528776 0.153911,3.833527 0,3.373381 -0.0026,3.434123 -0.181364,4.261008 -0.09975,0.461366 -0.282318,1.416225 -0.405707,2.12191 l -0.224343,1.283066 -0.586161,0.723808 c -0.482098,0.595309 -0.673713,0.914808 -1.079318,1.799664 -1.02003,2.22527 -2.459088,4.45787 -3.422131,5.309206 l -0.438389,0.387537 v 1.949472 1.949472 l -1.77323,1.969609 c -1.463748,1.625853 -1.854686,2.10712 -2.239948,2.757501 -0.256695,0.43334 -0.584088,0.912364 -0.72754,1.064496 -0.202205,0.21444 -0.824301,0.553504 -2.768065,1.508695 l -2.507243,1.23209 -1.092657,0.192264 c -0.600962,0.105747 -1.267706,0.226726 -1.481652,0.268852 l -0.388996,0.07659 0.05254,0.77076 0.05253,0.770761 0.557154,0.952754 0.557153,0.952753 1.090496,0.04337 c 0.908632,0.03614 1.272717,0.08762 2.183152,0.308727 l 1.092657,0.265348 4.421555,8.74e-4 4.421555,8.74e-4 0.183563,0.240662 c 0.395472,0.518495 0.502277,1.038432 0.295466,1.438367 -0.06113,0.118196 -0.120129,0.214911 -0.131119,0.214911 -0.01099,0 -0.01998,-0.115734 -0.01998,-0.257197 z"
     id="path77"
     inkscape:connector-curvature="0" /><path
     style="fill:#000000;stroke-width:0.07284383"
     d="m 41.070925,41.148588 c -1.018462,-0.722785 -1.553502,-1.211445 -1.553502,-1.418838 0,-0.118032 0.618138,-2.639098 0.772639,-3.151198 0.03564,-0.118134 0.218942,-0.127477 2.501087,-0.127477 h 2.462626 l 0.623658,0.251424 c 0.875243,0.35285 1.195063,0.528878 2.984237,1.642515 l 1.57992,0.983392 0.0012,1.074446 0.0012,1.074447 h -1.04118 c -0.572653,0 -1.677545,0.06556 -2.455317,0.145687 -1.004364,0.103473 -1.934071,0.145688 -3.208474,0.145688 h -1.794342 z m 2.213216,-0.818579 c -0.130196,-0.378082 -0.136401,-0.482877 -0.06374,-1.076598 0.06751,-0.551644 0.260996,-1.29477 0.488233,-1.875145 0.04747,-0.121247 -0.03664,-0.12785 -1.391852,-0.109266 l -1.442377,0.01978 -0.195751,0.801282 c -0.107664,0.440705 -0.245533,0.919707 -0.306376,1.064449 l -0.110624,0.263167 0.957287,0.660301 0.957286,0.660301 0.626078,0.0053 0.626078,0.0053 z m 6.273556,-0.0074 c 0.04145,-0.292848 -0.04802,-0.47805 -0.313135,-0.648185 -0.14047,-0.09014 -0.280443,-0.163898 -0.311054,-0.163898 -0.03061,0 -0.05565,0.139313 -0.05565,0.309586 0,0.170272 -0.02565,0.40148 -0.057,0.513795 l -0.057,0.20421 0.384794,-0.0221 c 0.340875,-0.01958 0.387561,-0.04165 0.409042,-0.193408 z"
     id="path79"
     inkscape:connector-curvature="0" /><path
     style="fill:#000000;stroke-width:0.07284383"
     d="m 41.338518,41.357674 c -1.138474,-0.828716 -1.747832,-1.346638 -1.792156,-1.523239 -0.0374,-0.149017 0.314935,-1.706574 0.703559,-3.110196 l 0.07563,-0.273164 h 2.47137 2.471369 l 0.552553,0.219497 c 0.835522,0.331905 1.166493,0.513372 2.965954,1.626188 l 1.657197,1.024837 v 1.077851 1.077851 l -1.001602,3.49e-4 c -0.550882,1.9e-4 -1.657197,0.06559 -2.458479,0.145339 -1.057806,0.105273 -1.955715,0.14326 -3.277972,0.138679 l -1.821096,-0.0063 -0.546329,-0.397682 z m 2.039627,-0.652235 c 0,-0.02388 -0.05393,-0.228755 -0.119847,-0.455274 -0.102863,-0.353486 -0.107934,-0.501445 -0.03579,-1.044052 0.04623,-0.34771 0.176653,-0.916285 0.289821,-1.263499 0.138104,-0.423718 0.179041,-0.641552 0.124498,-0.662483 -0.04469,-0.01715 -0.683405,-0.02222 -1.419356,-0.01127 l -1.338093,0.01992 -0.19788,0.801282 c -0.108834,0.440705 -0.247824,0.919707 -0.308866,1.064449 l -0.110987,0.263167 0.957287,0.660301 0.957286,0.660301 0.600962,0.0053 c 0.330529,0.0029 0.600961,-0.01425 0.600961,-0.03813 z m 6.118882,-0.4992 c 0,-0.281913 -0.0317,-0.348272 -0.243619,-0.509907 -0.13399,-0.102199 -0.260523,-0.185816 -0.281184,-0.185816 -0.02066,0 -0.05584,0.172093 -0.07818,0.38243 -0.02234,0.210336 -0.06321,0.439794 -0.09083,0.509906 -0.04385,0.111321 -0.0031,0.127477 0.321798,0.127477 h 0.372013 z"
     id="path81"
     inkscape:connector-curvature="0" /><path
     style="fill:#000000;stroke-width:0.07284383"
     d="m 69.237703,43.000277 c -0.420673,-0.200692 -0.908526,-0.397119 -1.084118,-0.436505 -0.259482,-0.0582 -3.652849,-0.283015 -4.297783,-0.28473 l -0.173567,-4.61e-4 0.0413,-0.928759 c 0.02988,-0.671996 0.0894,-1.089865 0.215282,-1.511509 l 0.173981,-0.582751 0.581784,-0.305625 c 0.517589,-0.271902 0.678485,-0.317563 1.458151,-0.413816 0.803614,-0.09921 0.947764,-0.141868 1.736422,-0.513868 0.844206,-0.398201 0.872089,-0.405677 1.512995,-0.405677 h 0.65294 l 0.831415,0.560769 c 0.457279,0.308423 0.891356,0.616613 0.964617,0.684865 0.117604,0.109565 0.138191,0.297648 0.175827,1.606334 l 0.04263,1.48224 -0.298484,0.710227 -0.298483,0.710227 -0.735024,-0.003 c -0.729282,-0.003 -0.740999,-0.0059 -1.499884,-0.367928 z m 1.746771,-0.864482 c 0.149634,-0.293306 0.199493,-0.73134 0.08324,-0.73134 -0.03516,0 -0.106525,0.05133 -0.158592,0.114069 -0.129155,0.155621 -0.464203,0.323087 -0.942984,0.471329 L 69.5655,42.1139 l 0.327797,0.150039 c 0.180289,0.08252 0.466445,0.152354 0.635903,0.155184 0.28752,0.0048 0.317939,-0.01413 0.455274,-0.283328 z m -3.389972,-0.885178 c -0.175032,-0.338474 -0.210118,-1.029345 -0.08282,-1.630836 0.05935,-0.280448 0.09856,-0.520022 0.08714,-0.532385 -0.01143,-0.01236 -0.132225,0.02409 -0.26844,0.081 -0.136216,0.05691 -0.59048,0.142543 -1.009476,0.190285 -0.443654,0.05055 -0.905756,0.150954 -1.10648,0.240408 -0.333744,0.148735 -0.347332,0.167139 -0.428678,0.580616 -0.04621,0.234857 -0.112368,0.444539 -0.147027,0.46596 -0.03466,0.02142 -0.06302,0.179577 -0.06302,0.351458 v 0.312512 l 0.710227,0.04703 c 0.390625,0.02587 1.021635,0.0495 1.402244,0.05253 0.380609,0.003 0.757576,0.03186 0.837704,0.06408 0.202038,0.08124 0.210905,0.05247 0.06863,-0.222658 z"
     id="path83"
     inkscape:connector-curvature="0" /><path
     style="fill:#000000;stroke-width:0.07284383"
     d="m 69.164859,42.973639 c -0.460737,-0.215633 -0.968823,-0.411476 -1.129079,-0.435206 -0.282247,-0.0418 -3.719404,-0.256398 -4.143556,-0.258708 l -0.209989,-0.0011 0.0413,-0.928759 c 0.02988,-0.671996 0.0894,-1.089865 0.215282,-1.511509 l 0.173981,-0.582751 0.58112,-0.305283 c 0.512961,-0.269477 0.685235,-0.31887 1.468781,-0.421124 0.803843,-0.104903 0.967714,-0.153457 1.735483,-0.51421 0.833505,-0.391641 0.85906,-0.398369 1.513188,-0.398369 h 0.665365 l 0.909883,0.627762 c 0.500436,0.345269 0.929471,0.65872 0.953411,0.696558 0.02394,0.03784 0.06261,0.741741 0.08593,1.564229 l 0.0424,1.495433 -0.295163,0.68534 -0.295163,0.68534 -0.737734,-0.0028 c -0.737626,-0.0028 -0.737859,-0.0028 -1.575439,-0.39483 z m 1.823057,-0.858957 c 0.225029,-0.495748 0.171844,-0.898156 -0.07879,-0.596158 -0.128356,0.154658 -0.461855,0.322515 -0.942984,0.474622 l -0.400641,0.126662 0.327797,0.147085 c 0.180289,0.0809 0.468714,0.1494 0.640945,0.15223 0.299491,0.0049 0.319277,-0.0084 0.453674,-0.304441 z m -3.396914,-0.870834 c -0.171796,-0.332216 -0.205721,-1.026814 -0.07932,-1.624067 0.05935,-0.280448 0.09856,-0.520022 0.08714,-0.532385 -0.01143,-0.01236 -0.132225,0.02409 -0.26844,0.081 -0.136216,0.05691 -0.59048,0.145469 -1.009476,0.196788 -0.815553,0.09989 -1.328023,0.273015 -1.440245,0.486552 -0.03823,0.07274 -0.09256,0.271403 -0.120727,0.441466 -0.02817,0.170062 -0.08115,0.327701 -0.117725,0.350307 -0.03658,0.02261 -0.06651,0.186677 -0.06651,0.364601 v 0.323498 l 0.38243,0.0092 c 0.435306,0.01042 2.428296,0.104409 2.624248,0.12376 0.122197,0.01207 0.122674,-1.31e-4 0.0086,-0.220677 z"
     id="path85"
     inkscape:connector-curvature="0" /><path
     style="fill:#000000;stroke-width:0.07284383"
     d="m 73.417706,83.030628 c 0.05699,-0.148506 -0.112551,-0.542205 -0.30877,-0.717031 -0.147466,-0.131388 -0.383705,-0.141266 -4.692413,-0.196154 l -4.537129,-0.05779 -1.297514,-0.295542 c -1.187363,-0.270462 -1.385071,-0.295556 -2.328859,-0.2956 l -1.031344,-5.8e-5 -0.741883,-1.334077 -0.741883,-1.334069 -0.05153,-0.81443 c -0.02838,-0.448572 -0.08779,-0.84206 -0.132243,-0.875925 -0.04439,-0.03381 -1.423765,-0.147538 -3.06528,-0.252717 L 51.50428,76.665994 49.514757,75.921481 47.525233,75.176966 44.996415,72.846628 C 40.303283,68.521847 39.898826,68.167293 38.754033,67.374441 37.751678,66.680238 37.406966,66.37204 34.64433,63.700071 l -3.015576,-2.916608 -0.786535,-1.46879 c -0.432595,-0.807834 -0.88297,-1.570537 -1.000834,-1.694894 l -0.214299,-0.226105 -0.05135,-1.414681 -0.05135,-1.414682 -0.496691,-0.740305 -0.496691,-0.740306 -0.347261,-2.023028 -0.347262,-2.023026 0.231496,-0.706261 c 0.139843,-0.426641 0.231496,-0.856191 0.231496,-1.084952 v -0.378691 h 0.473485 0.473485 v 0.553877 c 0,0.392666 -0.05532,0.731309 -0.190069,1.163491 l -0.190068,0.609615 0.342043,1.877738 c 0.374905,2.058145 0.285672,1.819022 1.123114,3.00967 0.226773,0.322419 0.235168,0.362766 0.337221,1.620816 l 0.104658,1.290166 0.317672,0.564499 c 0.17472,0.310474 0.574428,1.049772 0.888241,1.642883 l 0.570569,1.078384 2.045133,1.981197 c 3.573667,3.461945 3.663056,3.542445 4.807243,4.329216 0.918409,0.631521 1.666261,1.273705 4.882897,4.192974 l 3.798385,3.447238 1.926906,0.663945 1.926906,0.663945 3.095862,0.186875 3.095863,0.186875 1.52972,-0.250608 1.52972,-0.250608 1.89394,-0.912048 c 1.041666,-0.501626 2.203839,-1.068744 2.582605,-1.260261 l 0.688665,-0.348212 0.476796,-0.822138 c 0.405151,-0.6986 0.742187,-1.120013 2.242969,-2.804487 l 1.766173,-1.98235 0.0021,-1.966783 0.0021,-1.966783 0.495331,-0.410764 c 0.956145,-0.792903 2.094862,-2.538198 3.39157,-5.198211 0.450579,-0.924299 0.742543,-1.415834 1.151271,-1.938223 l 0.5476,-0.699878 0.161367,-0.866264 c 0.08875,-0.476445 0.273474,-1.371619 0.410495,-1.989274 l 0.249128,-1.12301 V 47.872992 44.60474 L 77.05951,44.224732 c -0.105082,-0.209005 -0.38124,-0.707806 -0.613685,-1.108447 l -0.422627,-0.728438 0.06499,-1.857518 c 0.08488,-2.42606 0.2488,-3.728458 0.540186,-4.291938 0.09618,-0.185991 0.0926,-0.257265 -0.03538,-0.7048 -0.116083,-0.405921 -0.13419,-0.626174 -0.09803,-1.192443 0.04156,-0.65095 0.0284,-0.747159 -0.20962,-1.532264 -0.157577,-0.51976 -0.290064,-1.165512 -0.349071,-1.701395 -0.08768,-0.795851 -0.1171,-0.898841 -0.374546,-1.311189 C 75.408062,29.550176 74.954855,28.701714 74.5546,27.91083 L 73.826864,26.472858 V 25.173445 23.874032 L 73.225902,21.876569 72.624941,19.879105 71.27733,17.440577 C 69.708659,14.602038 69.690396,14.57951 67.819984,13.175912 67.180463,12.696001 65.934833,11.65214 65.051919,10.85622 62.064106,8.1627986 58.699189,5.8702703 56.003661,4.6916129 54.927329,4.2209717 54.635407,4.1308197 52.633028,3.6506857 l -2.192243,-0.52566 2.091513,-0.019351 c 1.670531,-0.015456 2.165784,0.00224 2.460498,0.087915 0.20294,0.058996 0.975221,0.3812759 1.716181,0.7161766 1.708687,0.7722969 3.935725,2.1208723 5.717828,3.4624111 1.621161,1.2203848 1.930391,1.474652 3.194914,2.627055 0.985523,0.8981396 2.652652,2.2621306 4.107168,3.3603506 l 0.723574,0.546329 1.573363,2.840908 1.573363,2.840909 0.623745,2.068177 0.623745,2.068176 v 1.22486 1.224861 l 0.520246,1.004748 c 0.286135,0.552613 0.742067,1.381716 1.013182,1.842453 l 0.492935,0.837704 0.08484,0.837704 c 0.05181,0.511532 0.17493,1.135513 0.316218,1.602564 0.265311,0.877035 0.282203,1.292586 0.106595,2.622378 -0.09406,0.712264 -0.09573,0.867158 -0.01113,1.034407 0.131586,0.260153 0.125831,0.39389 -0.03918,0.910427 -0.29334,0.918236 -0.505839,2.83283 -0.519867,4.683954 l -0.008,1.056235 0.376322,0.619173 c 0.206977,0.340544 0.463484,0.799461 0.570016,1.019813 l 0.193693,0.400641 0.021,3.532926 0.021,3.532925 -0.218873,1.056235 c -0.120381,0.58093 -0.303853,1.542111 -0.407717,2.135958 l -0.188844,1.079721 -0.604801,0.761781 c -0.480006,0.604595 -0.685794,0.945072 -0.997315,1.650063 -0.531837,1.203577 -1.859589,3.505505 -2.510281,4.352081 -0.292542,0.380609 -0.730629,0.866043 -0.973526,1.078742 l -0.441632,0.386725 v 1.948662 1.948663 l -1.468381,1.634601 c -1.914403,2.131114 -2.08347,2.337588 -2.540038,3.102053 -0.211878,0.35476 -0.494268,0.781029 -0.627537,0.947265 -0.269678,0.33639 -0.572806,0.503743 -3.558974,1.96486 l -1.821096,0.891052 -1.274767,0.224637 c -0.701121,0.123557 -1.366899,0.243699 -1.479507,0.266987 l -0.204739,0.04235 0.05134,0.766425 0.05134,0.766435 0.508374,0.884004 c 0.279605,0.48621 0.559773,0.924985 0.622596,0.975065 0.07698,0.06136 0.39738,0.09105 0.982602,0.09105 0.751844,0 1.039651,0.0391 2.144608,0.291375 l 1.276227,0.291376 h 4.393707 4.393707 l 0.183563,0.240661 c 0.395472,0.518495 0.502277,1.038432 0.295466,1.438367 -0.115839,0.224002 -0.22802,0.298805 -0.152334,0.101573 z"
     id="path87"
     inkscape:connector-curvature="0" /><path
     style="fill:#000000;stroke-width:0.07284383"
     d="m 73.389801,82.890163 c 0,-0.174468 -0.06314,-0.324468 -0.201968,-0.479844 l -0.201968,-0.226041 -4.587513,-0.06266 -4.587514,-0.06266 -1.092657,-0.268094 c -0.97533,-0.239299 -1.222656,-0.271766 -2.30331,-0.302353 l -1.210651,-0.03427 -0.734574,-1.324243 -0.734574,-1.324242 -0.05013,-0.775321 c -0.02757,-0.42642 -0.07612,-0.817373 -0.10789,-0.868779 -0.04205,-0.06803 -0.875285,-0.148077 -3.062242,-0.294172 L 51.510333,76.666777 49.517399,75.923818 47.524464,75.180856 45.064098,72.916055 C 39.750949,68.025227 39.989419,68.233262 38.570448,67.251182 37.811033,66.725585 37.242774,66.2173 35.146788,64.188853 33.764577,62.851181 32.41348,61.550794 32.14435,61.299105 31.757503,60.937328 31.568534,60.678775 31.242047,60.064553 30.390789,58.463078 30.02217,57.824488 29.826455,57.61221 29.625278,57.394006 29.624897,57.391553 29.572364,55.975546 l -0.05261,-1.418132 -0.49775,-0.741885 -0.49775,-0.741884 -0.343685,-2.008502 -0.343686,-2.008502 0.232763,-0.748439 c 0.12802,-0.411642 0.232102,-0.904144 0.231294,-1.094448 l -0.0015,-0.346008 h 0.473485 0.473485 v 0.554005 c 0,0.386327 -0.05632,0.738662 -0.186093,1.164107 l -0.186092,0.610101 0.334407,1.832187 c 0.183924,1.007704 0.370709,1.901578 0.415079,1.986389 0.04437,0.08481 0.274263,0.43541 0.510874,0.779109 l 0.4302,0.624908 0.106951,1.273349 0.10695,1.273349 0.873608,1.634669 0.873608,1.634668 1.219374,1.19431 c 3.493194,3.421391 4.538278,4.37429 5.621031,5.125213 1.093777,0.758567 1.275114,0.915821 5.938773,5.150101 l 2.764673,2.510131 1.824488,0.647313 1.824488,0.647313 3.193723,0.210664 3.193724,0.210663 1.541125,-0.250357 1.541125,-0.250357 1.821096,-0.883891 c 1.001602,-0.48614 2.157413,-1.047658 2.568468,-1.247817 l 0.747373,-0.363926 0.502453,-0.849971 c 0.423446,-0.71632 0.778166,-1.159234 2.255878,-2.816754 l 1.753425,-1.966784 0.0016,-1.972275 0.0016,-1.972275 0.476719,-0.386784 c 0.917162,-0.744134 2.038219,-2.452861 3.371167,-5.138363 0.468584,-0.944059 0.804209,-1.510501 1.198676,-2.023026 0.536739,-0.697377 0.550332,-0.725491 0.66915,-1.384032 0.0667,-0.369708 0.250266,-1.275418 0.407913,-2.012688 l 0.286627,-1.340494 V 47.838226 44.60595 l -0.248758,-0.489877 c -0.136818,-0.269432 -0.414392,-0.76379 -0.616832,-1.098572 l -0.368074,-0.608694 0.07134,-1.927709 c 0.08852,-2.392214 0.255896,-3.692369 0.548147,-4.25803 0.086,-0.166455 0.0802,-0.257238 -0.04419,-0.692016 -0.116684,-0.407839 -0.134586,-0.622758 -0.09676,-1.161608 0.0427,-0.608254 0.02746,-0.724874 -0.190407,-1.456877 -0.130253,-0.437632 -0.294449,-1.228826 -0.36488,-1.758207 -0.121985,-0.916876 -0.143659,-0.987679 -0.457133,-1.493299 -0.180991,-0.291932 -0.627659,-1.128671 -0.992594,-1.85942 L 73.826911,26.473009 V 25.18613 23.899251 L 73.239265,21.925602 72.65162,19.951953 71.444101,17.766638 C 69.616696,14.459481 69.817988,14.709905 67.66782,13.068638 67.068942,12.611502 65.972525,11.694035 65.23134,11.029821 63.450104,9.4336068 63.188827,9.2151414 61.989742,8.3194116 59.66059,6.5795081 57.598811,5.3607727 55.506642,4.4871936 54.83139,4.2052442 54.15339,4.0087697 52.526577,3.6236153 l -2.105938,-0.4985896 2.101587,-0.019351 c 2.463311,-0.022682 2.303634,-0.052711 4.151125,0.7806901 2.824999,1.2743547 6.157932,3.5605127 9.126021,6.2598092 0.850236,0.773238 2.665437,2.252402 4.032823,3.286253 l 0.626238,0.473485 1.551801,2.804487 c 0.853491,1.542468 1.561459,2.824714 1.573264,2.849435 0.0118,0.02472 0.300848,0.970893 0.64232,2.102603 l 0.620859,2.057654 v 1.22636 1.22636 l 0.664642,1.260199 c 0.365553,0.693109 0.82319,1.522436 1.016973,1.842948 0.336301,0.556237 0.356154,0.619208 0.436349,1.384033 0.04621,0.440705 0.146242,1.03074 0.222293,1.311189 0.390327,1.439377 0.388227,1.422416 0.276511,2.233774 -0.111011,0.806238 -0.126111,1.650454 -0.0352,1.968105 0.03728,0.130269 0.0055,0.361097 -0.09523,0.692017 -0.259706,0.853055 -0.446661,2.414693 -0.495479,4.138738 l -0.04538,1.602564 0.307328,0.473485 c 0.16903,0.260417 0.427866,0.719333 0.575191,1.019813 l 0.267864,0.546329 0.02088,3.522433 0.02088,3.522432 -0.254601,1.285261 c -0.14003,0.706892 -0.324077,1.676371 -0.408993,2.154397 l -0.154393,0.869138 -0.552552,0.697004 c -0.420931,0.530974 -0.68622,0.974634 -1.113695,1.862505 -1.172047,2.434359 -2.489873,4.469354 -3.411441,5.267969 l -0.447081,0.387433 v 1.953416 1.953416 l -1.365822,1.521443 c -2.019565,2.249673 -2.146314,2.403246 -2.605823,3.157291 -0.814904,1.337241 -0.681181,1.24225 -4.077598,2.896542 l -1.966783,0.95796 -1.450875,0.258136 c -0.797982,0.141973 -1.463527,0.270783 -1.478991,0.286248 -0.01546,0.01546 -0.0052,0.361013 0.02284,0.767905 l 0.05095,0.739787 0.543461,0.93463 0.543461,0.93463 0.37467,0.04501 c 0.206068,0.02476 0.636907,0.0458 0.95742,0.04674 0.412578,0.0012 0.955002,0.08647 1.857518,0.291929 l 1.274767,0.290202 h 4.385133 4.385133 l 0.183563,0.240662 c 0.395472,0.518495 0.502277,1.038432 0.295466,1.438367 -0.144158,0.278766 -0.180239,0.270979 -0.180239,-0.03889 z"
     id="path89"
     inkscape:connector-curvature="0" /><path
     style="fill:#000000;stroke-width:0.07284383"
     d="m 52.520045,82.074545 c -0.327579,-0.17481 -1.038969,-0.758697 -1.515165,-1.243602 -0.390749,-0.397895 -0.454205,-0.512656 -0.844201,-1.526746 l -0.421693,-1.096513 0.386346,-0.160131 c 0.21249,-0.08807 0.414405,-0.142789 0.448701,-0.121593 0.0343,0.0212 0.223941,0.451965 0.421434,0.957264 0.3831,0.980192 0.505907,1.138836 1.583613,2.045749 0.329809,0.277542 0.34528,0.306135 0.263163,0.486363 -0.07979,0.175113 -0.06714,0.208405 0.147949,0.389389 l 0.235196,0.197904 -0.170562,0.0946 c -0.218063,0.12095 -0.269728,0.118758 -0.534781,-0.02269 z"
     id="path91"
     inkscape:connector-curvature="0" /><path
     style="fill:#000000;stroke-width:0.07284383"
     d="m 64.280949,65.694433 -0.318335,-0.32436 H 58.895066 53.827519 L 51.722317,64.71809 c -1.157861,-0.358591 -2.140416,-0.630974 -2.183457,-0.605297 -0.04304,0.02568 -0.314412,0.223576 -0.603047,0.439774 l -0.524792,0.393088 -0.240068,-0.273422 c -0.132038,-0.150383 -0.240069,-0.309767 -0.240069,-0.354188 0,-0.09093 1.30757,-1.351818 1.401864,-1.351818 0.03336,0 1.089047,0.327797 2.345962,0.728438 l 2.285301,0.728438 5.214789,0.003 5.214789,0.003 0.416915,0.521513 c 0.459845,0.575211 0.459485,0.590058 -0.02269,0.933769 l -0.188528,0.134389 -0.318335,-0.32436 z"
     id="path93"
     inkscape:connector-curvature="0" /><path
     style="fill:#000000;stroke-width:0.07284383"
     d="m 52.460261,57.831128 c -0.353394,-0.09269 -0.652903,-0.179862 -0.665575,-0.193722 -0.01267,-0.01386 -0.305372,-0.35251 -0.650443,-0.752554 L 50.51684,56.157498 v -1.512594 -1.512593 h 0.993546 c 0.976454,0 0.999657,-0.0038 1.348705,-0.218532 0.195338,-0.120192 0.379252,-0.218059 0.408698,-0.217482 0.08017,0.0016 0.464009,0.725396 0.42131,0.794484 -0.02031,0.03286 -0.23664,0.178719 -0.480734,0.324125 -0.421453,0.251058 -0.476568,0.264374 -1.094182,0.264374 H 51.46381 v 0.866781 0.866781 l 0.449896,0.499041 c 0.444496,0.493051 0.457391,0.500878 1.074446,0.652135 0.343503,0.0842 0.623912,0.182541 0.623132,0.218531 -7.8e-4,0.03599 -0.04795,0.237531 -0.104826,0.447868 -0.121403,0.448984 -0.108802,0.446567 -1.046197,0.200711 z"
     id="path95"
     inkscape:connector-curvature="0" /><path
     style="fill:#000000;stroke-width:0.07284383"
     d="m 56.165503,57.21491 -0.281253,-0.288029 0.271347,-0.331143 0.271347,-0.331143 h 0.978514 0.978515 v 0.437063 0.437063 h -0.752162 c -0.708122,0 -0.76218,0.01066 -0.923246,0.182109 -0.0941,0.100161 -0.191496,0.18211 -0.216446,0.18211 -0.02495,0 -0.171926,-0.129613 -0.326616,-0.28803 z"
     id="path97"
     inkscape:connector-curvature="0" /><path
     style="fill:#000000;stroke-width:0.07284383"
     d="m 62.390383,58.373094 c -0.380609,-0.158698 -0.74932,-0.31287 -0.819359,-0.342605 -0.117148,-0.04974 -0.111315,-0.0872 0.07284,-0.467904 l 0.200187,-0.41384 0.756597,0.286363 c 0.416129,0.1575 0.768511,0.286363 0.783072,0.286363 0.01456,0 0.02647,-0.195902 0.02647,-0.435338 v -0.43534 l 1.092657,-1.688487 c 0.728371,-1.125554 1.090791,-1.751487 1.087059,-1.877452 -0.01568,-0.529245 -0.147545,-0.701248 -1.328241,-1.732524 l -1.15173,-1.005975 -0.747148,-1.602564 -0.747149,-1.602564 -0.234165,-1.414452 c -0.12879,-0.777948 -0.208517,-1.437578 -0.17717,-1.465846 0.03135,-0.02827 0.240088,-0.06902 0.46387,-0.09056 l 0.406876,-0.03916 0.246004,1.395745 0.246004,1.395744 0.699798,1.493299 0.699797,1.493298 1.093296,0.94697 1.093296,0.946969 0.231037,0.695756 c 0.12707,0.382665 0.231037,0.734432 0.231037,0.781705 0,0.04727 -0.508086,0.881251 -1.129079,1.853284 l -1.129079,1.767334 v 0.783565 0.783566 l -0.637384,-0.0034 c -0.573427,-0.0031 -0.706822,-0.03236 -1.3294,-0.291944 z"
     id="path99"
     inkscape:connector-curvature="0" /><path
     style="fill:#000000;stroke-width:0.07284383"
     d="m 52.41078,34.818797 v -0.466776 l -0.801283,-0.745124 c -0.440705,-0.409819 -0.801282,-0.777636 -0.801282,-0.817373 0,-0.03974 0.113685,-0.198084 0.252634,-0.351883 l 0.252633,-0.279635 1.022134,0.877635 1.022133,0.877636 v 0.686149 0.686148 H 52.884264 52.41078 Z"
     id="path101"
     inkscape:connector-curvature="0" /><path
     style="fill:#000000;stroke-width:0.07284383"
     d="m 62.205819,37.332471 -0.29383,-0.04369 0.258223,-1.966783 0.258223,-1.966784 0.432084,0.02012 c 0.237646,0.01106 0.446816,0.03485 0.464822,0.05286 0.02967,0.02967 -0.37751,3.292084 -0.470469,3.769539 -0.04168,0.21408 -0.0725,0.220479 -0.649053,0.134747 z"
     id="path103"
     inkscape:connector-curvature="0" /><path
     style="fill:#000000;stroke-width:0.07284383"
     d="m 69.974663,31.346017 -1.630465,-1.159511 h -2.297042 -2.297043 l -0.681658,0.364219 c -0.374912,0.200321 -0.707099,0.364219 -0.738194,0.364219 -0.04535,0 -0.218039,-0.295227 -0.43493,-0.74356 -0.01371,-0.02835 0.370185,-0.249613 0.853111,-0.491696 l 0.878046,-0.440152 h 2.534612 2.534612 l 1.673239,1.243527 c 0.920282,0.68394 1.696612,1.266207 1.725178,1.293927 0.0544,0.05278 -0.363037,0.744937 -0.442989,0.734528 -0.02531,-0.0033 -0.779722,-0.52777 -1.676477,-1.165501 z"
     id="path105"
     inkscape:connector-curvature="0" /><path
     style="fill:#000000;stroke-width:0.07284383"
     d="M 33.908448,26.726425 V 26.25294 h 2.319589 2.319588 l 4.772368,-1.456877 4.772369,-1.456876 h 1.565065 1.565064 l 2.350639,0.837704 2.350639,0.837704 h 3.112464 c 2.708459,0 3.15888,0.0157 3.47005,0.120978 0.278729,0.0943 0.665227,0.123203 1.752632,0.131065 l 1.395047,0.01009 0.517103,0.393123 c 0.284407,0.216217 0.517104,0.422954 0.517104,0.459414 0,0.03646 -0.104662,0.202128 -0.232582,0.36815 -0.127921,0.166021 -0.239473,0.312339 -0.247894,0.325149 -0.0084,0.01281 -0.198318,-0.118308 -0.421993,-0.291375 l -0.406682,-0.314667 -1.330419,-0.0098 c -1.00784,-0.0074 -1.41712,-0.03831 -1.688004,-0.127477 -0.307009,-0.101064 -0.803299,-0.117714 -3.508867,-0.117714 H 55.700447 L 53.38945,25.12386 51.078454,24.286156 h -1.474969 -1.474969 l -4.772306,1.456877 -4.772306,1.456876 h -2.337728 -2.337728 z"
     id="path107"
     inkscape:connector-curvature="0" /><path
     style="fill:#000000;stroke-width:0.07284383"
     d="m 66.761013,23.004148 -1.420455,-1.134085 -1.420454,0.04241 c -0.78125,0.02332 -2.94505,0.113245 -4.808443,0.199821 L 55.723673,22.269706 53.752829,21.52968 51.781985,20.789654 H 48.561482 45.34098 l -2.055863,0.330323 c -1.731104,0.278143 -4.746436,0.609156 -4.825828,0.529764 -0.0128,-0.0128 -0.04593,-0.223594 -0.07363,-0.468435 l -0.05036,-0.445167 1.264872,-0.05042 c 1.060342,-0.04227 1.627816,-0.114506 3.509424,-0.446727 l 2.244553,-0.396305 h 3.286767 3.286767 l 1.971594,0.742148 1.971594,0.742149 4.861218,-0.195055 4.861217,-0.195055 1.54904,1.210863 c 0.851971,0.665975 1.561156,1.221345 1.575966,1.234157 0.02286,0.01977 -0.490483,0.760659 -0.524828,0.757461 -0.0066,-6.15e-4 -0.651211,-0.511456 -1.432461,-1.135203 z"
     id="path109"
     inkscape:connector-curvature="0" /><path
     style="fill:#000000;stroke-width:0.07284383"
     d="m 25.130768,83.436376 c -6.25,-0.831312 -11.471115,-1.556137 -11.602477,-1.610722 -0.175614,-0.07297 -0.259862,-0.169409 -0.318251,-0.364292 -0.07331,-0.244675 -0.05586,-0.310309 0.226952,-0.853915 0.301944,-0.580374 0.835665,-1.178516 1.051588,-1.178516 0.137615,0 1.152201,-1.00263 1.977203,-1.953904 0.566529,-0.653238 0.720368,-0.893835 1.17158,-1.832298 0.285679,-0.594175 0.782422,-1.517803 1.103875,-2.052507 l 0.584459,-0.972189 0.153982,-1.556387 0.153981,-1.556388 0.690716,-1.484823 0.690716,-1.484823 V 61.033411 55.53121 L 20.68213,54.240705 c -0.403113,-1.562394 -0.591645,-1.92784 -2.507178,-4.859851 l -1.284932,-1.966784 -0.816303,-1.930361 -0.816302,-1.930361 0.0015,-0.851988 0.0015,-0.851988 -0.661355,-1.277928 -0.661354,-1.277929 -0.06183,-1.075212 c -0.034,-0.591366 -0.101958,-1.435789 -0.151009,-1.876494 -0.07908,-0.710511 -0.0672,-1.131357 0.104886,-3.715035 0.106737,-1.602564 0.193673,-3.003897 0.193191,-3.114073 -8.68e-4,-0.198076 0.0044,-0.200321 0.472607,-0.200321 0.329434,0 0.473937,0.0277 0.47497,0.09106 8.16e-4,0.05008 -0.08629,1.451413 -0.193569,3.114074 -0.186248,2.886543 -0.190795,3.101231 -0.100719,4.75548 l 0.09433,1.732461 0.645563,1.240736 0.645564,1.240735 v 0.95062 0.95062 l 0.808361,1.820113 c 0.651201,1.466249 0.943654,2.027553 1.504239,2.887081 1.097908,1.683391 1.854927,2.901084 2.293601,3.689345 0.363673,0.653491 0.439861,0.871068 0.7405,2.114713 l 0.335117,1.386274 v 5.733823 5.733822 l -0.687432,1.569736 -0.687432,1.569735 -0.195112,1.581147 -0.195112,1.581146 -0.555767,0.910548 c -0.305672,0.500801 -0.853908,1.476727 -1.218301,2.168722 -0.562554,1.06831 -0.765327,1.3761 -1.343713,2.039628 -1.053805,1.208932 -1.747732,1.865064 -2.2135,2.092943 -0.342208,0.167427 -0.445949,0.264412 -0.592783,0.554173 -0.09789,0.193176 -0.177981,0.368709 -0.177981,0.390073 0,0.02136 0.421662,0.03884 0.937027,0.03884 0.515365,0 1.098454,0.03061 1.295753,0.06803 0.197298,0.03742 2.045632,0.300158 4.107407,0.583868 2.70798,0.372633 4.780043,0.708824 7.463717,1.210984 4.98183,0.932185 9.463951,1.835561 9.105478,1.83522 -0.160256,-1.45e-4 -5.405011,-0.680441 -11.655011,-1.511754 z"
     id="path111"
     inkscape:connector-curvature="0" /><path
     style="fill:#000000;stroke-width:0.07284383"
     d="m 25.130768,83.437192 c -6.25,-0.831607 -11.471115,-1.556736 -11.602477,-1.611398 -0.174568,-0.07264 -0.259916,-0.169728 -0.317157,-0.360783 -0.07087,-0.236534 -0.05317,-0.311328 0.186038,-0.786336 0.306593,-0.608812 0.688024,-1.058921 1.057006,-1.247322 0.330277,-0.168639 1.02479,-0.841882 1.902772,-1.844497 0.617635,-0.705312 0.759173,-0.925518 1.381203,-2.148893 0.381177,-0.749679 0.893913,-1.69085 1.139412,-2.091491 l 0.446363,-0.728439 0.153339,-1.56037 0.153339,-1.560369 0.692243,-1.484836 0.692243,-1.484835 v -5.499881 -5.49988 l -0.330311,-1.252409 c -0.44174,-1.674908 -0.569932,-1.922769 -2.565162,-4.959787 -1.18286,-1.800479 -1.197336,-1.827478 -2.025283,-3.777456 L 15.26043,43.574194 v -0.855902 -0.855901 l -0.658955,-1.266993 -0.658954,-1.266992 -0.064,-1.019813 c -0.0352,-0.560898 -0.103711,-1.429561 -0.152248,-1.930362 -0.07874,-0.81243 -0.06749,-1.224524 0.104386,-3.824301 0.105949,-1.602564 0.192363,-2.987507 0.19203,-3.077651 -5.66e-4,-0.153593 0.02984,-0.163899 0.483632,-0.163899 h 0.484237 l -0.04582,0.673806 c -0.34676,5.099152 -0.359103,5.432238 -0.26791,7.229749 l 0.08869,1.748252 0.648095,1.256232 0.648096,1.256233 v 0.949384 0.949386 l 0.821472,1.837214 c 0.752797,1.683622 0.919505,1.989462 1.994087,3.658311 0.644938,1.001602 1.404037,2.230842 1.686887,2.731643 0.492017,0.871143 0.528665,0.970007 0.846822,2.284472 l 0.33255,1.373924 v 5.752901 5.752901 l -0.687739,1.578012 -0.687739,1.578012 -0.192139,1.566142 -0.192138,1.566142 -0.676558,1.12908 c -0.372106,0.620993 -0.925113,1.604385 -1.228903,2.185314 -0.50708,0.969675 -0.63407,1.147897 -1.549566,2.174718 -0.964598,1.081894 -1.680183,1.713184 -2.046022,1.805003 -0.11238,0.02821 -0.254097,0.179807 -0.390659,0.417906 -0.117867,0.205504 -0.214611,0.395286 -0.214987,0.421739 -3.78e-4,0.02645 0.499208,0.06281 1.110185,0.08079 1.454944,0.04282 8.2635,1.007532 11.928176,1.690114 5.736465,1.068473 10.312675,1.991161 9.870338,1.990127 -0.160256,-3.64e-4 -5.405011,-0.681086 -11.655011,-1.512695 z"
     id="path113"
     inkscape:connector-curvature="0" /><path
     style="fill:#000000"
     d="M 33.034322,84.487822 C 31.131278,84.233627 26.050421,83.5626 21.74353,82.996651 c -4.306891,-0.565949 -7.970046,-1.080197 -8.140344,-1.142773 -0.255633,-0.09393 -0.323623,-0.16047 -0.389856,-0.381536 -0.07245,-0.241812 -0.05689,-0.31561 0.160491,-0.761456 0.28592,-0.586404 0.710725,-1.090748 1.075987,-1.27745 0.275358,-0.140749 1.39578,-1.258789 2.179523,-2.17489 0.331529,-0.387517 0.612921,-0.847532 1.039276,-1.698987 0.32156,-0.642175 0.823594,-1.568829 1.115632,-2.059232 l 0.530978,-0.891642 0.15732,-1.565218 0.157319,-1.565218 0.692618,-1.476911 0.692618,-1.47691 V 61.0543 55.584173 L 20.714746,54.412874 C 20.271161,52.682963 20.05407,52.263228 17.929323,49.027382 16.975046,47.574083 16.895789,47.423686 16.096176,45.54884 l -0.835746,-1.959569 -0.0018,-0.855666 -0.0018,-0.855665 -0.659239,-1.274767 -0.659238,-1.274767 -0.06414,-1.019813 c -0.03528,-0.560898 -0.103753,-1.398242 -0.152168,-1.860766 -0.07617,-0.727646 -0.06633,-1.188934 0.07301,-3.42366 0.08857,-1.420489 0.180614,-2.83675 0.204532,-3.147247 l 0.04349,-0.56454 h 0.463012 c 0.439335,0 0.463011,0.0089 0.463011,0.173695 0,0.09553 -0.08483,1.480476 -0.188509,3.077652 -0.176951,2.725906 -0.183119,3.011147 -0.100598,4.652208 l 0.08791,1.748252 0.646927,1.24971 0.646928,1.249711 v 0.957884 0.957883 l 0.773096,1.725972 c 0.883575,1.972624 0.743029,1.716431 2.145711,3.911288 0.588892,0.921474 1.301969,2.081724 1.584615,2.578332 0.496023,0.871514 0.525488,0.951339 0.846974,2.294581 l 0.333074,1.391655 -8.26e-4,5.745055 -8.26e-4,5.745055 -0.685945,1.575749 -0.685945,1.57575 -0.193559,1.566142 -0.193559,1.566142 -0.675186,1.12908 c -0.371352,0.620993 -0.924542,1.604861 -1.229311,2.186373 -0.504276,0.962179 -0.641453,1.155494 -1.524864,2.148893 -0.880052,0.989621 -1.423566,1.478015 -2.106514,1.892881 -0.240155,0.145885 -0.594394,0.670099 -0.526766,0.779523 0.01978,0.032 0.40886,0.05818 0.864629,0.05818 0.819686,0 1.37746,0.0699 7.576192,0.949467 3.034296,0.430549 15.199024,2.750344 14.423077,2.750458 -0.160256,2.4e-5 -1.848412,-0.207935 -3.751457,-0.46213 z"
     id="path115"
     inkscape:connector-curvature="0" /><path
     style="fill:#000000;stroke-width:0.07284383"
     d="m 55.397376,85.206293 c -0.620993,-0.0098 -2.423878,-0.05109 -4.00641,-0.09176 -8.511034,-0.218736 -9.955979,-0.239388 -11.31571,-0.161728 -0.794658,0.04539 -1.414235,0.113004 -1.471588,0.160603 -0.05448,0.04522 -0.157999,0.06939 -0.230036,0.05371 -0.09235,-0.0201 -0.03431,-0.07287 0.196821,-0.178947 0.487965,-0.223954 0.766011,-0.299896 1.52972,-0.417808 2.011406,-0.310549 4.485874,-0.343038 19.959208,-0.262056 6.900537,0.03611 8.050857,0.0076 10.37794,-0.257537 1.039055,-0.118371 2.03209,-0.331566 2.378304,-0.5106 0.362172,-0.187286 0.324724,-0.0627 -0.04655,0.154886 -2.004597,1.174772 -7.637289,1.664783 -17.371695,1.511234 z"
     id="path117"
     inkscape:connector-curvature="0" /><path
     style="fill:#000000;stroke-width:0.07284383"
     d="m 55.288111,85.212528 c -0.520834,-0.01314 -3.061262,-0.07931 -5.645397,-0.147032 -5.36597,-0.140629 -10.050675,-0.158508 -10.598776,-0.04045 -0.851484,0.183406 -0.816529,0.18043 -0.66316,0.05646 0.213029,-0.172199 0.955497,-0.393345 1.719395,-0.512127 1.824176,-0.283651 2.348121,-0.293612 15.515735,-0.294992 13.471667,-0.0014 13.544247,-0.003 15.57229,-0.336492 0.77729,-0.127825 1.12314,-0.216495 1.800962,-0.461734 l 0.145687,-0.05271 -0.145687,0.123775 c -0.22967,0.195125 -0.995368,0.526712 -1.66314,0.720224 -1.316865,0.381613 -3.680154,0.68342 -6.604634,0.843452 -1.384519,0.07576 -7.743518,0.144272 -9.433275,0.101629 z"
     id="path119"
     inkscape:connector-curvature="0" /><path
     style="fill:#000000;stroke-width:0.07284383"
     d="m 52.369132,81.983724 c -0.203195,-0.116548 -0.688911,-0.517792 -1.07937,-0.891653 l -0.709925,-0.679748 -0.421281,-1.092658 -0.42128,-1.092657 0.367803,-0.16615 c 0.202292,-0.09138 0.403216,-0.152561 0.446498,-0.135952 0.04328,0.01661 0.238536,0.435564 0.433896,0.93101 0.378893,0.960895 0.534377,1.164733 1.555663,2.039461 0.34993,0.299713 0.378827,0.347068 0.314706,0.515719 -0.06039,0.158826 -0.03952,0.215481 0.14416,0.39146 l 0.214765,0.205757 -0.165251,0.09176 c -0.230555,0.128022 -0.264438,0.122228 -0.680384,-0.116349 z"
     id="path121"
     inkscape:connector-curvature="0" /><path
     style="fill:#000000;stroke-width:0.00910548"
     d="m 15.388293,21.665253 c 0.0024,-0.01878 0.0066,-0.101754 0.0094,-0.184386 0.0028,-0.08263 0.05046,-0.696677 0.105918,-1.364543 l 0.100837,-1.214301 1.049815,-1.24964 1.049815,-1.249641 0.09675,-1.952214 c 0.05321,-1.073719 0.09906,-1.973939 0.101872,-2.000491 l 0.0051,-0.04828 1.047534,-0.698349 1.047533,-0.698348 0.522455,-1.044879 0.522455,-1.0448788 h 0.423397 c 0.232868,0 0.423397,0.0017 0.423397,0.00377 0,0.00208 -0.0216,0.044075 -0.04799,0.093331 -0.0503,0.093872 -0.162289,0.324851 -0.838063,1.7285428 l -0.41206,0.855915 -0.887493,0.606393 c -0.928563,0.634456 -1.003449,0.690294 -1.014255,0.756284 -0.0027,0.01675 -0.04852,0.886831 -0.101728,1.933506 -0.07033,1.383588 -0.09984,1.906773 -0.108087,1.916703 -0.0062,0.0075 -0.451393,0.542313 -0.989228,1.188446 -0.537835,0.646134 -0.982814,1.181044 -0.988842,1.18869 -0.0076,0.0097 -0.025,0.293295 -0.05714,0.933129 -0.03877,0.771664 -0.07273,1.499357 -0.07297,1.563442 -5.5e-5,0.01498 -0.02979,0.01593 -0.496416,0.01593 h -0.496356 z"
     id="path123"
     inkscape:connector-curvature="0" /><path
     style="fill:#000000;stroke-width:0.00910548"
     d="m 15.387829,21.6607 c 0.0026,-0.02128 0.0071,-0.106306 0.01002,-0.188939 0.0029,-0.08263 0.05036,-0.694576 0.105494,-1.359874 l 0.100239,-1.209634 1.050045,-1.24997 1.050045,-1.24997 0.09696,-1.956553 c 0.05332,-1.076104 0.09918,-1.97704 0.101908,-2.00208 l 0.005,-0.04553 1.047098,-0.696569 1.047098,-0.69657 0.523061,-1.0448532 0.523061,-1.0448536 h 0.424156 c 0.233286,0 0.42279,0.00307 0.42112,0.00683 -0.0017,0.00376 -0.04946,0.099022 -0.106206,0.2117023 -0.05674,0.1126803 -0.34767,0.7129589 -0.646502,1.3339525 l -0.543332,1.12908 -0.78761,0.539126 c -0.433186,0.29652 -0.838668,0.575148 -0.901072,0.619173 -0.138372,0.09762 -0.206995,0.163465 -0.21363,0.204982 -0.0026,0.01642 -0.04834,0.886227 -0.101591,1.932902 -0.07117,1.398921 -0.09986,1.906663 -0.108312,1.916703 -0.243282,0.289135 -1.963428,2.360715 -1.973362,2.376529 -0.0094,0.01495 -0.01621,0.05557 -0.01986,0.118372 -0.02088,0.358879 -0.114587,2.299387 -0.114867,2.378806 -5.4e-5,0.01498 -0.0298,0.01593 -0.496862,0.01593 h -0.496807 z"
     id="path125"
     inkscape:connector-curvature="0" /><path
     style="fill:#000000;stroke-width:0.00910548"
     d="m 15.387766,21.651595 c 0.0027,-0.02629 0.0072,-0.111315 0.01007,-0.188939 0.0028,-0.07762 0.05034,-0.685781 0.105545,-1.35146 l 0.100365,-1.210324 0.111759,-0.132734 c 1.587966,-1.88599 1.990572,-2.370887 1.990572,-2.397431 0,-0.02737 0.174351,-3.529664 0.190226,-3.821166 0.0045,-0.082 0.0122,-0.151658 0.01718,-0.154793 0.005,-0.0031 0.476867,-0.317108 1.04863,-0.697717 l 1.039569,-0.692017 0.523061,-1.0448532 0.523061,-1.0448536 h 0.424156 c 0.233286,0 0.422686,0.00307 0.42089,0.00683 -0.0018,0.00376 -0.0751,0.1522891 -0.162902,0.3300735 -0.0878,0.1777845 -0.378617,0.7782893 -0.646259,1.3344543 l -0.486622,1.01121 -0.777731,0.532169 c -0.427752,0.292693 -0.833401,0.571559 -0.901442,0.619704 -0.142308,0.100694 -0.215616,0.172557 -0.222945,0.21855 -0.0027,0.01695 -0.01943,0.319688 -0.03718,0.672753 -0.01775,0.353065 -0.0609,1.197143 -0.09588,1.875729 -0.03498,0.678586 -0.06361,1.244335 -0.06362,1.257222 -8e-6,0.01694 -0.04101,0.07247 -0.147975,0.200419 -0.08138,0.09735 -0.524581,0.629715 -0.984891,1.183047 -0.460309,0.55333 -0.843065,1.013262 -0.850569,1.02207 -0.0091,0.01073 -0.01611,0.0498 -0.02113,0.118372 -0.01247,0.170467 -0.11612,2.285659 -0.116898,2.385555 -1.16e-4,0.01498 -0.0299,0.01593 -0.497027,0.01593 h -0.496904 z"
     id="path127"
     inkscape:connector-curvature="0" /><path
     style="fill:#000000;stroke-width:0.00910548"
     d="m 15.388956,21.61062 c 0.0027,-0.04883 0.0089,-0.160282 0.01384,-0.247675 0.0049,-0.08739 0.05195,-0.677005 0.104484,-1.31025 l 0.09551,-1.151354 0.0393,-0.04647 c 0.08187,-0.0968 0.921854,-1.097034 1.354244,-1.612608 0.511025,-0.609336 0.606425,-0.724154 0.665766,-0.801282 l 0.04203,-0.05463 0.09668,-1.953125 c 0.05317,-1.074219 0.09899,-1.971564 0.101808,-1.9941 l 0.0051,-0.04097 1.046967,-0.696569 1.046968,-0.69657 0.523061,-1.0448532 0.523061,-1.0448536 h 0.424156 c 0.233286,0 0.42279,0.00307 0.42112,0.00683 -0.0017,0.00376 -0.05491,0.1113144 -0.118317,0.2390187 -0.09684,0.195048 -0.789075,1.6280241 -1.088771,2.2538361 l -0.08732,0.182339 -0.73389,0.502333 c -1.000402,0.684755 -1.034858,0.708987 -1.104027,0.776459 -0.05293,0.05163 -0.06141,0.06453 -0.06591,0.100228 -0.0028,0.02254 -0.02371,0.407698 -0.04636,0.855915 -0.119163,2.357365 -0.151249,2.956103 -0.159164,2.970079 -0.0048,0.0084 -0.427439,0.518577 -0.939238,1.133632 -0.511799,0.615054 -0.956731,1.149885 -0.988737,1.188512 l -0.05819,0.07023 -0.0086,0.111879 c -0.01199,0.155268 -0.116776,2.281541 -0.117803,2.390525 -9e-6,0.0013 -0.223354,0.0023 -0.496316,0.0023 h -0.496294 z"
     id="path129"
     inkscape:connector-curvature="0" /><path
     style="fill:#000000;stroke-width:0.05150836"
     d="m 37.534711,31.629728 c -0.08906,-0.193217 -0.161521,-0.372633 -0.161025,-0.398704 4.95e-4,-0.02607 0.550991,-0.331086 1.223323,-0.677813 l 1.222423,-0.630413 1.648268,-0.337624 c 0.906547,-0.185693 1.852123,-0.409363 2.101281,-0.497045 l 0.453015,-0.159421 3.087683,0.04578 3.087683,0.04578 0.284265,0.284322 0.284264,0.284322 -0.334372,0.331399 -0.334371,0.3314 -0.142547,-0.135995 -0.142547,-0.135995 -2.805272,-0.05453 -2.805272,-0.05453 -0.414001,0.155088 c -0.288934,0.108237 -0.930109,0.246663 -2.12245,0.458223 l -1.708449,0.303135 -0.660935,0.347005 c -0.363515,0.190853 -0.872008,0.459486 -1.129987,0.596964 l -0.469051,0.249958 z"
     id="path131"
     inkscape:connector-curvature="0" /><path
     style="fill:#000000;stroke-width:0.05150836"
     d="m 37.536639,31.642723 c -0.09012,-0.182753 -0.163441,-0.360813 -0.162936,-0.395689 5.05e-4,-0.03487 0.549264,-0.347183 1.219464,-0.694017 l 1.218546,-0.630608 1.652127,-0.341426 c 0.90867,-0.187785 1.848742,-0.410707 2.08905,-0.495383 l 0.436922,-0.153956 3.090725,0.03828 3.090726,0.03827 0.298846,0.289336 0.298847,0.289336 -0.335904,0.332425 -0.335904,0.332426 -0.142547,-0.134918 -0.142547,-0.134919 -2.791655,-0.05555 -2.791656,-0.05555 -0.412121,0.151954 c -0.277439,0.102295 -0.973989,0.252272 -2.131405,0.458923 l -1.719284,0.306969 -0.974647,0.51189 c -0.536056,0.281539 -1.04578,0.548473 -1.13272,0.593187 l -0.158074,0.0813 z"
     id="path133"
     inkscape:connector-curvature="0" /><path
     style="fill:#000000;stroke-width:0.00643855"
     d="M 25.881848,6.7267575 V 6.2603317 l 0.05634,-0.027343 c 0.03531,-0.017139 0.486436,-0.1708623 1.208837,-0.4119203 0.633875,-0.2115175 1.181473,-0.3969473 1.216885,-0.4120663 0.03541,-0.015119 0.09046,-0.040509 0.122333,-0.056423 0.03187,-0.015913 1.083607,-0.5962127 2.337191,-1.289554 l 2.279242,-1.26062 1.899117,-0.4996821 1.899116,-0.4996821 2.907258,-0.2503853 c 1.598991,-0.1377119 2.915949,-0.2491907 2.926573,-0.2477307 0.05808,0.00798 1.462041,0.099138 1.526891,0.099138 0.0072,0 0.0087,0.082486 0.0087,0.4889684 v 0.4889686 l -0.066,-0.00311 c -0.0363,-0.00171 -0.21376,-0.00884 -0.394361,-0.015835 -0.356202,-0.013803 -0.633993,-0.027246 -0.856326,-0.041441 -0.07791,-0.00497 -0.195249,-0.012373 -0.260761,-0.016443 l -0.119114,-0.0074 -2.788644,0.1999513 -2.788644,0.1999514 -1.849346,0.4999441 -1.849344,0.4999442 -2.297709,1.2487574 -2.297709,1.2487574 -1.106045,0.3690951 c -0.624065,0.2082552 -1.170576,0.3943263 -1.254131,0.4269956 -0.139169,0.054414 -0.266924,0.1106899 -0.381634,0.1681105 -0.02736,0.013697 -0.05627,0.026928 -0.06424,0.029404 l -0.01449,0.0045 z"
     id="path135"
     inkscape:connector-curvature="0" /><path
     style="fill:#000000;stroke-width:0.00643855"
     d="M 25.881848,6.7258306 V 6.2593457 l 0.05634,-0.026723 c 0.03212,-0.015236 0.547594,-0.1907609 1.199179,-0.4083349 0.628563,-0.2098867 1.175182,-0.3948595 1.214708,-0.4110507 0.126205,-0.051698 -0.156837,0.1032068 2.828699,-1.5481017 l 1.921905,-1.0630118 1.898603,-0.4995822 1.898602,-0.4995822 2.907772,-0.2504878 c 1.599274,-0.1377683 2.915015,-0.2492734 2.923868,-0.2477892 0.03959,0.00664 1.46667,0.099381 1.529208,0.099381 0.0084,0 0.0096,0.059937 0.0096,0.4897179 V 2.383499 l -0.05956,-0.00368 C 44.178012,2.377799 44.070089,2.373229 43.970936,2.369679 43.599683,2.356375 43.201195,2.337591 42.950426,2.321575 42.870746,2.316485 42.754856,2.30908 42.692885,2.305118 l -0.112675,-0.0072 -2.791109,0.1998517 -2.79111,0.1998516 -1.849652,0.4999475 -1.849652,0.4999474 -2.300475,1.2500239 -2.300474,1.2500239 -0.240961,0.07975 c -0.834632,0.2762344 -2.037772,0.6837332 -2.146771,0.7271028 -0.125025,0.049746 -0.258939,0.1094365 -0.363785,0.1621519 -0.02817,0.014163 -0.05418,0.025751 -0.0578,0.025751 -0.0044,0 -0.0066,-0.153034 -0.0066,-0.4664848 z"
     id="path137"
     inkscape:connector-curvature="0" /><path
     style="fill:#000000;stroke-width:0.00643855"
     d="M 25.881848,6.7252261 V 6.2581368 l 0.05634,-0.026079 c 0.03099,-0.014343 0.55795,-0.1938031 1.171033,-0.3987996 0.613082,-0.2049964 1.15185,-0.3863263 1.197263,-0.4029553 0.108668,-0.039792 0.2088,-0.091256 0.61758,-0.3174132 0.599195,-0.3315045 3.53575,-1.9557308 3.863127,-2.1367191 l 0.315488,-0.174416 1.898455,-0.4995281 1.898455,-0.4995282 1.53007,-0.1317537 c 1.97545,-0.1701051 2.093867,-0.1803099 2.312354,-0.1992711 1.761915,-0.1529059 1.968351,-0.1694386 2.041019,-0.163458 0.18091,0.014889 1.429458,0.095848 1.478165,0.095848 0.0078,0 0.0091,0.071098 0.0091,0.489949 v 0.489949 l -0.066,-0.00391 c -0.0363,-0.00215 -0.145672,-0.00684 -0.243055,-0.010423 -0.456234,-0.016789 -0.880144,-0.03799 -1.226502,-0.061342 l -0.154525,-0.010418 -2.791109,0.2001466 -2.79111,0.2001466 -1.846831,0.4991763 c -1.015758,0.274547 -1.857437,0.504594 -1.870398,0.5112155 -0.01296,0.00662 -1.049769,0.5697207 -2.304018,1.2513314 L 28.696298,6.1991774 27.683434,6.5373578 C 26.31089,6.9956299 26.298198,7.0001534 26.03342,7.125425 c -0.07776,0.03679 -0.143674,0.06689 -0.146477,0.06689 -0.0028,0 -0.0051,-0.2101902 -0.0051,-0.4670893 z"
     id="path139"
     inkscape:connector-curvature="0" /><path
     style="fill:#000000;stroke-width:0.00643855"
     d="M 25.881848,6.7251049 V 6.2578944 l 0.05634,-0.02604 c 0.03099,-0.014322 0.560476,-0.1948981 1.176644,-0.40128 1.249203,-0.4184125 1.210404,-0.4051021 1.303806,-0.447283 0.09089,-0.041047 0.171555,-0.085475 3.71826,-2.0479314 0.520556,-0.2880333 0.960953,-0.5288538 0.978659,-0.5351566 0.01771,-0.0063 0.87588,-0.233267 1.907054,-0.5043652 1.625936,-0.4274624 1.8841,-0.4937408 1.944441,-0.4991954 0.03827,-0.00346 0.877938,-0.075865 1.865933,-0.1609016 0.987994,-0.085036 2.081742,-0.1791864 2.43055,-0.2092219 0.348809,-0.030036 0.818179,-0.070227 1.043045,-0.089314 l 0.408847,-0.034704 0.115894,0.00891 c 0.202856,0.015599 1.395203,0.09265 1.433745,0.09265 0.0029,0 0.0053,0.2205184 0.0053,0.4900409 v 0.4900409 l -0.07565,-0.00408 c -0.04161,-0.00224 -0.188649,-0.00841 -0.326756,-0.013701 -0.446044,-0.017096 -0.702688,-0.03014 -1.081676,-0.054976 L 42.586654,2.2983115 41.1412,2.4017898 c -0.794999,0.056913 -2.052447,0.1469718 -2.794328,0.2001306 l -1.348876,0.096652 -0.692143,0.18703 C 35.004334,3.2372965 33.662964,3.600486 33.47733,3.6514534 l -0.1855,0.050931 -1.604416,0.8718548 c -0.882428,0.4795202 -1.914431,1.040484 -2.29334,1.2465863 l -0.688924,0.3747314 -0.988317,0.330439 c -1.388785,0.464334 -1.421169,0.4758837 -1.689539,0.6025792 -0.07426,0.035057 -0.137364,0.063741 -0.140232,0.063741 -0.0029,0 -0.0052,-0.2102447 -0.0052,-0.4672105 z"
     id="path141"
     inkscape:connector-curvature="0" /><path
     style="fill:#000000;stroke-width:0.01821096"
     d="m 72.845458,20.687548 c -0.02498,-0.08263 -0.0882,-0.293651 -0.140477,-0.468932 l -0.09505,-0.318692 -1.14689,-2.057838 C 70.026431,15.264412 70.03133,15.273046 69.888248,15.067139 69.739383,14.85291 69.531725,14.602277 69.365454,14.436154 69.154715,14.225602 68.419946,13.649665 67.24328,12.77272 66.543018,12.250831 66.251533,12.020555 66.162243,11.918697 66.130811,11.882841 65.814237,11.590632 65.458743,11.269343 65.103249,10.948054 64.607455,10.497496 64.35698,10.268104 63.551118,9.5300728 63.17296,9.2218384 61.943781,8.3011194 60.616477,7.3068997 60.479624,7.2151701 58.858532,6.2331297 57.644092,5.4974362 57.507306,5.4185309 57.090672,5.2133389 56.699854,5.0208617 55.174586,4.3490089 54.941779,4.2667908 54.608976,4.1492578 54.350683,4.0847086 51.263166,3.3474766 L 48.112671,2.5952068 47.793979,2.5825632 C 47.331655,2.5642213 46.049943,2.4859 46.03215,2.4749035 45.989116,2.4483064 45.182591,2.403089 44.352108,2.3807127 43.87064,2.3677402 43.23478,2.3400098 42.877021,2.3163831 42.60333,2.2983083 42.509649,2.3038553 39.794486,2.4989063 l -2.800265,0.2011646 -1.848789,0.5001071 -1.84879,0.5001071 -1.073718,0.5838116 c -0.590546,0.3210963 -1.08602,0.5885318 -1.101055,0.5943014 -0.02389,0.00917 -0.02731,-0.051116 -0.02711,-0.4786016 l 2.3e-4,-0.4890914 1.005332,-0.5551517 1.005332,-0.5551519 1.885427,-0.4967977 1.885427,-0.4967977 2.722538,-0.2352888 c 1.497396,-0.1294088 2.808585,-0.24264 2.913753,-0.2516249 0.184236,-0.01574 0.556497,0.00257 1.748252,0.085996 0.317776,0.022245 1.106909,0.063559 1.748251,0.091528 0.235377,0.010265 0.591857,0.03087 0.792177,0.04579 0.451741,0.033646 1.07006,0.063749 1.310163,0.063785 0.174162,2.55e-5 0.313085,0.030638 3.634295,0.800826 l 3.453213,0.8007986 1.346687,0.5985469 1.34669,0.598547 1.647803,0.9984622 1.647804,0.9984623 1.42956,1.0835825 c 0.786258,0.5959703 1.49503,1.1375042 1.575049,1.2034087 0.337981,0.2783649 0.832398,0.7201129 1.520661,1.3586694 0.58573,0.543429 0.765812,0.70362 1.165654,1.036895 0.736979,0.614285 2.204301,1.766204 3.148126,2.471429 0.465101,0.347524 0.471689,0.353373 0.529613,0.470272 0.03226,0.0651 0.729518,1.327123 1.549463,2.804487 l 1.490809,2.686116 0.183617,0.610067 c 0.100989,0.335537 0.191119,0.632603 0.20029,0.660147 l 0.01667,0.05008 h -0.55338 -0.553385 z"
     id="path143"
     inkscape:connector-curvature="0" /></svg>