<?xml version="1.0" encoding="UTF-8" standalone="no"?>
<svg
   xmlns:dc="http://purl.org/dc/elements/1.1/"
   xmlns:cc="http://creativecommons.org/ns#"
   xmlns:rdf="http://www.w3.org/1999/02/22-rdf-syntax-ns#"
   xmlns:svg="http://www.w3.org/2000/svg"
   xmlns="http://www.w3.org/2000/svg"
   xmlns:sodipodi="http://sodipodi.sourceforge.net/DTD/sodipodi-0.dtd"
   xmlns:inkscape="http://www.inkscape.org/namespaces/inkscape"
   version="1.1"
   x="0px"
   y="0px"
   viewBox="0 0 100 100"
   id="svg329"
   sodipodi:docname="okay.svg"
   inkscape:version="0.92.2 (5c3e80d, 2017-08-06)">
  <metadata
     id="metadata335">
    <rdf:RDF>
      <cc:Work
         rdf:about="">
        <dc:format>image/svg+xml</dc:format>
        <dc:type
           rdf:resource="http://purl.org/dc/dcmitype/StillImage" />
        <dc:title></dc:title>
      </cc:Work>
    </rdf:RDF>
  </metadata>
  <defs
     id="defs333" />
  <sodipodi:namedview
     pagecolor="#ffffff"
     bordercolor="#666666"
     borderopacity="1"
     objecttolerance="10"
     gridtolerance="10"
     guidetolerance="10"
     inkscape:pageopacity="0"
     inkscape:pageshadow="2"
     inkscape:window-width="1920"
     inkscape:window-height="1027"
     id="namedview331"
     showgrid="false"
     inkscape:pagecheckerboard="true"
     inkscape:zoom="4.72"
     inkscape:cx="53.21259"
     inkscape:cy="55.274521"
     inkscape:window-x="-8"
     inkscape:window-y="-8"
     inkscape:window-maximized="1"
     inkscape:current-layer="svg329" />
  <g
     transform="translate(0,-952.36218)"
     id="g327">
    <path
       d="m 41.441586,1049.506 c 0.621217,-0.8584 3.566533,-1.757 7.106056,-2.1679 2.732579,-0.3174 3.234115,-0.4586 3.949791,-1.112 1.094024,-0.9987 1.033078,-1.3375 -0.240675,-1.3375 -5.95336,0 -11.992371,-2.9013 -18.816185,-9.0395 l -4.120217,-3.7064 -2.659554,-4.9089 c -2.597108,-4.7937 -3.715325,-7.7628 -3.739361,-9.9289 -0.0056,-0.5047 -0.360215,-1.5508 -0.788035,-2.3247 -0.427821,-0.7741 -1.244382,-2.7611 -1.814576,-4.4158 -0.570198,-1.6548 -1.480883,-3.624 -2.023745,-4.3761 l -0.987024,-1.3675 -0.178364,-12.76572 -0.178364,-12.76586 0.737672,-2.86432 c 1.012789,-3.93261 3.03031,-8.55555 5.12558,-11.74463 2.340795,-3.56292 5.187054,-5.82149 8.642387,-6.8582 2.757182,-0.82726 3.332605,-0.91894 7.914013,-1.26152 2.48132,-0.18547 3.729073,-0.40329 4.309635,-0.7521 0.721017,-0.4333 1.555121,-0.49085 7.089976,-0.48895 5.657457,0 6.536014,0.0657 8.9557,0.6545 3.564522,0.8668 8.364802,3.47261 10.748641,5.83495 4.123273,4.08619 4.850564,5.3404 8.00617,13.80629 0.57277,1.53666 1.235928,3.07513 1.473678,3.41875 0.23775,0.34374 1.169293,2.66918 2.07009,5.16785 1.434975,3.9802 1.702792,5.08028 2.162449,8.88199 0.466147,3.85545 0.486585,5.10213 0.183327,11.18337 -0.382742,7.6752 -0.720981,9.5085 -2.860536,15.5055 -2.401563,6.7313 -5.508347,11.5438 -10.502338,16.2688 -5.443016,5.1497 -10.907207,8.5736 -13.682775,8.5736 -0.785248,0 -1.026827,0.1143 -1.026827,0.4862 0,1.3618 1.972807,2.2737 6.077039,2.8093 1.290675,0.1685 1.980362,0.4273 2.608353,0.9794 0.46955,0.4128 0.853727,0.8506 0.853727,0.9727 0,0.1223 -5.583332,0.2224 -12.407404,0.2224 l -12.407402,0 0.419098,-0.5791 z m 16.794223,-6.4442 c 2.658328,-0.7087 5.399898,-2.4768 9.558739,-6.1651 6.547267,-5.8065 9.850744,-10.2921 11.738491,-15.9394 3.376956,-10.102 3.418087,-10.3489 3.362423,-20.1842 l -0.04613,-8.15032 -1.683023,-4.9777 c -2.23659,-6.61495 -5.85273,-15.84089 -7.24198,-18.4767 -2.070749,-3.92868 -3.47488,-5.61894 -6.564673,-7.90253 -4.012889,-2.96586 -6.948896,-4.11851 -12.253871,-4.81107 -2.328476,-0.30388 -3.520856,-0.30876 -6.707193,-0.0265 -2.131396,0.18857 -4.446737,0.53377 -5.145203,0.76738 -0.698464,0.2335 -2.30819,0.50516 -3.57717,0.60373 -9.682757,0.75191 -14.375067,4.27773 -18.544568,13.93442 -2.645561,6.12716 -2.547415,5.44225 -2.507396,17.49797 0.04242,12.78037 0.22605,14.44457 1.909949,17.30887 1.867676,3.1767 3.740461,8.6656 4.172628,12.2292 l 0.364848,3.0086 2.706739,4.5056 c 1.995936,3.3224 3.297479,5.1204 4.956264,6.8465 2.648271,2.7558 5.798764,5.493 7.991984,6.9437 2.008458,1.3285 8.130798,3.1978 12.441484,3.7986 0.787389,0.1097 2.856545,-0.2212 5.067657,-0.8105 z m -6.55894,-7.6849 c -1.340327,-0.1871 -4.804029,-1.2673 -5.290434,-1.6497 -0.890721,-0.7006 -0.573589,-0.8823 0.513073,-0.294 1.041554,0.5638 4.418404,1.3359 5.842809,1.3359 1.567751,0 3.539636,-0.8529 4.600267,-1.9898 0.81876,-0.8776 1.042274,-1.0023 1.042274,-0.5817 0,1.8828 -3.639559,3.6078 -6.707989,3.1793 z m -16.411198,-9.7552 c -0.325611,-1.5924 0.419566,-5.4748 1.631308,-8.4992 1.005555,-2.5096 1.071083,-2.8135 0.551973,-2.5585 -0.770555,0.3784 -2.191535,3.2832 -2.901031,5.9304 -0.438525,1.6363 -0.568686,1.887 -0.585472,1.1283 -0.04308,-1.9474 1.045526,-4.8345 2.688663,-7.1309 1.289486,-1.8019 1.621594,-2.1159 1.799382,-1.7011 0.425332,0.9924 0.244687,1.8229 -1.052735,4.8405 -1.292392,3.0055 -1.866036,5.6427 -1.720031,7.9074 0.08284,1.2849 -0.156462,1.3331 -0.412057,0.083 z m 2.469672,0.1543 c -0.646701,-1.0045 -0.654256,-2.006 -0.02433,-3.2239 0.356147,-0.6886 0.559673,-0.8502 0.74068,-0.5884 0.298357,0.4317 0.304134,3.4405 0.0079,4.1279 -0.180957,0.4201 -0.277805,0.3778 -0.724291,-0.3156 z m 24.147036,-2.0057 c 0.08085,-0.9723 -0.129894,-2.3369 -0.643805,-4.1687 -0.650135,-2.3173 -0.93627,-2.8879 -1.920012,-3.8289 -1.689107,-1.6157 -2.726653,-3.417 -2.698754,-4.6854 l 0.02352,-1.0699 0.574433,1.5042 c 0.326817,0.8559 1.298343,2.3295 2.253793,3.4189 2.033126,2.3178 4.290642,6.5749 4.25239,8.0189 l -0.02665,1.0065 -0.386251,-1.2308 c -0.212436,-0.6769 -0.598657,-1.6615 -0.85827,-2.188 l -0.472019,-0.9572 0.205049,1.3674 c 0.299153,1.9953 0.254906,3.6361 -0.106999,3.968 -0.223433,0.2051 -0.281249,-0.1349 -0.196435,-1.155 z m -16.166662,-0.9568 c -0.959875,-0.2118 -1.169226,-0.5705 -0.246175,-0.4216 0.795946,0.1282 0.814837,0.1091 0.342787,-0.3459 -0.471443,-0.4544 -0.609207,-0.4563 -2.446044,-0.033 -2.430826,0.5603 -2.97461,0.5546 -1.823933,-0.019 1.320723,-0.6585 4.17061,-1.1527 6.707192,-1.1634 2.835772,-0.012 8.406035,0.467 9.302572,0.7996 0.501693,0.1863 0.286925,0.217 -0.806795,0.1155 -0.819768,-0.077 -1.726243,-0.181 -2.014393,-0.2331 -0.288147,-0.052 -0.711037,0.1505 -0.939755,0.4499 -0.228718,0.2998 -0.931969,0.6546 -1.562776,0.7891 -1.186931,0.2527 -5.464347,0.2935 -6.51268,0.062 z m 7.003471,-0.9673 c 8.94e-4,-0.1127 -0.60183,-0.2051 -1.339621,-0.2051 -0.737791,0 -1.341438,0.1076 -1.341438,0.2391 0,0.1315 0.602827,0.2239 1.33962,0.2052 0.73679,-0.019 1.340437,-0.1264 1.341439,-0.2392 z m 7.077575,0.067 c -0.543846,-0.762 -0.656503,-1.094 -0.371348,-1.094 0.436196,0 1.64232,1.3869 1.64232,1.8883 0,0.5945 -0.505297,0.2786 -1.270972,-0.7943 z m -13.653095,-1.7565 c 0.193546,-0.214 0.738596,-0.5128 1.21122,-0.6639 0.746472,-0.2388 0.835132,-0.2146 0.675158,0.1839 -0.246726,0.6146 -0.680783,0.8598 -1.53106,0.8648 -0.577881,0 -0.642863,-0.067 -0.355318,-0.3848 z m 4.863277,-0.069 c -0.368895,-0.2361 -0.670719,-0.5373 -0.670719,-0.6695 0,-0.2718 2.186381,-0.3182 3.204548,-0.067 0.971887,0.239 0.82254,0.8255 -0.260836,1.0243 -1.277478,0.2344 -1.502699,0.2059 -2.272993,-0.287 z m -8.719349,-8.2969 c -2.28778,-0.2347 -2.89862,-0.4391 -3.283028,-1.0979 -0.212555,-0.3645 -0.128981,-0.6531 0.327153,-1.1302 l 0.612644,-0.6409 -0.178218,0.7622 c -0.161253,0.6895 -0.05682,0.8125 1.097091,1.293 1.248635,0.5199 2.48243,0.7408 1.864617,0.3337 -0.678535,-0.447 -1.334552,-1.7406 -1.334552,-2.6317 0,-0.6187 0.267045,-1.2371 0.771741,-1.7875 1.067941,-1.1643 1.456877,-1.0576 0.560713,0.154 -1.31816,1.7822 -0.840319,3.4303 1.294497,4.4647 1.185185,0.5743 1.164742,0.5777 -1.732658,0.2806 z m 5.73018,-0.1494 c -0.780067,-0.5014 -0.841755,-1.0117 -0.194085,-1.606 0.616534,-0.5656 1.877125,-0.5472 2.581786,0.038 0.451421,0.3749 0.611547,0.3963 0.805979,0.1076 0.177463,-0.2635 0.299581,-0.2758 0.454642,-0.045 0.351697,0.522 -0.630159,1.5707 -1.645041,1.7569 -1.269811,0.2331 -1.24512,0.2363 -2.003281,-0.251 z m -15.815393,-4.0324 c -1.645212,-1.3599 -3.828438,-3.5399 -4.574153,-4.5674 -0.695995,-0.9589 -0.340809,-0.7031 1.608474,1.1586 1.784858,1.7047 2.774557,2.4394 3.453891,2.5641 1.029927,0.1889 1.148865,0.3634 0.594457,0.872 -0.434176,0.3985 -0.571878,0.395 -1.082669,-0.027 z m 16.938186,-1.0803 c -0.927207,-1.3952 -0.650168,-2.1331 0.429121,-1.1428 0.425764,0.3906 0.680208,2.0317 0.315008,2.0317 -0.08438,0 -0.419244,-0.4 -0.744129,-0.8889 z m 8.086684,-1.2552 c 2.766684,-0.8867 3.430189,-1.3633 5.03714,-3.6182 1.267955,-1.77944 1.359742,-1.3901 0.190366,0.8072 -0.735362,1.3819 -2.670063,2.9457 -4.114106,3.3258 -0.547361,0.1439 -1.532662,0.2507 -2.189559,0.2374 -1.145976,-0.023 -1.102382,-0.054 1.076159,-0.7522 z m -14.893154,-3.3307 c 0.290472,-0.7644 0.241017,-1.3421 -0.225723,-2.63645 -0.09997,-0.27715 0.09979,-0.1348 0.443909,0.31651 0.743011,0.97444 0.810959,2.11934 0.161164,2.71544 -0.666648,0.6116 -0.734969,0.5404 -0.37935,-0.3955 z m 10.055149,-0.4737 c -0.407772,-0.4138 -0.914379,-0.9627 -1.125795,-1.2201 -0.482448,-0.58703 -1.511491,-4.17433 -1.518312,-5.29285 -0.0075,-1.23374 1.26252,-2.22944 3.124914,-2.44979 1.408108,-0.16663 1.56051,-0.12105 2.757402,0.82472 0.890947,0.7041 1.266913,1.21393 1.266913,1.71823 0,0.55783 -0.07949,0.64421 -0.357717,0.38899 -0.536327,-0.49212 -1.751486,-0.42683 -1.538412,0.0826 0.57162,1.36666 -0.956261,2.39246 -2.621162,1.75968 -0.695792,-0.26435 -0.848463,-0.48873 -0.848463,-1.24647 0,-0.62228 -0.140306,-0.92403 -0.429553,-0.92403 -1.158999,0 -0.65342,1.66947 0.700041,2.31157 1.511089,0.71692 2.659581,0.54936 3.793153,-0.55338 0.55221,-0.53717 1.004016,-0.8048 1.004016,-0.59461 0,1.02462 -2.408437,2.20971 -3.925148,1.93148 -0.944187,-0.1733 -0.944301,-0.17319 -0.446892,0.47835 0.273647,0.35846 1.05282,1.05493 1.731495,1.54776 0.678679,0.4925 1.060524,0.8959 0.84855,0.8959 -0.211977,0 -1.102791,-0.6582 -1.979584,-1.46271 -0.876797,-0.80448 -1.594175,-1.29066 -1.594175,-1.08049 0,0.58667 0.87609,2.0483 1.729337,2.8851 0.421842,0.4136 0.63284,0.752 0.468887,0.752 -0.163954,0 -0.631725,-0.3384 -1.039495,-0.752 z m 3.111042,-7.3435 c -0.582165,-1.3919 -4.863351,-1.15023 -4.866661,0.27473 -5.96e-4,0.20032 0.832733,0.27037 2.516259,0.21155 2.056085,-0.0721 2.486457,-0.161 2.350402,-0.48628 z m -21.559423,7.7907 c 0,-0.07 0.268287,-0.6094 0.596194,-1.1993 0.822568,-1.48038 0.781705,-2.11919 -0.076,-1.18827 -0.76113,0.82607 -1.720464,1.32867 -2.512751,1.31657 -0.491366,-0.01 -0.4863,-0.036 0.05493,-0.3108 0.955617,-0.485 1.937634,-1.38702 1.937634,-1.77982 0,-0.19938 -0.305512,-0.3626 -0.678915,-0.3626 -1.555916,0 -3.386649,-2.13797 -3.046705,-3.55804 0.232239,-0.97004 1.707082,-2.09229 3.031043,-2.30627 1.265699,-0.20457 3.23349,1.22282 3.474189,2.52017 0.204227,1.10071 -0.276969,3.98433 -0.82657,4.95326 -0.37306,0.6577 -1.953042,2.207 -1.953042,1.9151 z m 0.592903,-4.20639 c 1.819376,-0.86319 2.176357,-2.3263 0.567593,-2.3263 -0.785966,0 -0.862399,0.0847 -0.862399,0.95201 0,0.78148 -0.130456,0.98213 -0.728299,1.1198 -0.40057,0.0922 -0.870072,0.0869 -1.043342,-0.0106 -0.173272,-0.0985 -0.315041,-0.0583 -0.315041,0.088 0,0.62587 1.241134,0.7183 2.381488,0.17721 z m 1.493779,-2.96767 c 0,-0.9254 -2.252344,-1.95681 -3.399495,-1.55658 -0.745702,0.2601 -1.966259,1.31695 -1.966259,1.70254 0,0.122 1.207295,0.22195 2.682877,0.22195 2.048647,0 2.682877,-0.0869 2.682877,-0.36791 z m -9.737532,0.49499 c -0.427063,-1.14916 0.429985,-3.27652 1.730527,-4.29562 0.550944,-0.43182 2.267273,-1.3354 3.814067,-2.00803 2.034063,-0.8846 3.16838,-1.57885 4.09884,-2.50871 l 1.286487,-1.28558 0,1.03321 c 0,2.01819 -1.200879,3.29285 -4.173364,4.42982 -4.406354,1.68537 -5.211047,2.29302 -6.134049,4.63195 l -0.321149,0.8138 -0.301359,-0.81084 z m 34.075084,0.14638 c -0.14052,-0.37607 -0.648234,-1.25505 -1.128251,-1.95332 -0.927295,-1.34885 -2.479691,-2.16064 -4.876308,-2.54984 -1.545882,-0.251 -3.86112,-1.1477 -5.369522,-2.07946 -0.914554,-0.56494 -1.277765,-1.01932 -1.542791,-1.93032 -0.190646,-0.65535 -0.304858,-1.22983 -0.253806,-1.27667 0.05105,-0.0466 0.377596,0.33758 0.725658,0.85429 0.727498,1.07995 0.970728,1.17693 5.993315,2.38831 2.049419,0.49425 4.204393,1.11429 4.788831,1.3778 1.447442,0.65258 2.129293,2.08517 2.009648,4.22228 -0.07381,1.31843 -0.14021,1.49967 -0.346774,0.94693 z m -38.61385,-3.91577 c -0.214443,-0.57414 -0.342991,-1.07549 -0.285662,-1.11419 0.05732,-0.0381 0.573737,-0.36132 1.147575,-0.71713 1.0216,-0.6334 1.031307,-0.63415 0.465762,-0.0381 -0.317671,0.33473 -0.658626,1.12711 -0.757681,1.76105 l -0.180098,1.15255 -0.389896,-1.04402 z M 64.1498,988.88911 c 0.500888,-0.92001 0.671888,-1.6185 0.585893,-2.39319 -0.114026,-1.02727 -0.09322,-1.06162 0.341035,-0.56314 0.254357,0.29201 0.462469,0.83013 0.462469,1.19591 0,0.56006 0.07053,0.61126 0.447146,0.32454 0.289109,-0.22014 0.449489,-0.83617 0.453775,-1.74292 l 0.0066,-1.40237 0.561177,0.66996 c 1.098806,1.31175 -0.105639,3.70961 -2.422739,4.82336 -1.182716,0.56855 -1.21021,0.51089 -0.435384,-0.91215 z m -19.017755,-3.61124 c -0.398786,-0.40426 -0.470234,-0.7269 -0.288041,-1.30074 l 0.242291,-0.76314 0.117514,0.82048 c 0.06463,0.45121 0.258906,0.97724 0.431716,1.16899 0.525241,0.58253 0.06486,0.65057 -0.50348,0.0743 z M 37.867984,984.127 c -0.728195,-0.81529 -0.539609,-1.02706 0.370735,-0.41633 0.295096,0.19789 0.488416,0.54734 0.429597,0.77639 -0.08003,0.31151 -0.281419,0.22098 -0.800332,-0.36006 z m -5.268556,-3.65077 c -3.983324,-1.01669 -4.021517,-1.07784 -0.420019,-0.67231 7.845814,0.88344 7.621093,0.8404 6.542923,1.25632 -1.355261,0.52275 -2.044048,0.45703 -6.122904,-0.58401 z m 17.58775,0.68714 c -1.344613,-0.22025 -5.043228,-1.61849 -4.820871,-1.82252 0.04994,-0.0455 0.551418,0.0445 1.114396,0.20116 0.562978,0.15633 2.847513,0.45831 5.076743,0.67082 4.003844,0.38168 4.080799,0.3785 6.326387,-0.25713 2.134948,-0.60436 2.254964,-0.61221 1.972839,-0.12847 -0.639455,1.09617 -1.646413,1.39782 -4.977023,1.49088 -1.761092,0.0488 -3.872704,-0.0202 -4.692471,-0.15474 z m -5.8129,-3.56674 c -0.573838,-0.12803 -2.854284,-0.55158 -5.067657,-0.9413 -3.504607,-0.61698 -7.081979,-1.66715 -6.741906,-1.97918 0.06193,-0.0572 1.235298,0.14456 2.607485,0.44738 10.673892,2.35641 15.263158,2.66887 19.419055,1.32225 1.836703,-0.59504 2.505738,-0.51534 1.360162,0.16217 -1.803541,1.0666 -8.619575,1.6487 -11.577139,0.98868 z m -1.192391,-3.25065 c -1.065698,-0.26223 -2.608352,-0.87539 -3.428121,-1.36253 -0.819767,-0.48724 -1.289271,-0.82355 -1.04334,-0.74745 6.646184,2.05698 6.336866,2.02211 12.379728,1.39433 l 1.481804,-0.1539 -1.005263,0.42522 c -0.787803,0.33325 -5.581677,1.05145 -6.298125,0.94365 -0.08198,-0.0127 -1.020984,-0.23699 -2.086683,-0.49932 z"
       style=""
       fill="#000"
       fill-opacity="1"
       id="path325" />
  </g>
  <path
     style="fill:#ffffff;stroke-width:0.03745269"
     d="m 25.886243,70.737237 -0.797087,-1.328529 -0.187117,-1.545965 c -0.285634,-2.359912 -0.421605,-3.141014 -0.806985,-4.635815 -0.856055,-3.320439 -2.142355,-6.60379 -3.558115,-9.082277 -0.981831,-1.718832 -1.336218,-2.858292 -1.566698,-5.037387 -0.217626,-2.057571 -0.276961,-4.212632 -0.318119,-11.554155 -0.04758,-8.486543 0.0029,-10.40157 0.32053,-12.153397 0.246745,-1.360996 0.650293,-2.50648 1.890098,-5.365098 l 0.239591,-0.552427 h 27.015163 27.015164 l 0.09578,0.215353 c 0.638107,1.434731 2.222098,5.427889 3.428157,8.642208 1.22044,3.252647 1.687431,4.57437 3.288402,9.307212 l 0.893243,2.640633 0.02594,6.404191 c 0.0185,4.568279 0.01359,6.747766 -0.01712,7.602678 -0.146684,4.082466 -0.523675,5.819953 -2.66949,12.303208 -0.975373,2.946946 -1.293518,3.801212 -1.859968,4.994301 l -0.224944,0.473792 H 70.201826 62.31099 l 0.02399,-0.102995 c 0.0525,-0.22548 0.06833,-1.435895 0.02584,-1.976584 -0.03549,-0.45174 -0.232749,-1.983678 -0.32298,-2.508376 -0.01179,-0.06854 0.04883,0.01909 0.15544,0.224717 0.433732,0.836569 0.879471,1.961195 1.254335,3.164752 l 0.239136,0.76778 0.02403,-0.224716 c 0.09925,-0.92831 -0.0081,-1.548174 -0.463937,-2.677867 -0.809345,-2.005985 -2.267233,-4.397317 -3.756063,-6.160968 -0.709051,-0.839933 -1.295755,-1.652237 -1.758321,-2.434425 -0.285072,-0.48205 -0.402864,-0.739001 -0.729687,-1.591739 -0.16974,-0.442878 -0.321045,-0.827809 -0.336236,-0.855401 -0.04751,-0.08631 -0.07823,1.140768 -0.03627,1.448783 0.0841,0.617302 0.456417,1.491167 0.959916,2.253022 0.403766,0.610951 0.825289,1.115394 1.5648,1.872639 0.726608,0.744031 0.979384,1.066083 1.234639,1.573009 0.296783,0.589397 0.678077,1.762741 1.028425,3.164752 0.396575,1.58699 0.505263,2.526907 0.427683,3.698453 l -0.02418,0.365164 H 50.259843 38.698144 l -0.02331,-0.870775 c -0.03367,-1.257826 -0.129711,-1.680645 -0.387543,-1.706124 -0.09593,-0.0095 -0.138105,0.01531 -0.251592,0.147897 -0.175673,0.205237 -0.511582,0.865172 -0.635866,1.249242 -0.110157,0.340415 -0.172715,0.695658 -0.173129,0.983133 l -2.83e-4,0.196627 h -0.76778 -0.76778 l 4.01e-4,-0.1779 c 6.06e-4,-0.268514 0.09905,-1.142232 0.187369,-1.663008 0.258598,-1.524759 0.720162,-3.002597 1.57151,-5.031661 0.959338,-2.286441 1.203888,-3.051214 1.209598,-3.782721 0.0029,-0.36998 -0.04998,-0.644812 -0.181931,-0.945681 -0.07528,-0.171653 -0.09992,-0.196626 -0.193979,-0.196626 -0.235094,0 -0.60002,0.398792 -1.473701,1.610465 -1.638252,2.272027 -2.652786,4.701174 -2.844413,6.810517 -0.04443,0.48911 -0.01205,0.979643 0.06467,0.979643 0.08156,0 0.175236,-0.258993 0.477903,-1.321324 0.43905,-1.54102 0.744915,-2.399039 1.263777,-3.545166 0.452398,-0.999313 0.971786,-1.883919 1.358975,-2.314569 0.182578,-0.203069 0.468975,-0.369677 0.569298,-0.331179 0.133801,0.05134 -0.01018,0.535888 -0.624088,2.100324 -0.652812,1.663563 -0.923448,2.489454 -1.27429,3.888705 -0.302681,1.207179 -0.597982,2.93846 -0.597982,3.505831 0,0.09915 -0.01053,0.232937 -0.02341,0.29731 l -0.02341,0.11704 h -4.236916 -4.236916 z m 35.158772,-0.167121 c 0.153035,-0.285947 -0.19253,-0.942115 -0.837267,-1.589814 -0.406635,-0.4085 -0.706837,-0.589109 -0.86182,-0.518495 -0.131709,0.06001 -0.123567,0.135331 0.05205,0.481683 0.27221,0.536843 0.99459,1.448572 1.290901,1.629266 0.149814,0.09136 0.306449,0.0902 0.356134,-0.0026 z m -10.447982,-0.002 c 1.40303,-0.08248 1.902904,-0.178511 2.534198,-0.486855 0.301814,-0.147414 0.439814,-0.242825 0.654656,-0.452612 0.445811,-0.435324 0.635936,-0.50235 1.200849,-0.423328 0.687727,0.0962 2.192169,0.238761 2.519599,0.238761 0.359313,0 0.404009,-0.04116 0.158833,-0.146249 -0.54133,-0.232046 -2.842909,-0.511885 -5.869649,-0.713673 -1.82106,-0.121406 -3.997034,-0.154773 -4.999935,-0.07667 -2.488021,0.193754 -4.545919,0.664669 -5.558841,1.272043 -0.701518,0.42065 -0.164975,0.396932 2.038289,-0.09011 1.354179,-0.299348 1.470802,-0.320243 1.787373,-0.320243 0.180237,0 0.299243,0.02166 0.399225,0.07267 0.157974,0.08059 0.64108,0.530236 0.64108,0.596674 0,0.05657 -0.110411,0.05334 -0.584606,-0.01711 -0.614097,-0.09123 -0.816579,-0.01141 -0.504524,0.198878 0.253185,0.170619 0.764457,0.287445 1.507587,0.344478 0.564968,0.04336 3.35622,0.04565 4.075866,0.0033 z m -3.400165,-2.457882 c 0.277196,-0.08011 0.535388,-0.262802 0.682048,-0.482608 0.138153,-0.207057 0.260148,-0.527701 0.230333,-0.605396 -0.05131,-0.133729 -0.726006,0.0349 -1.332391,0.33301 -0.29058,0.142852 -0.449479,0.249315 -0.608606,0.407763 -0.276341,0.275161 -0.278565,0.374849 -0.0094,0.419833 0.192004,0.03209 0.830199,-0.01255 1.037979,-0.0726 z m 5.58203,0.0029 c 1.001311,-0.150286 1.413593,-0.343314 1.413593,-0.661841 0,-0.246638 -0.312719,-0.421227 -0.97377,-0.54366 -0.523859,-0.09702 -2.354637,-0.09696 -2.668504,0 -0.186816,0.05777 -0.215353,0.07897 -0.215353,0.160013 0,0.249263 0.949098,0.943946 1.451447,1.062372 0.219663,0.05179 0.574898,0.04571 0.992587,-0.01698 z M 49.640542,59.61362 c 0.574443,-0.09731 0.8573,-0.190997 1.20638,-0.399568 0.513254,-0.306659 0.945245,-0.899973 0.900137,-1.236279 -0.02757,-0.205571 -0.135497,-0.347037 -0.275556,-0.361198 -0.09299,-0.0094 -0.136034,0.01896 -0.270059,0.1779 -0.203216,0.241001 -0.289898,0.245316 -0.601188,0.02991 C 50.17934,57.533123 49.980799,57.41993 49.7918,57.36347 c -0.92782,-0.27718 -1.803526,-0.04519 -2.244092,0.59449 -0.238553,0.346366 -0.22757,0.682126 0.0324,0.990437 0.139703,0.165679 0.811609,0.608175 1.047082,0.689571 0.253659,0.08768 0.368298,0.08493 1.013354,-0.02435 z m -4.886129,-0.03374 c 0,-0.0735 -0.03523,-0.09609 -0.608815,-0.390287 -0.909721,-0.466608 -1.412425,-0.863179 -1.753108,-1.382982 -0.246193,-0.375631 -0.338026,-0.659178 -0.36176,-1.11699 -0.03405,-0.656835 0.156572,-1.189486 0.714444,-1.996328 0.463175,-0.669884 0.578991,-0.947989 0.405144,-0.972855 -0.112517,-0.01609 -0.31267,0.117737 -0.64513,0.431364 -0.553152,0.521816 -0.931693,1.10897 -1.069885,1.659499 -0.245994,0.979994 0.407439,2.530326 1.352844,3.209751 0.101261,0.07278 0.105456,0.08342 0.04247,0.107815 -0.163704,0.06341 -1.050689,-0.172409 -1.840386,-0.489289 -0.656646,-0.263491 -1.003142,-0.447271 -1.142483,-0.605973 -0.147471,-0.167961 -0.147578,-0.364359 -5.31e-4,-0.984587 0.06081,-0.256506 0.103912,-0.473034 0.09578,-0.481171 -0.02715,-0.02714 -0.748297,0.745295 -0.889381,0.952633 -0.07649,0.112411 -0.150123,0.263263 -0.163623,0.335228 -0.03443,0.183548 0.04208,0.422186 0.204089,0.636539 0.433595,0.573692 1.114882,0.751757 3.918785,1.024248 0.432578,0.04204 0.837067,0.08258 0.898864,0.0901 0.0618,0.0075 0.276682,0.01619 0.477522,0.01927 0.287912,0.0044 0.365164,-0.0053 0.365164,-0.04599 z M 33.168648,55.394809 c 0.245659,-0.189525 0.462316,-0.459266 0.462316,-0.575591 0,-0.163642 -0.222428,-0.280718 -0.753557,-0.396639 -0.495777,-0.108204 -0.696879,-0.19677 -1.18214,-0.520618 -0.67284,-0.449033 -1.032243,-0.758174 -2.727163,-2.345775 -1.0574,-0.990448 -1.564703,-1.437699 -1.630736,-1.437699 -0.195786,0 0.43158,0.839569 1.414884,1.893463 1.16311,1.246607 3.337304,3.255245 3.792584,3.503794 0.195483,0.10672 0.373449,0.07222 0.623812,-0.120935 z m 16.858459,-0.444925 c 0.0707,-0.132607 0.03407,-0.765704 -0.0658,-1.137287 -0.114249,-0.425081 -0.264261,-0.697686 -0.495556,-0.900532 -0.228074,-0.200021 -0.524047,-0.359153 -0.667995,-0.359153 -0.283352,0 -0.299764,0.401007 -0.03917,0.957098 0.175609,0.374739 0.303225,0.586236 0.592605,0.982117 0.421035,0.575991 0.561991,0.671452 0.67592,0.457757 z m 7.563099,-1.364225 c 0.210526,-0.03125 0.496436,-0.08318 0.635355,-0.115401 1.314923,-0.304951 3.085282,-1.617683 3.989876,-2.958518 0.249682,-0.370089 0.875169,-1.604738 0.999508,-1.972928 0.09805,-0.290346 0.09967,-0.367865 0.0077,-0.367865 -0.106928,0 -0.427545,0.369087 -0.99904,1.15006 -1.085098,1.482839 -1.622327,2.03645 -2.463038,2.538146 -0.544701,0.325052 -1.203146,0.589561 -2.72165,1.093335 -0.772462,0.256269 -1.453419,0.494514 -1.513239,0.529432 -0.12891,0.07525 -0.133779,0.128346 -0.01517,0.165435 0.142716,0.04463 1.668387,-6.33e-4 2.079718,-0.0617 z m -15.127331,-3.3743 c 0.392895,-0.295344 0.591595,-0.584463 0.676414,-0.984217 0.05694,-0.268344 0.05304,-0.444559 -0.0174,-0.786242 -0.10122,-0.491016 -0.389729,-1.032578 -0.774194,-1.453243 -0.160286,-0.175379 -0.289878,-0.255501 -0.289878,-0.179221 0,0.01278 0.07655,0.260985 0.170121,0.551562 0.09357,0.290579 0.197192,0.69725 0.230278,0.903716 0.07787,0.485948 0.03721,0.787034 -0.200056,1.48129 -0.234937,0.687438 -0.198826,0.769701 0.204713,0.466355 z m 11.028894,-0.378405 c 0.05052,-0.05052 -0.138764,-0.327352 -0.451006,-0.659613 -0.43624,-0.464209 -0.749293,-0.851014 -1.036903,-1.281188 -0.51697,-0.773224 -0.893913,-1.698957 -0.68493,-1.682115 0.179253,0.01445 0.784673,0.470157 1.628892,1.226099 1.085988,0.972427 1.918817,1.521606 1.918817,1.265292 0,-0.09294 -0.419607,-0.489127 -0.898864,-0.848686 -0.884078,-0.663273 -1.615919,-1.346224 -1.901049,-1.774051 -0.08737,-0.131091 -0.158849,-0.253281 -0.158849,-0.271532 0,-0.04941 0.240658,-0.04017 0.599243,0.02299 0.87821,0.154696 1.860546,-0.021 2.78953,-0.49891 0.393382,-0.202374 0.850624,-0.536732 1.016127,-0.743041 0.24336,-0.303363 0.378175,-0.702092 0.253555,-0.749914 -0.109051,-0.04185 -0.435526,0.162134 -0.839357,0.524428 -0.527764,0.47348 -0.757694,0.645332 -1.085335,0.811192 -0.385181,0.194987 -0.630902,0.262278 -1.048392,0.287102 -0.61449,0.03654 -1.428898,-0.190959 -2.047628,-0.571985 -0.347233,-0.213832 -0.746885,-0.640998 -0.910328,-0.972997 -0.161417,-0.327884 -0.197103,-0.716308 -0.08249,-0.897825 0.09339,-0.147904 0.289858,-0.240444 0.510474,-0.240444 0.322395,0 0.396607,0.165359 0.462234,1.029949 0.04982,0.656288 0.156676,0.826228 0.659317,1.048519 0.769823,0.340453 1.574844,0.351828 2.207584,0.03119 0.238747,-0.120982 0.510113,-0.394419 0.622857,-0.627611 0.129722,-0.268306 0.146998,-0.676092 0.04181,-0.986858 -0.09144,-0.270146 -0.07161,-0.345523 0.116479,-0.442788 0.152763,-0.079 0.590326,-0.08 0.858305,-0.002 0.110988,0.03232 0.310427,0.135314 0.443193,0.228877 0.132766,0.09356 0.262791,0.170115 0.28894,0.170115 0.07158,0 0.11383,-0.106583 0.141039,-0.3558 0.07301,-0.668583 -0.343193,-1.225025 -1.663869,-2.224535 -0.707877,-0.535734 -1.066043,-0.6436 -1.887787,-0.568535 -0.911623,0.08328 -1.493085,0.220457 -2.065832,0.487381 -0.729722,0.340082 -1.266254,0.866305 -1.465433,1.437278 -0.111791,0.320462 -0.08986,0.997283 0.05483,1.69237 0.305185,1.466103 0.828297,3.162311 1.207587,3.91564 0.140677,0.279407 0.644749,0.862045 1.299507,1.502054 0.579673,0.566613 0.992645,0.835001 1.107736,0.719909 z M 34.256628,49.441815 c 0.458034,-0.345819 1.401761,-1.366195 1.64077,-1.774032 0.205276,-0.350277 0.444914,-1.11653 0.613829,-1.962745 0.1947,-0.975386 0.246348,-1.455803 0.246253,-2.290583 l -7.5e-5,-0.76778 -0.113793,-0.281279 c -0.30583,-0.75597 -1.069169,-1.501658 -1.973939,-1.928297 -0.467009,-0.220214 -0.759775,-0.293354 -1.169781,-0.292238 -1.19045,0.0032 -2.909893,1.159567 -3.26422,2.195194 -0.09778,0.285787 -0.08933,0.758234 0.01986,1.110533 0.283853,0.915848 1.058794,1.84014 1.913212,2.281937 0.395117,0.204304 0.593975,0.263713 1.017943,0.304108 0.406439,0.03873 0.645589,0.131855 0.711807,0.277188 0.144175,0.31643 -0.764963,1.204836 -1.856266,1.813938 -0.245543,0.137048 -0.453011,0.269061 -0.46104,0.293362 -0.02131,0.06449 0.282307,0.100409 0.579572,0.06858 0.747126,-0.08001 1.467467,-0.478988 2.264076,-1.25401 0.393936,-0.383261 0.598452,-0.531316 0.655345,-0.474423 0.04394,0.04394 0.01362,0.297938 -0.06286,0.526663 -0.07712,0.230634 -0.22826,0.540879 -0.780614,1.602372 -0.168359,0.323547 -0.306108,0.614273 -0.306108,0.646059 0,0.09801 0.115283,0.06458 0.326043,-0.09454 z m -7.424763,-6.317618 c 0.119896,-0.303835 0.315418,-0.754672 0.434495,-1.001859 0.787624,-1.63501 1.753428,-2.297968 5.429496,-3.726979 0.464142,-0.180428 1.055505,-0.423379 1.314141,-0.539893 1.520773,-0.685095 2.521133,-1.539558 2.923437,-2.497069 0.229373,-0.545926 0.264907,-0.761125 0.283799,-1.718773 l 0.01736,-0.879817 -0.803491,0.789671 c -1.509547,1.483583 -2.16947,1.914069 -4.614646,3.010263 -1.571654,0.704588 -2.954316,1.422411 -3.626749,1.882866 -0.91985,0.629877 -1.711851,1.884919 -1.958903,3.104173 -0.04213,0.207907 -0.05637,0.428904 -0.04634,0.718779 0.01352,0.39057 0.02673,0.451764 0.197455,0.914817 0.10063,0.272937 0.193986,0.496248 0.207459,0.496248 0.01347,0 0.122593,-0.248592 0.242487,-0.552427 z m 33.76141,0.147224 c 0.1335,-0.249449 0.177736,-2.077044 0.06585,-2.720492 -0.160182,-0.921161 -0.492458,-1.583136 -1.066436,-2.124599 -0.469536,-0.442938 -0.86725,-0.631778 -2.143376,-1.017703 -0.991747,-0.299925 -2.186683,-0.62028 -3.668798,-0.983583 -3.61104,-0.885153 -4.298862,-1.085092 -4.913911,-1.428398 -0.340279,-0.189935 -0.571518,-0.421819 -0.956823,-0.959496 -0.362101,-0.505295 -0.628955,-0.809826 -0.709633,-0.809826 -0.07237,0 -0.04153,0.202918 0.140404,0.923634 0.230951,0.914905 0.44359,1.328067 0.902708,1.75398 0.831853,0.771689 3.272896,1.917412 5.144002,2.414378 0.226589,0.06018 0.770483,0.178343 1.208654,0.262581 0.928272,0.178459 1.528928,0.344039 2.115781,0.583246 1.005354,0.409793 1.767367,0.960021 2.331232,1.683316 0.374632,0.480554 1.029908,1.55292 1.238309,2.026499 0.223301,0.507445 0.240769,0.529636 0.312041,0.396463 z M 22.263237,39.486368 c 0.109918,-0.710123 0.168368,-0.953458 0.323798,-1.347999 0.158605,-0.402597 0.360764,-0.728013 0.653254,-1.051543 0.241093,-0.266679 0.270382,-0.358062 0.0839,-0.26177 -0.04749,0.02452 -0.495285,0.29808 -0.9951,0.607908 l -0.908755,0.563323 0.02258,0.134212 c 0.04876,0.28976 0.569994,1.824129 0.680305,2.002616 0.03194,0.05168 0.03183,0.05222 0.140016,-0.646747 z m 42.022754,-1.889095 c 0.817558,-0.376801 1.337896,-0.72017 1.854713,-1.223923 0.822577,-0.801781 1.276837,-1.711751 1.280706,-2.56551 0.0027,-0.60685 -0.117736,-0.879043 -0.682268,-1.541291 l -0.280895,-0.329517 -0.02633,0.991583 c -0.02982,1.123229 -0.08255,1.509255 -0.253592,1.856692 -0.08662,0.175961 -0.158245,0.262437 -0.289194,0.349173 -0.286648,0.189869 -0.290293,0.185721 -0.343782,-0.391405 -0.03761,-0.405766 -0.140789,-0.715669 -0.343419,-1.03144 -0.135875,-0.211743 -0.434227,-0.497109 -0.48617,-0.465007 -0.04657,0.02878 -0.04581,0.460623 0.0016,0.910748 0.08078,0.766891 -0.0731,1.35298 -0.653965,2.490744 -0.44371,0.869108 -0.499574,1.011825 -0.429249,1.096564 0.06723,0.08101 0.241996,0.04148 0.651845,-0.147411 z M 45.870518,33.224182 c 0.0079,-0.06782 -0.03988,-0.164793 -0.159644,-0.324112 -0.2977,-0.396029 -0.447358,-0.83938 -0.546944,-1.620286 -0.02496,-0.19569 -0.05645,-0.377042 -0.06998,-0.403003 -0.01353,-0.02596 -0.0985,0.193138 -0.188818,0.486885 -0.261964,0.852001 -0.221149,1.12047 0.240539,1.582157 0.361899,0.3619 0.700035,0.491753 0.724844,0.278359 z m -7.235695,-0.990088 c 0.08892,-0.135705 0.05099,-0.398676 -0.08551,-0.592894 -0.133029,-0.189277 -0.402759,-0.397133 -0.714518,-0.550611 -0.607249,-0.298948 -0.538903,0.100904 0.137209,0.802727 0.279307,0.289929 0.46406,0.434726 0.555039,0.435003 0.02527,7.5e-5 0.07378,-0.04232 0.107783,-0.09423 z m -0.564858,-3.308698 c 0.334442,-0.0833 1.049871,-0.350149 1.162407,-0.433568 0.06466,-0.04793 0.06648,-0.06015 0.0165,-0.110814 -0.152882,-0.154963 -1.177795,-0.296843 -6.243769,-0.864336 -2.846295,-0.318843 -3.423089,-0.36611 -3.473439,-0.284642 -0.04984,0.08064 0.953252,0.366907 3.612419,1.030925 1.735922,0.433475 2.579101,0.619089 3.242683,0.713833 0.501504,0.0716 1.285479,0.04766 1.683203,-0.0514 z m 17.22738,0.03129 c 2.366928,-0.09537 3.357465,-0.297882 4.020464,-0.821952 0.338325,-0.267431 0.744114,-0.88801 0.64528,-0.986842 -0.09917,-0.09917 -0.496466,-0.01722 -2.123444,0.438017 -1.615376,0.451988 -2.155927,0.536322 -3.17769,0.495769 -1.340877,-0.05322 -5.242384,-0.445865 -6.94878,-0.699321 -0.637845,-0.09474 -0.792497,-0.124142 -1.460655,-0.277677 -0.678418,-0.155893 -0.849766,-0.181098 -0.881546,-0.129676 -0.04436,0.07178 0.09971,0.181211 0.484409,0.367934 1.010109,0.490277 3.150855,1.234644 4.099454,1.425435 0.946349,0.190338 3.264458,0.272047 5.342508,0.188313 z m -5.093566,-3.517505 c 1.576558,-0.141387 2.485296,-0.262668 3.520553,-0.469856 1.10963,-0.222072 1.851797,-0.469102 2.358463,-0.785015 0.491481,-0.306442 0.565678,-0.47989 0.213926,-0.50009 -0.262846,-0.01509 -0.679224,0.07235 -1.430082,0.300336 -2.213985,0.672243 -3.484944,0.864968 -5.692809,0.863244 -3.110814,-0.0024 -6.557763,-0.507414 -13.239526,-1.939613 -1.843348,-0.395112 -2.734309,-0.566914 -3.131366,-0.603817 -0.247098,-0.02296 -0.258102,-0.02053 -0.258102,0.05712 0,0.176679 0.66248,0.462116 1.962831,0.845708 1.693876,0.499677 2.929186,0.766444 6.68874,1.444438 0.81366,0.146734 1.984993,0.365699 2.602962,0.486588 0.982527,0.192205 1.697876,0.298378 2.35952,0.350204 0.374581,0.02934 3.607497,-0.01002 4.04489,-0.04925 z M 46.6645,22.419959 c 1.502764,-0.168347 3.575909,-0.507857 4.475597,-0.732947 0.289428,-0.07241 1.346863,-0.493099 1.423202,-0.566203 0.02399,-0.02297 -0.01641,-0.02781 -0.112358,-0.01346 -0.186959,0.02796 -2.832138,0.298608 -3.913806,0.400447 -1.055155,0.09934 -2.531178,0.134158 -3.167058,0.0747 -1.193304,-0.111577 -2.329887,-0.393144 -5.371361,-1.330654 -0.705038,-0.217322 -1.297008,-0.395132 -1.315489,-0.395132 -0.225733,0 0.774591,0.654488 1.670495,1.092964 1.113187,0.544819 2.003492,0.849696 3.707816,1.269705 l 1.198486,0.295352 0.449432,-0.01907 c 0.247188,-0.01049 0.676958,-0.04456 0.955044,-0.07571 z"
     id="path337"
     inkscape:connector-curvature="0" />
  <path
     style="fill:#ffffff;stroke-width:0.14981076"
     d="m 50.912115,91.036457 c -2.973326,-0.621111 -6.828689,-1.793907 -8.790143,-2.673949 -1.824514,-0.818602 -5.068001,-3.410171 -8.29157,-6.625022 -2.457466,-2.450818 -3.599875,-3.980295 -6.442456,-8.62527 L 25.115891,69.399519 24.930658,67.778343 C 24.414493,63.26084 23.123769,59.149609 20.744929,54.445905 18.897238,50.792447 18.834225,50.302064 18.688482,38.442177 c -0.105854,-8.613981 0.01893,-11.911085 0.525511,-13.884972 0.638546,-2.488104 3.417442,-8.496716 5.065757,-10.953335 2.290227,-3.413312 5.140183,-5.6614593 8.655074,-6.8274316 1.789077,-0.5934792 3.146859,-0.8589776 6.242974,-1.2207408 1.418396,-0.1657314 3.155744,-0.4354654 3.860773,-0.5994088 1.89867,-0.4415058 3.96507,-0.7200041 6.84315,-0.9222826 2.264981,-0.1591885 2.82325,-0.1495281 4.720882,0.081691 3.958055,0.4822742 6.324318,1.1407742 8.954987,2.4920564 2.548235,1.308939 5.632777,3.6574534 7.257558,5.5257744 2.663432,3.062655 5.7952,10.146877 10.522569,23.802592 l 1.438032,4.153975 0.01832,8.014876 c 0.02337,10.220524 -0.01527,10.493805 -2.584381,18.276913 -2.268066,6.871104 -4.304389,10.137151 -9.54365,15.307007 -4.271018,4.214438 -8.006102,7.127846 -10.620359,8.283994 -1.680736,0.743301 -4.799569,1.4324 -6.416014,1.417604 -0.588301,-0.0054 -1.8112,-0.164699 -2.717555,-0.354032 z m 3.709181,-8.16616 c 1.879234,-0.480628 3.233728,-1.356077 3.653862,-2.361597 0.457724,-1.095492 0.108993,-1.246153 -0.778418,-0.336299 -0.776595,0.796234 -1.756683,1.415498 -2.85145,1.801674 -0.757635,0.267255 -1.115839,0.301359 -2.459784,0.234196 -1.745313,-0.08722 -3.896425,-0.585811 -5.293849,-1.227017 -0.567043,-0.260189 -0.925694,-0.34997 -1.020261,-0.255404 -0.288556,0.288557 0.771518,0.921846 2.460668,1.470003 3.174966,1.03033 4.388782,1.160497 6.289232,0.674444 z M 35.747687,72.261956 c 0.10671,-2.414418 0.501448,-3.978649 1.848689,-7.325815 0.863142,-2.144439 1.017159,-2.66394 1.023634,-3.452701 0.01401,-1.705309 -0.505112,-1.543881 -1.99793,0.621298 -1.500346,2.176098 -2.478436,4.580996 -2.660696,6.542036 -0.122028,1.312978 0.116276,1.361436 0.465366,0.09463 0.725451,-2.632575 1.906595,-5.316845 2.719215,-6.179694 0.639908,-0.679461 0.620214,-0.223603 -0.06871,1.590354 -0.755743,1.989897 -1.289249,3.76915 -1.611937,5.375846 -0.388788,1.935809 -0.346497,4.644134 0.07252,4.644134 0.06899,0 0.163418,-0.859539 0.209849,-1.910088 z m 2.808748,1.375997 c 0.16022,-0.421411 0.197205,-3.229838 0.04978,-3.780223 -0.147695,-0.551407 -0.539668,-0.330255 -0.989807,0.558454 -0.524919,1.036347 -0.531494,1.809276 -0.02405,2.827581 0.426322,0.855518 0.739929,0.983744 0.964077,0.394188 z m 23.760103,-1.360137 c 0.05468,-0.217865 0.06069,-1.279649 0.01336,-2.359519 -0.09924,-2.264295 -0.02559,-2.24562 0.823684,0.208855 l 0.492443,1.423203 0.04608,-0.721874 c 0.02565,-0.401765 -0.06672,-1.066086 -0.208303,-1.498108 -0.597437,-1.823036 -2.310528,-4.752878 -3.957807,-6.768902 -1.18678,-1.452444 -2.041143,-2.811701 -2.419455,-3.849259 -0.455922,-1.25041 -0.637719,-1.27065 -0.540554,-0.06018 0.111686,1.391381 0.721434,2.548412 2.257744,4.284203 1.384848,1.564663 1.703015,2.103223 2.176226,3.683703 0.549198,1.834268 0.773434,3.179679 0.773434,4.640589 0,1.148407 0.0416,1.413407 0.221863,1.413407 0.122024,0 0.2666,-0.178253 0.321281,-0.396119 z m -1.245174,-1.757497 c 0.176328,-0.459504 -1.043723,-2.041085 -1.574519,-2.041085 -0.148629,0 -0.270233,0.03706 -0.270233,0.08234 0,0.373474 1.364782,2.164817 1.649322,2.164817 0.06399,0 0.151937,-0.09273 0.19543,-0.206077 z m -8.23577,-0.282626 c 0.316349,-0.140939 0.785297,-0.433053 1.042104,-0.649143 0.437884,-0.368455 0.532554,-0.386927 1.522169,-0.297019 0.580385,0.05273 1.341759,0.135138 1.691942,0.183134 0.929471,0.127392 0.803721,-0.192111 -0.149811,-0.380639 -1.544922,-0.305455 -3.681677,-0.482137 -6.887884,-0.569542 -3.301191,-0.08999 -5.012747,0.03421 -6.857253,0.497631 -0.963904,0.242172 -2.247162,0.802285 -2.247162,0.980835 0,0.186295 0.201932,0.16201 2.358429,-0.283636 l 1.983901,-0.40998 0.334004,0.334003 0.334003,0.334005 h -0.575971 c -0.484317,0 -0.547483,0.03433 -0.396939,0.215723 0.27489,0.331221 0.593611,0.357014 4.052354,0.327949 2.67407,-0.02247 3.318589,-0.07057 3.796114,-0.283321 z m -5.392695,-2.224411 c 0.300832,-0.137068 0.697717,-0.685594 0.697717,-0.964299 0,-0.131578 -0.590187,-0.06569 -1.004174,0.112102 -0.593117,0.254726 -1.242988,0.71425 -1.242988,0.878917 0,0.194202 1.106452,0.17512 1.549445,-0.02672 z m 6.465394,-0.194396 c 0.505758,-0.331384 0.471611,-0.512878 -0.144962,-0.770499 -0.568478,-0.237525 -3.300909,-0.309238 -3.436292,-0.09018 -0.08313,0.134504 0.532253,0.763197 1.034508,1.056884 0.409709,0.239572 2.077803,0.111063 2.546746,-0.196201 z m -3.557828,-8.352577 c 0.63577,-0.194324 1.385609,-0.952821 1.385609,-1.401606 0,-0.464131 -0.255218,-0.608222 -0.57123,-0.322506 -0.228081,0.206216 -0.311172,0.19311 -0.851972,-0.134367 -1.231346,-0.745634 -2.92131,-0.253507 -2.92131,0.8507 0,0.360429 0.126734,0.519787 0.705044,0.88654 0.73693,0.467347 1.063945,0.484937 2.253859,0.121239 z m -5.655497,0.05413 c 0,-0.06598 -0.288664,-0.260203 -0.641474,-0.431612 -0.977295,-0.474806 -1.557719,-1.035633 -1.841876,-1.779687 -0.30748,-0.805127 -0.175055,-1.422978 0.557605,-2.601581 0.604157,-0.971884 0.502224,-1.247461 -0.225184,-0.608789 -1.433202,1.258368 -1.504153,3.248461 -0.163609,4.589005 l 0.397539,0.397539 -0.55499,-0.09006 c -0.305244,-0.04953 -0.993912,-0.29546 -1.530376,-0.546501 l -0.975385,-0.456437 0.10507,-0.711519 0.105068,-0.711517 -0.468101,0.445281 c -0.834684,0.793991 -0.756591,1.479625 0.221387,1.943706 0.84444,0.400714 5.014326,0.868215 5.014326,0.562175 z M 33.276017,55.362298 c 0.545988,-0.382424 0.425252,-0.756521 -0.30374,-0.941132 -0.935252,-0.236845 -1.774779,-0.834732 -3.778417,-2.690884 -0.986384,-0.913777 -1.817678,-1.637159 -1.84732,-1.607517 -0.310898,0.310897 4.79452,5.472744 5.412917,5.472744 0.100982,0 0.333434,-0.104946 0.51656,-0.233211 z m 16.812139,-0.821274 c 0,-0.689164 -0.418819,-1.559424 -0.882221,-1.833162 -0.940593,-0.555622 -0.797255,0.576175 0.246944,1.94987 0.421641,0.55469 0.635277,0.515442 0.635277,-0.116708 z m 9.204391,-1.476704 c 1.38811,-0.683365 2.731797,-2.024818 3.442582,-3.436863 0.778775,-1.547115 0.640693,-1.843141 -0.29218,-0.626384 -1.872346,2.442124 -2.610708,2.981153 -5.313688,3.879173 -2.087822,0.693645 -2.137326,0.793914 -0.362712,0.734684 1.354269,-0.0452 1.614666,-0.101963 2.525998,-0.55061 z m -16.48353,-3.173115 c 0.528915,-0.628579 0.508747,-1.345798 -0.06602,-2.348024 -0.248082,-0.432579 -0.517108,-0.786507 -0.597838,-0.786507 -0.186516,0 -0.190192,-0.03097 0.09608,0.809182 0.232814,0.68327 0.224938,1.288698 -0.03089,2.374297 -0.129022,0.547498 0.113482,0.527671 0.598675,-0.04895 z m 10.724786,-0.07893 c 0,-0.04973 -0.34178,-0.499454 -0.759509,-0.999383 -0.641588,-0.767835 -1.487652,-2.147428 -1.487652,-2.425767 0,-0.234091 0.4018,0.02402 1.52558,0.980011 1.286564,1.094472 2.152389,1.659517 2.043823,1.333815 -0.03263,-0.09788 -0.589583,-0.62595 -1.23768,-1.173483 -0.648096,-0.547531 -1.277548,-1.147195 -1.398786,-1.332586 L 51.999151,45.85781 h 1.128764 c 0.981798,0 1.250506,-0.06339 2.063809,-0.486885 1.004625,-0.523116 1.654344,-1.20453 1.395402,-1.463472 -0.102542,-0.102542 -0.453095,0.08998 -1.08014,0.593221 -1.308087,1.049809 -2.460098,1.17699 -3.806553,0.420239 C 50.635488,44.32238 50.13596,42.9365 50.985169,42.9365 c 0.329877,0 0.384242,0.08086 0.473388,0.704068 0.05539,0.387239 0.148725,0.781753 0.207404,0.876699 0.175954,0.2847 1.068412,0.591489 1.720659,0.591489 1.194145,0 1.944072,-0.77843 1.72237,-1.787834 -0.09897,-0.450607 -0.08991,-0.459328 0.476927,-0.459328 0.317797,0 0.728154,0.105304 0.911904,0.234008 0.302914,0.212169 0.342484,0.212138 0.424017,-3e-4 0.178308,-0.46466 -0.127168,-1.071631 -0.917408,-1.822858 -1.153563,-1.096613 -1.690018,-1.317175 -2.901727,-1.193033 -1.696719,0.173834 -3.021358,0.967022 -3.299947,1.975993 -0.173415,0.628058 0.106365,2.216681 0.735627,4.176968 0.459669,1.431965 0.528623,1.546061 1.56177,2.584236 0.95062,0.955244 1.43365,1.290722 1.43365,0.995705 z m -18.465247,-1.15461 c 1.124743,-1.171305 1.520124,-2.260472 1.644088,-4.529036 0.09226,-1.688371 -0.01622,-2.04456 -0.883151,-2.899828 -0.701727,-0.692285 -1.498824,-1.0638 -2.282409,-1.0638 -1.575014,0 -3.383759,1.433434 -3.383759,2.681635 0,1.417749 1.421579,2.929937 3.028412,3.221437 0.306095,0.05553 0.600187,0.171592 0.653538,0.257916 0.124466,0.201391 -0.725959,1.081572 -1.546879,1.601002 -0.671196,0.424696 -0.797908,0.627412 -0.392176,0.627412 0.614198,0 1.463921,-0.403392 2.250279,-1.068282 0.470914,-0.398172 0.886761,-0.693392 0.924109,-0.656044 0.03735,0.03735 -0.211077,0.649319 -0.552054,1.359936 -0.340978,0.710616 -0.61996,1.319263 -0.61996,1.352548 0,0.219826 0.370721,-0.06298 1.159962,-0.884896 z m -7.914491,-6.163219 c 0.342037,-0.778299 0.706605,-1.318311 1.204281,-1.78383 0.822551,-0.7694 1.316896,-1.039627 3.638752,-1.989078 4.238752,-1.733304 5.207332,-2.648372 5.207332,-4.919634 v -1.025122 l -0.936317,0.893747 c -1.316877,1.257005 -1.913405,1.628906 -5.083055,3.168996 -1.640959,0.79732 -3.050046,1.587034 -3.406744,1.909289 -0.66366,0.599577 -1.465178,2.072153 -1.608465,2.955125 -0.08912,0.549196 0.188839,1.906709 0.390414,1.906709 0.0568,0 0.324008,-0.502291 0.593802,-1.116202 z m 33.564079,-0.727821 c -0.01025,-2.145622 -0.551709,-3.216043 -1.977172,-3.908682 -0.433263,-0.210524 -2.64166,-0.858556 -4.907547,-1.44007 -2.265888,-0.581516 -4.404251,-1.194789 -4.751917,-1.362829 -0.377703,-0.182559 -0.850135,-0.602524 -1.173792,-1.043433 -0.543187,-0.73997 -0.903813,-0.966281 -0.75808,-0.475736 0.04284,0.144192 0.124362,0.464413 0.181164,0.711601 0.222746,0.96932 0.667729,1.584539 1.566023,2.165135 1.179734,0.762498 3.211812,1.603179 4.786791,1.980319 4.110671,0.984328 5.057581,1.598776 6.366105,4.130938 0.223354,0.432221 0.466602,0.748463 0.54055,0.70276 0.07395,-0.0457 0.131492,-0.702704 0.127875,-1.460003 z M 22.760827,37.882482 c 0.136242,-0.268938 0.351528,-0.60737 0.478413,-0.752067 0.407161,-0.464321 0.131567,-0.391395 -0.828622,0.219266 -0.602837,0.383391 -0.936317,0.695324 -0.936317,0.875819 0,0.154189 0.147373,0.670508 0.327495,1.147375 l 0.327495,0.867031 0.191911,-0.934221 c 0.105552,-0.513821 0.303383,-1.154262 0.439625,-1.423203 z m 42.128112,-0.572304 c 1.576449,-0.904051 2.4948,-2.194396 2.499619,-3.512135 0.0022,-0.604051 -0.08426,-0.863043 -0.446692,-1.337907 l -0.449432,-0.588852 -0.08908,1.291216 c -0.06025,0.873329 -0.17713,1.425605 -0.36115,1.706457 l -0.272076,0.415239 -0.252671,-0.77507 C 65.02005,32.983311 64.628649,32.881942 64.6518,34.284928 c 0.01435,0.869247 -0.06035,1.177194 -0.531994,2.193354 -0.301776,0.650173 -0.548682,1.206345 -0.548682,1.235939 0,0.181755 0.636762,-0.01347 1.317815,-0.404043 z M 45.893454,33.153857 c 0,-0.06592 -0.07545,-0.195301 -0.167671,-0.28752 -0.09222,-0.09222 -0.285569,-0.594459 -0.429666,-1.11609 l -0.261997,-0.948419 -0.16874,0.599243 c -0.240056,0.8525 -0.216336,1.030276 0.196962,1.476233 0.347961,0.375455 0.831112,0.536225 0.831112,0.276553 z M 38.636672,31.80408 c -0.118236,-0.372533 -0.764697,-0.812659 -1.099059,-0.748267 -0.195686,0.03769 -0.125368,0.183882 0.331884,0.690006 0.583342,0.64569 0.962764,0.674505 0.767175,0.05826 z m 0.140771,-3.089745 c 0.473507,-0.199894 0.550291,-0.280649 0.365945,-0.384873 -0.252634,-0.142828 -2.205616,-0.408208 -6.636295,-0.901769 -4.042265,-0.450294 -3.93458,-0.273989 0.502636,0.822931 1.441929,0.356459 2.790226,0.683416 2.996215,0.726574 0.663066,0.138921 2.154937,-0.0026 2.771499,-0.262863 z m 17.228238,0.216908 c 2.222147,-0.171301 2.846425,-0.346635 3.476071,-0.976281 0.959163,-0.959163 0.608898,-1.030205 -1.828153,-0.37079 -1.097822,0.297048 -1.99798,0.445363 -2.696594,0.44431 -1.356311,-0.0021 -6.286491,-0.51254 -8.011437,-0.829541 -1.642912,-0.301926 -1.934605,-0.234297 -0.965838,0.223931 3.003808,1.420802 5.767754,1.836629 10.025951,1.508371 z m -3.912439,-3.670549 c 2.348061,-0.31249 4.436776,-0.992215 4.436776,-1.443846 0,-0.225621 -0.830631,-0.10725 -2.607871,0.371641 -3.869804,1.042746 -8.123298,0.752074 -17.356385,-1.18609 -1.793198,-0.376419 -3.444861,-0.658982 -3.670364,-0.627917 -0.389023,0.05359 -0.374525,0.0732 0.283285,0.383198 1.027309,0.484124 3.768797,1.146035 8.145543,1.966682 3.683356,0.690634 4.037586,0.730959 6.516768,0.741833 1.50941,0.0066 3.313471,-0.08056 4.252248,-0.205501 z m -2.978856,-3.139403 c 1.534649,-0.270429 3.444242,-0.808882 3.317641,-0.935483 -0.04663,-0.04663 -1.31779,0.03337 -2.824795,0.177781 -4.007102,0.383989 -5.196395,0.234445 -9.968377,-1.253443 -0.514974,-0.160569 -0.936317,-0.244951 -0.936317,-0.187517 0,0.170241 1.499555,1.027596 2.527865,1.445282 2.0682,0.840076 3.418956,1.122779 5.037578,1.054327 0.82396,-0.03485 2.104842,-0.170272 2.846405,-0.300947 z"
     id="path339"
     inkscape:connector-curvature="0" />
  <path
     style="fill:#ffffff;stroke-width:0.03745269"
     d="m 32.205865,42.710556 c -0.451647,-0.01653 -1.203836,-0.0884 -1.377417,-0.131624 -0.139431,-0.03472 -0.156977,-0.0502 -0.135317,-0.119451 0.123654,-0.395307 1.18735,-1.305055 1.854395,-1.586009 0.2144,-0.0903 0.28487,-0.100606 0.688288,-0.10063 0.567119,-3.3e-5 1.016277,0.113596 1.610465,0.40742 0.657006,0.324888 1.056141,0.70525 1.142676,1.088932 0.06368,0.282368 -0.171855,0.369267 -1.161402,0.428486 -0.556248,0.03329 -1.885494,0.03982 -2.621688,0.01288 z"
     id="path341"
     inkscape:connector-curvature="0" />
  <path
     style="fill:#ffffff;stroke-width:0.03745269"
     d="m 32.743077,45.655478 c -0.350538,-0.06935 -0.597667,-0.285853 -0.567575,-0.497232 0.01513,-0.106244 0.141352,-0.124127 0.333494,-0.04725 0.298369,0.119384 1.06335,0.04243 1.393453,-0.14018 0.07826,-0.0433 0.174191,-0.130321 0.213171,-0.193391 0.09165,-0.14829 0.148963,-0.508677 0.151974,-0.955581 0.0028,-0.413554 0.05061,-0.580424 0.197586,-0.689367 0.09437,-0.06995 0.15732,-0.07841 0.583191,-0.07841 0.457029,0 0.48671,0.0048 0.695439,0.112358 0.369972,0.190656 0.452153,0.508207 0.242423,0.936732 -0.110213,0.225187 -0.571673,0.699557 -0.869455,0.893777 -0.79191,0.516504 -1.74922,0.782093 -2.373701,0.658544 z"
     id="path343"
     inkscape:connector-curvature="0" />
  <path
     style="fill:#ffffff;stroke-width:0.03745269"
     d="m 51.142998,42.211975 c -0.373086,-0.04746 -0.472957,-0.09678 -0.472957,-0.233557 0,-0.384868 0.500889,-0.782318 1.216612,-0.965369 0.480215,-0.122819 0.897013,-0.161311 1.498708,-0.138411 1.041924,0.03966 1.744854,0.314228 2.044123,0.798456 0.198005,0.320378 -0.0046,0.413751 -1.08908,0.501855 -0.635287,0.05161 -2.878542,0.07759 -3.197406,0.03703 z"
     id="path345"
     inkscape:connector-curvature="0" />
</svg>
