<?xml version="1.0" encoding="UTF-8" standalone="no"?>
<svg
   xmlns:dc="http://purl.org/dc/elements/1.1/"
   xmlns:cc="http://creativecommons.org/ns#"
   xmlns:rdf="http://www.w3.org/1999/02/22-rdf-syntax-ns#"
   xmlns:svg="http://www.w3.org/2000/svg"
   xmlns="http://www.w3.org/2000/svg"
   xmlns:sodipodi="http://sodipodi.sourceforge.net/DTD/sodipodi-0.dtd"
   xmlns:inkscape="http://www.inkscape.org/namespaces/inkscape"
   version="1.1"
   x="0px"
   y="0px"
   viewBox="0 0 100 100"
   id="svg161"
   sodipodi:docname="r_u_kidding.svg"
   inkscape:version="0.92.2 (5c3e80d, 2017-08-06)">
  <metadata
     id="metadata167">
    <rdf:RDF>
      <cc:Work
         rdf:about="">
        <dc:format>image/svg+xml</dc:format>
        <dc:type
           rdf:resource="http://purl.org/dc/dcmitype/StillImage" />
        <dc:title></dc:title>
      </cc:Work>
    </rdf:RDF>
  </metadata>
  <defs
     id="defs165" />
  <sodipodi:namedview
     pagecolor="#ffffff"
     bordercolor="#666666"
     borderopacity="1"
     objecttolerance="10"
     gridtolerance="10"
     guidetolerance="10"
     inkscape:pageopacity="0"
     inkscape:pageshadow="2"
     inkscape:window-width="1920"
     inkscape:window-height="1027"
     id="namedview163"
     showgrid="false"
     inkscape:pagecheckerboard="true"
     inkscape:zoom="11.313709"
     inkscape:cx="7.5052988"
     inkscape:cy="30.022525"
     inkscape:window-x="-8"
     inkscape:window-y="-8"
     inkscape:window-maximized="1"
     inkscape:current-layer="svg161" />
  <g
     transform="translate(0,-952.36218)"
     id="g159">
    <path
       d="m 29.504804,1048.0858 c 0.0082,-1.2422 0.872764,-4.4133 1.840403,-6.7501 1.077466,-2.602 1.130633,-2.4998 -1.845062,-3.5467 -1.125345,-0.3959 -3.74589,-1.5458 -5.82345,-2.5553 -7.869011,-3.8237 -11.959949,-8.3513 -16.7586077,-18.5474 -3.074813,-6.5332 -3.735049,-9.5102 -3.416584,-15.4051 0.318848,-5.9021 0.761539,-9.53125 1.653432,-13.55482 1.605283,-7.24187 3.360455,-11.40848 7.3593257,-17.47038 4.717121,-7.1507 9.408348,-10.66124 17.143275,-12.82866 5.932596,-1.66238 25.568114,-0.64358 34.153817,1.77209 13.847123,3.89601 24.853844,12.03542 30.488595,22.5461 2.161543,4.032 2.617158,6.18823 2.793688,13.22083 0.151064,6.01914 0.137717,6.18714 -0.688491,8.65654 -1.417619,4.2372 -4.02886,8.4163 -11.002314,17.6088 -6.146051,8.1018 -10.023375,11.8461 -14.712552,14.2075 -2.625311,1.3221 -8.252003,3.2722 -12.732292,4.4128 -4.311975,1.0977 -8.962277,1.1454 -16.338746,0.1675 -2.77008,-0.3672 -5.628235,-0.6679 -6.351446,-0.6683 l -1.314936,0 -0.9355,2.4396 c -0.514511,1.3417 -1.239044,3.4665 -1.610109,4.7217 -0.539819,1.8262 -0.797783,2.2822 -1.290857,2.2822 -0.43059,0 -0.614831,-0.2134 -0.611589,-0.7083 z m 28.95526,-10.0837 c 1.644734,-0.4483 4.896115,-1.4887 7.22528,-2.312 7.837372,-2.7702 10.689075,-5.2984 20.233099,-17.9378 5.098205,-6.7517 8.715268,-12.9803 9.40464,-16.1948 0.509726,-2.37673 0.177852,-11.5363 -0.506421,-13.97715 -1.381608,-4.9285 -4.206554,-9.33378 -9.094265,-14.18192 -6.313136,-6.26198 -14.031931,-10.4487 -23.799734,-12.90908 -6.491996,-1.63526 -22.551279,-2.81071 -28.172965,-2.0621 -6.214263,0.82752 -11.721171,3.39834 -15.581488,7.27398 -2.71481,2.72559 -6.8457,9.19773 -8.8754097,13.90567 -2.646603,6.13884 -4.149789,15.11963 -3.965437,23.6915 0.1346,6.2584 0.293987,6.8545 3.706076,13.8601 2.7438107,5.6335 4.2755477,7.9627 7.0534467,10.7254 5.021127,4.9937 12.145948,8.4212 20.181065,9.7083 7.700537,1.2335 9.564265,1.4047 14.322569,1.3159 4.079981,-0.076 5.368917,-0.2245 7.869544,-0.906 z m 3.361932,-5.4675 c -0.38841,-0.3884 0.733473,-1.8965 2.700985,-3.6309 2.652067,-2.3378 3.272974,-3.6038 2.791169,-5.691 -0.375471,-1.6268 -0.277921,-2.1194 0.419762,-2.1194 1.064969,0 1.460241,3.7394 0.589334,5.5748 -0.936664,1.9738 -5.90795,6.4598 -6.50125,5.8665 z m -2.823876,-6.939 c -0.08206,-0.139 -0.247607,-0.7115 -0.367854,-1.2722 -0.120247,-0.5607 -0.333889,-1.0906 -0.474754,-1.1777 -0.871851,-0.5388 -15.751048,-4.001 -19.589717,-4.5582 l -4.627353,-0.6717 -1.256641,0.8316 c -1.15506,0.7644 -1.922529,0.8235 -1.922529,0.148 0,-0.1496 0.366721,-0.7079 0.814938,-1.2406 0.734827,-0.8732 0.990146,-0.9679 2.59695,-0.9627 2.012965,0.01 6.911504,0.6639 10.438507,1.4008 5.279173,1.103 14.654255,3.7341 15.044679,4.2223 0.490209,0.613 0.380571,3.2412 -0.142376,3.4131 -0.200548,0.066 -0.431786,0.01 -0.51385,-0.1327 z m -7.758142,-0.9548 c -0.421871,-0.079 -1.909214,-0.5708 -3.305208,-1.0922 -1.781885,-0.6657 -3.641459,-1.0646 -6.241052,-1.3387 -2.036606,-0.2148 -3.80313,-0.4908 -3.925643,-0.6133 -0.836092,-0.8361 2.68449,-0.9138 6.841592,-0.151 3.635037,0.6669 8.39227,2.5192 8.019474,3.1224 -0.102871,0.1665 -0.28494,0.2834 -0.404589,0.2598 -0.119617,-0.024 -0.562672,-0.1077 -0.984574,-0.187 z m -30.554773,-2.5558 c -1.144336,-1.1443 -1.433661,-2.7189 -0.950672,-5.174 0.44279,-2.2506 1.009448,-3.4931 2.1483,-4.7103 1.610889,-1.7217 1.683818,-0.9208 0.230565,2.5323 -1.138975,2.7062 -1.1589,4.6816 -0.06391,6.3362 0.462137,0.6984 0.840253,1.4144 0.840253,1.5913 0,0.6455 -1.330992,0.2981 -2.204536,-0.5755 z m 49.903651,-12.3413 c -4.107713,-0.6381 -8.720524,-2.8827 -10.198866,-4.9627 -0.740964,-1.0426 -1.296271,-2.9817 -1.2986,-4.5348 0,-0.90288 -0.183046,-1.29192 -0.788717,-1.68877 -0.82583,-0.54114 -1.065914,-1.38769 -0.393477,-1.38744 0.216412,9e-5 1.101736,0.26758 1.967385,0.59438 2.585398,0.97605 19.715788,5.16053 21.271754,5.19603 1.090908,0.025 1.80924,-0.1963 2.959799,-0.9114 2.289628,-1.4232 3.244707,-2.79854 3.705421,-5.33604 0.516935,-2.84689 1.180338,-3.12975 1.180338,-0.50324 0,2.55871 -1.034688,4.61148 -3.178729,6.30618 -0.879721,0.6955 -1.723966,1.2644 -1.8761,1.2644 -0.152134,0 -0.838452,0.7606 -1.52518,1.6902 -0.791771,1.0718 -2.032011,2.1849 -3.389885,3.0424 -1.927408,1.2173 -2.361744,1.3609 -4.348709,1.4375 -1.214082,0.047 -3.052974,-0.046 -4.086434,-0.2067 z m 6.58004,-1.5529 c 0.703915,-0.3443 1.969243,-1.2194 2.811882,-1.9447 1.417935,-1.2204 1.489642,-1.3497 0.962855,-1.7348 -0.821675,-0.6009 -2.578881,-0.5114 -3.550958,0.1808 -1.38759,0.9881 -3.254025,1.3513 -4.968736,0.967 -1.829857,-0.41 -2.13954,-0.6525 -3.4558,-2.7059 -0.998487,-1.5577 -1.120497,-1.6371 -3.489198,-2.271 -1.350004,-0.3614 -3.056562,-0.75093 -3.792364,-0.86576 l -1.337823,-0.2088 0,1.41016 c 0,3.4227 4.35658,6.5915 10.240102,7.4486 3.294065,0.4797 5.198872,0.4 6.58004,-0.2756 z m -47.196578,-5.8633 c -2.578283,-0.6407 -4.955975,-2.2444 -6.182421,-4.1699 -0.825537,-1.29606 -0.920595,-1.69603 -0.84693,-3.56337 0.06428,-1.62928 -0.03881,-2.23801 -0.457296,-2.70042 -1.498024,-1.65531 -0.904056,-1.57693 17.169646,2.26564 2.901816,0.61694 5.820157,1.12169 6.485165,1.12169 2.360517,0 4.926366,-2.65584 5.336589,-5.52379 0.253085,-1.76935 1.096637,-2.32205 1.442236,-0.94497 0.414882,1.65295 -0.705615,4.20831 -2.59292,5.91339 -1.577907,1.42555 -2.119331,1.71245 -4.024201,2.13233 -0.937043,0.20656 -2.570728,1.03162 -4.193271,2.11768 -3.723333,2.49232 -5.888937,3.31682 -8.98878,3.42242 -1.38504,0.047 -2.801557,0.015 -3.147817,-0.071 z m 8.1406,-2.42973 c 2.807948,-1.38774 4.92284,-2.89864 4.92284,-3.51688 0,-0.72727 -1.094307,-0.56245 -3.147817,0.47416 -3.185717,1.60817 -5.38944,1.1529 -7.39929,-1.52858 -1.287961,-1.71833 -2.205927,-2.19006 -5.024672,-2.58212 -2.993772,-0.4164 -3.315571,-0.21981 -3.313934,2.02448 0.0013,1.8761 0.667983,3.16102 2.330773,4.49255 1.88882,1.51252 3.757711,2.03432 6.7482,1.88392 2.218549,-0.1116 2.978149,-0.3056 4.8839,-1.24753 z"
       fill="#000"
       id="path157" />
  </g>
  <path
     style="fill:#ffffff;stroke-width:0.10593221"
     d="M 46.168839,86.452424 C 43.033768,86.28045 35.765126,85.198518 32.768415,84.45778 28.877892,83.496104 24.826846,81.805826 21.592567,79.794712 19.354359,78.402967 16.707274,76.203453 15.055367,74.362825 12.958144,72.026006 11.7154,70.040569 9.3064587,65.178235 6.1613904,58.830064 5.7346223,57.56286 5.4785264,53.811953 5.3244517,51.555299 5.4198741,45.422158 5.6436743,43.197303 6.2209565,37.458394 7.325551,32.430961 8.9007847,28.372944 10.704948,23.725173 14.820243,17.02803 17.948032,13.649643 c 2.313193,-2.498524 6.223552,-4.8937665 10.1064,-6.1905507 3.400104,-1.1355587 5.276367,-1.4376062 9.427966,-1.5177466 7.950887,-0.15348 19.146243,0.9076614 24.841102,2.3545407 8.336579,2.1180546 15.504319,5.7773556 21.331064,10.8900136 1.57028,1.377836 4.374826,4.293576 5.622484,5.845403 3.220191,4.005242 5.29494,8.263887 5.775208,11.854238 0.392762,2.936174 0.587521,8.411115 0.384628,10.812373 -0.162589,1.924246 -0.56378,3.155307 -1.8647,5.721847 -1.943809,3.834874 -4.596911,7.876445 -8.725953,13.292573 -7.237279,9.493253 -10.619285,12.800791 -15.354498,15.016408 -3.15707,1.4772 -10.516031,3.888153 -13.365267,4.378746 -1.907879,0.328508 -7.025415,0.50578 -9.957627,0.344936 z m 16.547067,-6.471028 c 0.886565,-0.51672 2.147822,-1.589433 3.489651,-2.967984 2.074634,-2.131414 2.48782,-2.893479 2.601117,-4.79741 0.10137,-1.70348 -0.306489,-3.304415 -0.878413,-3.447959 -0.80882,-0.203001 -1.006368,0.261232 -0.731473,1.718941 0.320835,1.701319 0.188403,2.688652 -0.491099,3.661357 -0.175915,0.251823 -1.190685,1.315911 -2.255042,2.36464 -1.972637,1.943671 -2.709774,2.853411 -2.709774,3.344278 0,0.513623 0.251774,0.545678 0.975033,0.124137 z m -2.912741,-6.990661 c 0.222834,-0.520318 0.247022,-2.265438 0.03833,-2.765512 -0.108481,-0.259949 -0.276096,-0.410301 -0.623348,-0.559151 -1.582804,-0.678469 -8.972885,-2.728669 -13.31414,-3.693687 -4.449489,-0.989079 -8.93414,-1.620208 -11.606841,-1.633441 -1.615596,-0.008 -1.657926,-0.0024 -2.076541,0.274313 -0.46856,0.309737 -1.376445,1.445927 -1.477677,1.849267 -0.03531,0.140689 -0.0054,0.324916 0.06686,0.412003 0.29901,0.360283 1.148206,0.07623 2.487848,-0.832181 l 0.635175,-0.430711 2.799694,0.401594 c 3.767413,0.540408 7.991265,1.411559 15.031363,3.100156 4.008898,0.961552 6.11784,1.552203 6.375828,1.78568 0.105786,0.09573 0.294443,0.563813 0.419239,1.040176 0.353427,1.349077 0.405966,1.44874 0.763731,1.44874 0.257761,0 0.339178,-0.06731 0.480476,-0.397246 z m -7.225428,-0.662076 c 0.185192,-0.204635 0.184848,-0.219498 -0.01006,-0.435564 -0.623459,-0.691119 -4.678497,-2.187022 -7.409097,-2.733214 -4.335002,-0.867114 -8.205216,-0.848956 -7.471551,0.03506 0.15256,0.183825 0.8957,0.314381 3.983197,0.699776 3.13462,0.391276 3.948074,0.575896 6.77616,1.5379 1.983236,0.67462 3.338219,1.064247 3.823624,1.099489 0.0638,0.0046 0.202278,-0.08692 0.307732,-0.203443 z M 22.904334,70.468924 c 0.08351,-0.217631 -0.109625,-0.654361 -0.762544,-1.724302 -1.207269,-1.978356 -1.149385,-3.368687 0.294027,-7.062149 0.683475,-1.748904 0.864935,-2.672337 0.546885,-2.783055 -0.08485,-0.02954 -0.505956,0.320435 -1.006501,0.836475 -0.99319,1.023933 -1.508879,1.916463 -1.912957,3.310851 -1.07961,3.725505 -0.629909,6.133916 1.358254,7.27424 0.616804,0.353772 1.37483,0.4294 1.482836,0.14794 z m 53.53572,-13.02433 c 1.815793,-0.428116 4.510159,-2.387518 6.122611,-4.452496 0.680887,-0.871973 1.44393,-1.638015 1.631604,-1.638015 0.205861,0 2.215478,-1.599234 2.79165,-2.22157 0.709161,-0.765978 1.355357,-1.827421 1.647313,-2.705879 0.531347,-1.598756 0.545698,-4.394585 0.02256,-4.394585 -0.273749,0 -0.514122,0.614729 -0.865294,2.212899 -0.541658,2.465065 -1.354062,3.766057 -3.109502,4.979592 -1.92555,1.331132 -2.869933,1.51311 -5.302408,1.021756 C 74.186771,49.19756 62.921057,46.353302 59.599813,45.252743 58.800937,44.98802 58.014798,44.786689 57.852838,44.80534 c -0.600783,0.06919 -0.386717,0.839201 0.392272,1.411031 0.276907,0.203268 0.556747,0.500936 0.621866,0.661484 0.06512,0.160549 0.164721,0.81627 0.221336,1.45716 0.190925,2.161305 0.776811,3.676327 1.84129,4.761333 1.938501,1.975878 6.407939,3.913168 10.133304,4.39231 1.225788,0.157656 4.640259,0.129676 5.377148,-0.04406 z M 35.68155,49.782892 c 1.813664,-0.423269 3.585956,-1.269542 6.222253,-2.971138 1.859274,-1.200066 3.039689,-1.824009 4.003043,-2.115923 0.406278,-0.123111 1.095943,-0.330279 1.532588,-0.460375 2.324822,-0.692668 4.881351,-3.489857 5.465659,-5.980174 0.297932,-1.269782 0.0267,-2.579165 -0.534252,-2.579165 -0.381193,0 -0.661037,0.444204 -0.855365,1.357746 -0.419802,1.973499 -0.954389,3.035334 -2.120613,4.212103 -0.878783,0.88673 -1.983008,1.489545 -2.908228,1.587648 -0.786477,0.08339 -3.697024,-0.423209 -9.480932,-1.650226 -6.745789,-1.431074 -11.586329,-2.388527 -13.11103,-2.593346 -2.037511,-0.273705 -2.308082,-0.122208 -1.545946,0.8656 l 0.462061,0.598877 0.05517,2.091589 0.05517,2.091589 0.46729,0.92159 c 0.533923,1.053006 1.647519,2.318229 2.703866,3.072022 0.787888,0.562225 2.401202,1.354393 3.339274,1.639649 0.619121,0.188266 0.923581,0.204978 3.019068,0.165726 1.834031,-0.03435 2.52233,-0.08842 3.230932,-0.253792 z"
     id="path171"
     inkscape:connector-curvature="0" />
  <path
     style="fill:#ffffff;stroke-width:0.10593221"
     d="m 29.99991,48.547603 c -1.456688,-0.316801 -2.731134,-0.999789 -3.910878,-2.095877 -1.476976,-1.372245 -1.88972,-2.353969 -1.830882,-4.354822 0.03256,-1.107435 0.05781,-1.237173 0.288432,-1.48238 0.381735,-0.405875 0.958823,-0.444202 2.773836,-0.184223 2.679815,0.383852 3.600561,0.788339 4.67551,2.053967 1.925525,2.267084 2.787518,2.841493 4.374182,2.914835 1.20162,0.05554 1.897629,-0.117808 3.598169,-0.896182 2.026799,-0.927709 2.894448,-1.081906 3.002464,-0.533594 0.09699,0.492343 -2.058936,2.074271 -4.542956,3.333432 -1.589421,0.805684 -2.530916,1.14017 -3.64666,1.295554 -1.069017,0.148876 -4.006764,0.117718 -4.781217,-0.05071 z"
     id="path173"
     inkscape:connector-curvature="0" />
  <path
     style="fill:#ffffff;stroke-width:0.10593221"
     d="M 71.486635,56.178499 C 65.484475,55.40433 61.10481,52.690364 60.471879,49.352936 c -0.16066,-0.84716 -0.141909,-2.024277 0.03225,-2.024277 0.771374,0 5.83077,1.196993 6.71772,1.589334 0.686856,0.303829 0.877226,0.50255 1.841811,1.922609 0.461161,0.67892 1.021909,1.400122 1.246105,1.60267 0.764376,0.690567 2.350623,1.096234 3.921149,1.002793 1.096331,-0.06523 1.968827,-0.345783 3.076017,-0.989104 1.355182,-0.787414 2.827857,-0.875147 3.652508,-0.217593 0.298872,0.238312 0.303034,0.254187 0.131029,0.499758 -0.298405,0.426033 -1.653247,1.553209 -2.779745,2.312639 -1.540892,1.038795 -2.050694,1.193601 -4.069847,1.235846 -0.976488,0.02043 -2.092746,-0.02379 -2.754238,-0.109112 z"
     id="path175"
     inkscape:connector-curvature="0" />
  <path
     style="fill:#ffffff;stroke-width:0.00662076"
     d="m 73.791519,56.404048 c -0.978247,-0.02648 -2.052887,-0.130384 -3.320312,-0.321038 -2.24263,-0.337351 -4.36064,-1.039596 -6.064619,-2.010779 -0.271038,-0.154478 -0.505076,-0.298536 -0.766353,-0.471713 l -0.07448,-0.04937 v -0.223461 -0.223462 h 4.036482 4.036482 l 0.09322,0.02606 c 0.20348,0.05689 0.613089,0.154872 0.830856,0.19874 0.57272,0.115373 1.183026,0.148002 1.794804,0.09595 0.472477,-0.0402 0.941072,-0.134535 1.414426,-0.284756 l 0.113446,-0.036 2.481893,2.93e-4 2.481893,2.94e-4 -0.04304,0.04041 c -0.291082,0.273319 -0.787378,0.70797 -1.099046,0.962535 -0.718148,0.586569 -1.686965,1.255938 -2.320578,1.60332 -0.765743,0.419823 -1.601109,0.627209 -2.754237,0.683762 -0.137887,0.0068 -0.702686,0.01295 -0.840837,0.0092 z"
     id="path177"
     inkscape:connector-curvature="0" />
  <path
     style="fill:#ffffff;stroke-width:0.00390625"
     d="m 70.496445,58.931984 c 0,-1.247399 9.84e-4,-1.562499 0.0049,-1.562495 0.0027,3e-6 0.01982,0.0026 0.03809,0.0059 0.05277,0.0093 0.266527,0.03952 0.371094,0.05242 0.62836,0.07755 1.377838,0.131486 2.230469,0.160524 0.148477,0.0051 0.861528,0.0051 1.143201,7.8e-5 0.516011,-0.0092 1.009255,-0.02717 1.243518,-0.04527 0.944898,-0.07302 1.509028,-0.239324 2.322265,-0.684596 0.303579,-0.166219 0.723611,-0.419075 1.206933,-0.726567 0.509427,-0.324099 1.003889,-0.684142 1.464942,-1.0667 l 0.06641,-0.0551 0.532227,-2.2e-5 0.532227,-2.1e-5 v 2.742188 2.742187 H 76.07457 70.496445 Z"
     id="path179"
     inkscape:connector-curvature="0" />
  <path
     style="fill:#ffffff;stroke-width:0.0078125"
     d="m 81.044307,50.589243 c -0.357801,-0.03745 -0.985807,-0.149982 -1.957031,-0.350694 -3.236909,-0.668936 -9.692304,-2.221094 -14.542969,-3.496762 -0.163281,-0.04294 -0.315332,-0.08327 -0.33789,-0.08962 l -0.04102,-0.01155 v -2.316188 -2.316188 h 11.15625 11.15625 v 2.826785 2.826786 l -0.07134,0.08923 c -0.540225,0.675677 -1.266543,1.286933 -2.28022,1.918994 -0.940008,0.586125 -1.565112,0.829155 -2.328125,0.905136 -0.122508,0.0122 -0.673521,0.02248 -0.753907,0.01407 z"
     id="path181"
     inkscape:connector-curvature="0" />
  <path
     style="fill:#ffffff;stroke-width:0.0078125"
     d="m 63.601091,53.573996 c -1.00221,-0.682527 -1.760779,-1.400751 -2.313321,-2.190284 -0.569291,-0.813466 -0.876906,-1.642965 -0.92856,-2.503906 -0.0088,-0.146219 -0.01135,-1.628907 -0.0028,-1.628907 0.01296,0 1.327734,0.206416 1.471273,0.230986 0.94547,0.161841 2.881404,0.621109 4.332031,1.027704 1.368349,0.383532 1.75659,0.603531 2.265118,1.283544 0.152546,0.203987 0.208299,0.2869 0.588862,0.875735 0.113859,0.176172 0.265852,0.408203 0.33776,0.515625 0.908867,1.357721 1.34048,1.689217 2.612948,2.006848 0.47711,0.119095 0.782325,0.179272 1.089844,0.214875 0.121818,0.0141 0.198544,0.02072 0.427734,0.03686 l 0.06445,0.0045 v 0.104768 0.104767 l -4.912109,-3.43e-4 -4.91211,-3.43e-4 -0.121093,-0.08247 z"
     id="path183"
     inkscape:connector-curvature="0" />
  <path
     style="fill:#ffffff;stroke-width:0.0078125"
     d="m 51.233903,48.172774 v -5.484375 h 11.15625 11.15625 v 3.148438 c 0,1.73164 -0.0017,3.148437 -0.0038,3.148437 -0.01785,0 -2.259405,-0.541141 -3.187578,-0.769523 -0.150391,-0.037 -0.338477,-0.0831 -0.417969,-0.102429 -0.203601,-0.04951 -2.391274,-0.596452 -2.589844,-0.647485 -0.09023,-0.02319 -0.345117,-0.0883 -0.566406,-0.144687 -2.260626,-0.576041 -4.317416,-1.128576 -5.558594,-1.493258 -0.627467,-0.184362 -1.040721,-0.317599 -1.425781,-0.459686 -0.886857,-0.32725 -1.622439,-0.54747 -1.871094,-0.560172 -0.187857,-0.0096 -0.334955,0.06578 -0.38785,0.198751 -0.02667,0.06703 -0.02471,0.197393 0.0044,0.294896 0.05699,0.190703 0.174564,0.374794 0.363696,0.569463 0.112461,0.115754 0.221067,0.206969 0.359141,0.30163 0.193967,0.132981 0.285974,0.20629 0.391497,0.311934 0.158902,0.159082 0.255706,0.313905 0.322753,0.516191 0.07004,0.211323 0.106266,0.484765 0.106603,0.804688 7.65e-4,0.72391 0.105634,1.50889 0.304249,2.277344 0.271971,1.052275 0.674212,1.945847 1.134168,2.519531 0.256619,0.320069 0.55823,0.622839 0.930417,0.93399 0.06563,0.05487 0.124481,0.104472 0.130773,0.11023 0.0096,0.0087 -0.839043,0.01047 -5.169922,0.01047 H 51.2339 Z"
     id="path185"
     inkscape:connector-curvature="0" />
  <path
     style="fill:#ffffff;stroke-width:0.0078125"
     d="m 73.510788,56.395109 c -1.108769,-0.0444 -2.719252,-0.23344 -3.85693,-0.452733 -0.302241,-0.05826 -0.831768,-0.174139 -1.000492,-0.218946 l -0.0293,-0.0078 v -2.821918 -2.821918 l 0.06732,0.100792 c 0.03702,0.05543 0.144794,0.220649 0.239488,0.367141 0.376297,0.582134 0.535824,0.821035 0.715183,1.071036 0.586992,0.818184 1.01526,1.165377 1.74387,1.413739 0.346767,0.118203 1.018324,0.283908 1.393461,0.343833 1.346059,0.21502 2.743043,-0.0049 3.925668,-0.618062 0.214207,-0.111056 0.346709,-0.190519 0.610325,-0.366017 0.251429,-0.167385 0.332227,-0.215674 0.464379,-0.277539 0.364614,-0.17069 0.738471,-0.273217 1.199739,-0.32902 0.124042,-0.01501 0.184808,-0.01755 0.429632,-0.01799 0.308843,-5.52e-4 0.391526,0.0052 0.613282,0.04237 0.418827,0.07028 0.725895,0.19754 0.995069,0.412404 0.221578,0.176873 0.26488,0.293014 0.174609,0.468327 -0.1069,0.207606 -0.440728,0.53544 -1.236085,1.21389 -0.754207,0.643349 -1.84128,1.411275 -2.550781,1.801912 -0.789769,0.434832 -1.644677,0.646465 -2.816296,0.697177 -0.209116,0.0091 -0.84894,0.0086 -1.082141,-7.01e-4 z"
     id="path187"
     inkscape:connector-curvature="0" />
  <path
     style="fill:#ffffff;stroke-width:0.0078125"
     d="m 68.624069,58.536565 c 0,-0.859375 0.0015,-1.5625 0.0033,-1.5625 0.0018,0 0.124002,0.02994 0.271484,0.06654 1.214394,0.301333 2.09764,0.433152 3.4244,0.51107 0.574731,0.03375 0.654265,0.03568 1.464843,0.03545 1.254403,-3.51e-4 1.870518,-0.03146 2.404312,-0.12141 0.683403,-0.115155 1.207349,-0.329939 2.099595,-0.860698 0.467453,-0.278068 1.018196,-0.63053 1.339843,-0.857469 0.881147,-0.621692 1.687421,-1.338414 2.323565,-2.065488 0.155889,-0.178173 0.303284,-0.361149 0.469621,-0.582992 0.572414,-0.763424 1.097913,-1.37584 1.363064,-1.588516 0.07898,-0.06335 0.111507,-0.08125 0.166151,-0.09144 0.184161,-0.03434 0.934475,-0.536734 1.736193,-1.162523 0.442389,-0.345312 0.87104,-0.726076 1.147627,-1.019418 l 0.100751,-0.106855 h 1.994952 1.994951 v 4.523817 4.523818 l -0.18343,0.28821 c -0.244305,0.383857 -0.534374,0.831161 -0.824577,1.271545 l -0.238086,0.361296 H 79.153366 l -10.529297,6.4e-5 z"
     id="path189"
     inkscape:connector-curvature="0" />
  <path
     style="fill:#ffffff;stroke-width:0.00390625"
     d="m 84.708406,50.977815 c 0.324743,-0.221759 0.798883,-0.575293 1.170159,-0.872507 0.520808,-0.41692 0.98995,-0.87223 1.376905,-1.336311 0.696951,-0.835863 1.172729,-1.731476 1.4557,-2.740234 0.03623,-0.129166 0.09181,-0.358757 0.116545,-0.481446 l 0.0045,-0.02246 h 1.239958 1.239957 v 2.742188 2.742187 h -3.324879 -3.32488 z"
     id="path191"
     inkscape:connector-curvature="0" />
  <path
     style="fill:#ffffff;stroke-width:0.00390625"
     d="m 81.128565,50.595286 c -0.164019,-0.0076 -0.45851,-0.04985 -0.889641,-0.127706 l -0.083,-0.01499 -8e-6,-2.463867 -8e-6,-2.463868 h 3.689453 c 2.907365,0 3.689454,10e-4 3.689454,0.0048 0,0.0086 -0.06588,0.215795 -0.103177,0.324539 -0.163055,0.475362 -0.359293,0.899413 -0.595986,1.287867 -0.359297,0.58967 -0.817341,1.109463 -1.421931,1.613623 -0.331394,0.276345 -0.733846,0.566566 -1.167969,0.842259 -1.090326,0.692422 -1.767628,0.946262 -2.650391,0.993318 -0.102055,0.0054 -0.383701,0.0079 -0.466796,0.004 z"
     id="path193"
     inkscape:connector-curvature="0" />
  <path
     style="fill:#ffffff;stroke-width:0.00390625"
     d="m 81.230079,44.937084 v -2.742188 h 3.606999 3.606999 l -0.02536,0.04199 c -0.05287,0.08754 -0.11686,0.227414 -0.172905,0.37793 -0.146282,0.392863 -0.28791,0.9522 -0.418285,1.651954 -0.01725,0.0926 -0.04105,0.217577 -0.05288,0.277734 -0.256266,1.303056 -0.644425,2.249579 -1.258702,3.069336 l -0.04903,0.06543 h -2.61842 -2.618419 z"
     id="path195"
     inkscape:connector-curvature="0" />
  <path
     style="fill:#ffffff;stroke-width:0.00390625"
     d="m 81.796485,43.546459 v -2.742188 h 5.578125 5.578125 v 2.742188 2.742187 h -2.159663 -2.159663 l 0.01737,-0.05566 c 0.175864,-0.563488 0.287116,-1.182144 0.327169,-1.819336 0.01316,-0.20932 0.01569,-0.307591 0.01558,-0.603515 -1.13e-4,-0.292219 -0.0031,-0.413958 -0.01552,-0.632813 -0.03214,-0.566177 -0.111082,-0.945434 -0.225341,-1.082572 -0.03629,-0.04355 -0.06266,-0.05789 -0.10665,-0.05799 -0.02784,-6e-5 -0.03435,0.0014 -0.05841,0.01326 -0.03263,0.01607 -0.08269,0.06272 -0.117286,0.109326 -0.170677,0.229899 -0.356956,0.770901 -0.523343,1.51992 -0.04326,0.194747 -0.07561,0.354483 -0.123371,0.609105 -0.05212,0.277885 -0.07339,0.383945 -0.11171,0.556911 -0.116848,0.527474 -0.265126,1.01051 -0.44157,1.438476 -0.0016,0.0039 -0.552873,0.0049 -2.737924,0.0049 h -2.73591 z"
     id="path197"
     inkscape:connector-curvature="0" />
  <path
     style="fill:#ffffff;stroke-width:0.00390625"
     d="m 89.73191,42.542951 v -2.742188 h 2.830078 c 2.692694,0 2.83008,3.32e-4 2.830117,0.0068 3.9e-5,0.0038 0.0018,0.03144 0.0039,0.06152 0.05334,0.762105 0.110261,1.970014 0.138598,2.941406 0.02103,0.721036 0.0289,1.18975 0.03203,1.909179 l 0.0025,0.56543 H 92.650485 89.73191 Z"
     id="path199"
     inkscape:connector-curvature="0" />
  <path
     style="fill:#ffffff;stroke-width:0.015625"
     d="m 85.082584,50.718548 c 0.0082,-0.0075 0.133609,-0.102854 0.278766,-0.211917 1.118466,-0.840356 1.818915,-1.543167 2.391397,-2.399461 0.533569,-0.798087 0.869403,-1.597126 1.077016,-2.5625 0.102579,-0.476979 0.150439,-0.935608 0.161467,-1.547303 0.01945,-1.079072 -0.0837,-1.797742 -0.278649,-1.941353 -0.207761,-0.153049 -0.504756,0.464125 -0.753964,1.566781 -0.03011,0.133203 -0.09434,0.446094 -0.142741,0.695313 -0.211692,1.089984 -0.404559,1.709445 -0.741873,2.382789 -0.578192,1.154181 -1.47006,2.049219 -2.976575,2.987151 -1.107816,0.689708 -1.860442,0.925283 -2.873047,0.899274 -0.253127,-0.0065 -0.370827,-0.0176 -0.603515,-0.05691 -1.307652,-0.2209 -4.145777,-0.845845 -7.745566,-1.705543 -0.285452,-0.06817 -0.522757,-0.123949 -0.527344,-0.123949 -0.0046,0 -0.0083,-4.478906 -0.0083,-9.953125 V 28.79467 h 9.835341 9.83534 l 0.108237,0.183594 c 0.840477,1.425628 1.502207,2.804308 2.049007,4.268996 0.227987,0.6107 0.563347,1.658623 0.679728,2.123999 0.40325,1.612476 0.710797,5.754058 0.710792,9.571849 -2e-6,1.72369 -0.04674,2.835398 -0.156069,3.712006 -0.07386,0.592256 -0.23214,1.195663 -0.531506,2.026275 l -0.0183,0.05078 h -4.89222 c -2.782606,0 -4.885821,-0.0059 -4.877379,-0.01362 z"
     id="path201"
     inkscape:connector-curvature="0" />
  <path
     style="fill:#ffffff;stroke-width:0.00390625"
     d="m 84.336387,28.560311 v -2.742187 l 2.821289,2.15e-4 2.821289,2.16e-4 0.02135,0.0281 c 1.20876,1.591411 2.126534,3.02797 2.933481,4.591677 0.12453,0.241316 0.408946,0.820981 0.42017,0.856344 0.0025,0.0078 0.0018,0.0078 -4.507547,0.0078 H 84.33639 Z"
     id="path203"
     inkscape:connector-curvature="0" />
  <path
     style="fill:#ffffff;stroke-width:0.00390625"
     d="m 78.842819,22.734469 v -2.742187 l 2.895508,5.4e-5 2.895508,5.5e-5 0.117188,0.109963 c 0.562968,0.528263 1.157658,1.113979 1.746359,1.720006 1.08404,1.115943 2.035643,2.185138 2.906466,3.265625 0.135284,0.167855 0.306159,0.383604 0.306159,0.386559 0,0.0012 -2.445117,0.0021 -5.433594,0.0021 h -5.433594 z"
     id="path205"
     inkscape:connector-curvature="0" />
  <path
     style="fill:#ffffff;stroke-width:0.01104854"
     d="M 65.525631,22.941667 V 15.18559 h 6.490706 6.490706 l 0.367678,0.246594 c 1.84242,1.235677 3.670767,2.662761 5.240084,4.090052 0.837667,0.761856 1.377996,1.28158 2.165515,2.082933 2.765182,2.813756 4.802353,5.456414 6.295838,8.167087 0.152322,0.276462 0.482443,0.904589 0.482443,0.91795 0,0.0041 -6.194918,0.0075 -13.766485,0.0075 H 65.525631 Z"
     id="path207"
     inkscape:connector-curvature="0" />
  <path
     style="fill:#ffffff;stroke-width:0.00390625"
     d="M 70.867487,15.228008 V 12.48582 h 1.483038 1.483037 l 0.150752,0.07673 c 2.605864,1.326404 5.032537,2.853488 7.295282,4.590859 0.208972,0.160452 0.40845,0.316561 0.676758,0.529624 l 0.06348,0.05041 v 0.118376 0.118376 H 76.443662 70.86749 Z"
     id="path209"
     inkscape:connector-curvature="0" />
  <path
     style="fill:#ffffff;stroke-width:0.0078125"
     d="M 58.063781,12.566749 V 7.3712875 l 0.01758,0.00391 c 0.0097,0.00215 0.138867,0.023491 0.287109,0.047422 1.37219,0.2215083 2.589087,0.4658329 3.636719,0.7301687 2.291802,0.5782622 4.508049,1.267209 6.601562,2.0521748 4.235401,1.58807 8.079738,3.618782 11.477705,6.062922 0.106794,0.07682 0.216049,0.155304 0.24279,0.174416 l 0.04862,0.03475 2.11e-4,0.642578 2.11e-4,0.642578 h -11.15625 -11.15625 v -5.195461 z"
     id="path211"
     inkscape:connector-curvature="0" />
  <path
     style="fill:#ffffff;stroke-width:0.0078125"
     d="M 50.813781,10.800794 V 6.4800028 l 0.0332,0.00451 c 0.01826,0.00248 0.108789,0.011587 0.201171,0.020231 1.450576,0.1357304 3.25786,0.3403307 4.695313,0.5315505 2.607199,0.3468273 4.627104,0.705412 6.203125,1.1012131 3.158641,0.7932596 6.19976,1.8077293 8.9566,2.9877816 0.733434,0.313943 1.355925,0.596624 2.123478,0.964297 l 0.09961,0.04772 v 1.49214 1.492139 h -11.15625 -11.15625 z"
     id="path213"
     inkscape:connector-curvature="0" />
  <path
     style="fill:#ffffff;stroke-width:0.01104854"
     d="M 24.226632,12.670802 V 8.9769097 l 0.306597,-0.1502454 c 2.587047,-1.267761 5.275779,-2.1198493 8.233927,-2.6094206 1.185992,-0.1962806 2.149363,-0.2893217 3.49134,-0.3371887 0.173186,-0.00618 0.374546,-0.013808 0.447466,-0.016957 0.07292,-0.00315 0.510689,-0.010861 0.972819,-0.017139 1.099009,-0.014928 2.527421,0.00151 3.88854,0.044747 1.374524,0.043664 2.952218,0.118792 4.303408,0.2049243 3.340257,0.2129264 6.527098,0.5111148 9.388599,0.8784785 0.281102,0.036088 0.513535,0.065615 0.516519,0.065615 0.003,0 0.0054,2.0981184 0.0054,4.6624852 v 4.662485 h -15.77732 -15.77732 z"
     id="path215"
     inkscape:connector-curvature="0" />
  <path
     style="fill:#ffffff;stroke-width:0.00390625"
     d="m 15.972662,15.937341 c 0,-0.0025 0.01377,-0.0208 0.150076,-0.198989 0.629542,-0.822973 1.211174,-1.517199 1.765624,-2.107422 0.107169,-0.114083 0.527711,-0.535849 0.658519,-0.660435 0.952771,-0.907454 1.946098,-1.703739 3.06862,-2.459911 l 0.08229,-0.05543 h 1.721419 1.721419 v 2.742188 2.742187 h -4.583984 c -2.521192,0 -4.583985,-9.83e-4 -4.583985,-0.0022 z"
     id="path217"
     inkscape:connector-curvature="0" />
  <path
     style="fill:#ffffff;stroke-width:0.015625"
     d="m 11.499177,22.862187 c 1.809152,-3.226705 3.976699,-6.438847 5.722604,-8.480468 0.36185,-0.42314 0.5965,-0.675962 1.023318,-1.102569 1.230725,-1.230118 2.521893,-2.248223 4.094969,-3.228941 3.073558,-1.9161792 6.698767,-3.2379282 10.570519,-3.854006 1.198011,-0.1906287 1.947195,-0.2597923 3.499793,-0.3230958 0.655435,-0.026724 2.736813,-0.036031 3.710938,-0.016594 1.150508,0.022956 2.626819,0.071128 3.230469,0.1054086 l 0.175781,0.00998 v 8.5994392 8.599438 H 27.426862 11.326154 Z"
     id="path219"
     inkscape:connector-curvature="0" />
  <path
     style="fill:#ffffff;stroke-width:0.00552427"
     d="m 8.6845576,28.770277 c 0,-0.01944 0.2987772,-0.77976 0.4419819,-1.124745 C 9.901108,25.779565 11.03117,23.588918 12.422973,21.25533 l 0.140853,-0.236162 h 2.833337 2.833336 v 3.878038 3.878039 h -4.772971 c -2.822437,0 -4.7729704,-0.002 -4.7729704,-0.005 z"
     id="path221"
     inkscape:connector-curvature="0" />
  <path
     style="fill:#ffffff;stroke-width:0.00390625"
     d="m 6.9231337,34.754903 c 0.016272,-0.07767 0.12367,-0.535499 0.183955,-0.78418 0.3925083,-1.61913 0.8633816,-3.21772 1.3490872,-4.580078 l 0.037602,-0.105469 2.1726431,-9.8e-4 2.172643,-9.8e-4 v 2.742191 2.742191 H 9.8797688 6.9204741 Z"
     id="path223"
     inkscape:connector-curvature="0" />
  <path
     style="fill:#ffffff;stroke-width:0.00390625"
     d="m 7.5109994,32.411003 c 0,-0.0096 0.1492953,-0.534475 0.2304945,-0.810294 0.4889138,-1.66075 1.0576122,-3.237843 1.6536857,-4.585937 l 0.037135,-0.08399 1.8205924,-9.8e-4 1.820592,-9.81e-4 v 2.742191 2.742192 h -2.78125 c -1.5296867,0 -2.7812492,-9.92e-4 -2.7812492,-0.0022 z"
     id="path225"
     inkscape:connector-curvature="0" />
  <path
     style="fill:#ffffff;stroke-width:0.00390625"
     d="m 8.1967928,63.063469 c -0.012806,-0.02416 -0.2814374,-0.589116 -0.4174506,-0.87793 -0.9064135,-1.9247 -1.4012423,-3.142363 -1.729361,-4.255571 -0.024822,-0.08422 -0.095934,-0.337701 -0.095934,-0.341969 0,-0.0011 1.6189453,-0.0021 3.5976563,-0.0021 h 3.5976555 v 2.742188 2.742187 h -2.474471 c -2.3526559,0 -2.4746505,-3.36e-4 -2.4780949,-0.0068 z"
     id="path227"
     inkscape:connector-curvature="0" />
  <path
     style="fill:#ffffff;stroke-width:0.00390625"
     d="M 6.7142965,59.794802 C 6.1169992,58.333615 5.7923844,57.183209 5.6087784,55.876946 5.554528,55.490982 5.5080892,55.057373 5.4757421,54.634758 c -0.00543,-0.0709 -0.010857,-0.139014 -0.012069,-0.151367 l -0.0022,-0.02246 h 3.8439439 3.843944 v 2.742188 2.742187 H 9.9625891 6.7758186 Z"
     id="path229"
     inkscape:connector-curvature="0" />
  <path
     style="fill:#ffffff;stroke-width:0.00390625"
     d="m 5.5009219,54.943241 c 0,-0.0011 -0.00613,-0.07452 -0.013615,-0.163086 -0.053314,-0.630527 -0.092107,-1.386907 -0.1210528,-2.360241 -0.031496,-1.059089 -0.052612,-2.1706 -0.052782,-2.77832 l -5.05e-5,-0.180664 h 3.9179688 3.9179686 v 2.742188 2.742187 H 9.3251407 c -2.1033204,0 -3.8242188,-9.29e-4 -3.8242188,-0.0021 z"
     id="path231"
     inkscape:connector-curvature="0" />
  <path
     style="fill:#ffffff;stroke-width:0.00390625"
     d="m 5.3187273,48.743157 c 0.010632,-1.053557 0.054227,-2.273985 0.119825,-3.354493 0.03594,-0.591986 0.093712,-1.384162 0.1308332,-1.794009 0.00317,-0.03495 0.00576,-0.06527 0.00576,-0.06738 0,-0.0025 1.3071338,-0.0038 3.7871093,-0.0038 h 3.7871092 v 2.742188 2.742187 H 9.2327078 5.3160566 Z"
     id="path233"
     inkscape:connector-curvature="0" />
  <path
     style="fill:#ffffff;stroke-width:0.00390625"
     d="m 5.3969275,46.147453 c 0.00139,-0.02632 0.00781,-0.148925 0.014255,-0.27246 0.067189,-1.287341 0.1799713,-2.669978 0.3243718,-3.976563 0.038029,-0.344098 0.1009043,-0.874746 0.1307198,-1.103232 0.00531,-0.04066 0.00965,-0.07626 0.00965,-0.0791 0,-0.0043 0.6233436,-0.0052 3.6367188,-0.0052 h 3.6367181 v 2.742188 2.742187 H 9.2718773 5.3943951 Z"
     id="path235"
     inkscape:connector-curvature="0" />
  <path
     style="fill:#ffffff;stroke-width:0.00390625"
     d="m 5.7451373,41.809563 c 0.00101,-0.0059 0.00458,-0.03623 0.00793,-0.06738 0.00336,-0.03115 0.016611,-0.147168 0.029457,-0.257812 0.195617,-1.685002 0.4598266,-3.388592 0.777267,-5.011719 0.012815,-0.06553 0.024181,-0.123096 0.025257,-0.12793 l 0.00196,-0.0088 h 3.2811758 3.2811749 v 2.742188 2.742187 H 9.4463321 5.7433047 Z"
     id="path237"
     inkscape:connector-curvature="0" />
  <path
     style="fill:#ffffff;stroke-width:0.00390625"
     d="m 6.2176366,38.374016 c 0.00111,-0.0048 0.016154,-0.09404 0.03343,-0.198242 0.2202592,-1.328522 0.503898,-2.733167 0.8144211,-4.033203 0.078216,-0.327461 0.2744721,-1.107381 0.3081555,-1.22461 l 0.00505,-0.01758 2.8853338,-9.79e-4 2.885332,-9.79e-4 v 2.74219 2.74219 H 9.6824881 6.2156168 Z"
     id="path239"
     inkscape:connector-curvature="0" />
  <path
     style="fill:#ffffff;stroke-width:0.00552427"
     d="m 25.291413,45.749428 c -0.389421,-0.46826 -0.688432,-0.997108 -0.869096,-1.537129 -0.148877,-0.445004 -0.228404,-0.88326 -0.26114,-1.439073 -0.01394,-0.236644 -0.0071,-0.865891 0.0123,-1.138 0.05826,-0.815714 0.255561,-1.176669 0.728888,-1.333482 0.178706,-0.05921 0.363086,-0.08468 0.651864,-0.09007 0.41458,-0.0077 0.944014,0.03967 1.867204,0.167196 1.338356,0.184875 2.170804,0.378511 2.821163,0.656231 0.592587,0.253051 1.084188,0.600746 1.550645,1.096727 0.23858,0.253681 0.402393,0.451145 0.710824,0.856846 0.301346,0.396381 0.511928,0.640233 0.811319,0.939498 0.182598,0.182522 0.28546,0.278032 0.43438,0.403335 0.364823,0.306965 0.756632,0.557137 1.146008,0.731734 l 0.06353,0.02849 0.0014,0.348876 0.0014,0.348876 h -4.81871 -4.818711 z"
     id="path241"
     inkscape:connector-curvature="0" />
  <path
     style="fill:#ffffff;stroke-width:0.00552427"
     d="m 19.190263,41.91144 v -3.878039 h 7.885898 7.885897 v 1.38287 1.38287 l -0.493041,-0.104026 c -7.034613,-1.484232 -9.849746,-2.022216 -11.295754,-2.158666 -0.821427,-0.07751 -1.19518,-0.01657 -1.213675,0.197908 -0.01214,0.140783 0.112291,0.336924 0.464752,0.732593 0.182334,0.204686 0.258405,0.317906 0.334807,0.498309 0.01442,0.03404 0.03146,0.06856 0.03786,0.0767 0.0065,0.0082 0.01165,0.02286 0.01165,0.03296 0,0.01 0.0088,0.0488 0.01965,0.08626 0.119856,0.415477 0.152141,0.997049 0.11326,2.040279 -0.01773,0.475641 -0.0241,0.791922 -0.02019,1.002656 0.01882,1.015535 0.160139,1.463002 0.771155,2.441728 0.04458,0.0714 0.08285,0.132928 0.08505,0.136725 0.0032,0.0055 -0.456678,0.0069 -2.291658,0.0069 h -2.295661 z"
     id="path243"
     inkscape:connector-curvature="0" />
  <path
     style="fill:#ffffff;stroke-width:0.00390625"
     d="m 25.294485,49.641491 c 0,-1.314228 0.0014,-2.107422 0.0037,-2.107422 0.002,0 0.0047,0.0017 0.006,0.0038 0.0013,0.0021 0.03349,0.03077 0.07152,0.06369 1.12057,0.969994 2.519913,1.739835 3.992979,2.196716 0.189047,0.05863 0.439848,0.128907 0.585305,0.163999 0.167192,0.04034 0.433785,0.06313 0.98696,0.08439 0.162631,0.0062 0.736242,0.0061 1.083985,-3.42e-4 1.135149,-0.02093 1.64899,-0.03552 1.884765,-0.05352 0.404295,-0.03087 0.873464,-0.09009 1.269532,-0.160249 0.402733,-0.07134 0.888371,-0.183929 1.225586,-0.284137 l 0.0459,-0.01364 v 1.107053 1.107052 H 30.87261 25.294485 v -2.107422 z"
     id="path245"
     inkscape:connector-curvature="0" />
  <path
     style="fill:#ffffff;stroke-width:0.00390625"
     d="m 32.083548,48.805134 c -1.858527,-0.02875 -3.224117,-0.377611 -4.529297,-1.157085 -0.561989,-0.335629 -1.167705,-0.795762 -1.669922,-1.26856 -0.04619,-0.04348 -0.09182,-0.08714 -0.101399,-0.09701 l -0.01741,-0.01794 h 5.34261 5.34261 v 1.001201 1.001201 l -0.124023,0.04163 c -0.65574,0.220106 -1.256734,0.335205 -2.145508,0.410895 -0.420758,0.03583 -0.999471,0.06827 -1.427735,0.08003 -0.152986,0.0042 -0.547869,0.0075 -0.669921,0.0056 z"
     id="path247"
     inkscape:connector-curvature="0" />
  <path
     style="fill:#ffffff;stroke-width:0.0078125"
     d="m 31.882209,48.800054 c -0.693463,-0.02571 -1.194094,-0.07534 -1.695313,-0.168063 -1.028108,-0.19019 -1.907121,-0.530227 -2.779296,-1.075143 l -0.13086,-0.08176 v -2.956291 -2.956291 h 1.943508 1.943509 l 0.08969,0.07133 c 0.392503,0.312149 0.739937,0.686211 1.210864,1.303668 0.431019,0.565131 0.749782,0.918512 1.156174,1.281736 0.701064,0.626596 1.510508,1.035057 2.257813,1.139336 0.38066,0.05312 0.956041,0.06901 1.28125,0.03539 0.48574,-0.05022 1.102779,-0.208017 1.680197,-0.429694 0.348977,-0.133977 0.603561,-0.248616 1.183084,-0.532744 0.425304,-0.208517 0.631574,-0.304025 0.90625,-0.419613 0.501158,-0.210897 0.92963,-0.348887 1.265625,-0.407596 0.109699,-0.01917 0.145082,-0.02187 0.289062,-0.02206 0.146927,-1.99e-4 0.170865,0.0016 0.229193,0.01758 0.208661,0.05705 0.313849,0.189933 0.316762,0.400162 0.0015,0.106868 -0.03222,0.196559 -0.126245,0.335937 -0.400552,0.593787 -1.763618,1.572793 -3.548616,2.548752 -0.721689,0.394588 -1.652539,0.858415 -2.214844,1.103617 -1.025891,0.447359 -1.759118,0.627881 -2.964843,0.729953 -0.310331,0.02627 -0.648166,0.04731 -1.140625,0.07102 -0.165,0.0079 -1.014445,0.01588 -1.152344,0.01077 z"
     id="path249"
     inkscape:connector-curvature="0" />
  <path
     style="fill:#ffffff;stroke-width:0.0078125"
     d="m 27.27674,50.722706 v -1.808551 l 0.0957,0.05139 c 0.147895,0.07942 0.54859,0.275582 0.706602,0.34592 0.607471,0.270415 1.201645,0.478872 1.814908,0.636734 0.220377,0.05673 0.493457,0.08138 1.107854,0.10002 0.248694,0.0075 0.445001,0.0075 0.933594,-8.6e-5 1.228228,-0.01913 1.80355,-0.03746 2.138214,-0.06811 1.498864,-0.137251 2.791056,-0.486094 4.210938,-1.136796 0.220794,-0.101185 0.799193,-0.390273 1.03125,-0.515425 0.75606,-0.407757 1.594975,-0.916798 2.527343,-1.533554 0.146094,-0.09664 0.348243,-0.230131 0.449219,-0.296645 1.425331,-0.938883 2.881342,-1.683875 3.796875,-1.942736 0.06231,-0.01762 0.222266,-0.05684 0.355469,-0.08716 0.919152,-0.209217 1.413906,-0.367849 1.890414,-0.606118 0.364939,-0.182481 0.699278,-0.403223 1.111466,-0.733829 0.06549,-0.05253 0.122617,-0.09769 0.126954,-0.100375 0.0053,-0.0033 0.0079,1.552802 0.0079,4.749494 v 4.754368 H 38.429084 27.27674 Z"
     id="path251"
     inkscape:connector-curvature="0" />
  <path
     style="fill:#ffffff;stroke-width:0.0078125"
     d="m 45.975959,42.909428 c -0.01719,-0.0017 -0.08926,-0.0086 -0.160156,-0.01533 -0.746947,-0.07089 -2.484953,-0.362784 -4.351563,-0.730839 -0.840291,-0.165687 -1.185384,-0.237504 -3.375,-0.70237 -0.968945,-0.205711 -2.053515,-0.435596 -2.410156,-0.510855 -1.587123,-0.334915 -2.230356,-0.470392 -2.607389,-0.549164 l -0.404263,-0.08446 -3.3e-5,-1.31836 -3.4e-5,-1.318359 h 9.379753 9.379753 l -0.0044,0.01758 c -0.0024,0.0097 -0.01361,0.06152 -0.02489,0.115235 -0.215746,1.027862 -0.757425,2.11892 -1.491354,3.003906 -0.196613,0.237079 -0.473128,0.527092 -0.692001,0.725779 -0.856113,0.777157 -1.790355,1.243299 -2.710937,1.35263 -0.09917,0.01178 -0.456054,0.02166 -0.527344,0.0146 z"
     id="path253"
     inkscape:connector-curvature="0" />
  <path
     style="fill:#ffffff;stroke-width:0.00390625"
     d="m 47.032484,44.325578 c 8.95e-4,-8.16e-4 0.03887,-0.01138 0.0844,-0.02348 1.048352,-0.278592 1.650269,-0.599925 2.561761,-1.367593 0.169909,-0.1431 0.460253,-0.398036 0.658203,-0.577933 0.556409,-0.505668 1.052829,-1.086983 1.469597,-1.720919 0.37204,-0.565901 0.683276,-1.18444 0.878107,-1.745117 l 0.01663,-0.04785 h 1.323694 1.323694 v 2.742188 2.742187 h -4.15886 c -2.287369,0 -4.158121,-6.67e-4 -4.157226,-0.0015 z"
     id="path255"
     inkscape:connector-curvature="0" />
  <path
     style="fill:#ffffff;stroke-width:0.00390625"
     d="M 45.836846,36.850501 V 34.10831 h 5.578125 5.578125 v 2.742188 2.742187 H 54.69385 c -1.837892,0 -2.298833,-9.79e-4 -2.297185,-0.0049 0.0011,-0.0027 0.01911,-0.0418 0.03996,-0.08691 0.348591,-0.754575 0.54781,-1.524436 0.567899,-2.194582 0.01184,-0.395008 -0.0362,-0.746183 -0.146163,-1.068483 -0.107721,-0.315728 -0.251098,-0.504936 -0.418219,-0.551906 -0.05913,-0.01662 -0.135457,-0.01109 -0.199285,0.01445 -0.307415,0.122986 -0.588098,0.690063 -0.729752,1.474351 -0.0076,0.04189 -0.02361,0.140332 -0.03565,0.21875 -0.06396,0.416624 -0.141429,0.737768 -0.269386,1.116727 -0.109489,0.324263 -0.232096,0.613684 -0.399828,0.94382 l -0.06946,0.136718 -2.449967,9.8e-4 -2.449967,9.8e-4 z"
     id="path257"
     inkscape:connector-curvature="0" />
  <path
     style="fill:#ffffff;stroke-width:0.00390625"
     d="M 14.20828,68.175458 V 65.43327 h 2.689453 c 1.4792,0 2.689454,8.27e-4 2.689454,0.0018 0,0.001 -0.0052,0.04452 -0.0116,0.09668 -0.06349,0.519139 -0.08219,1.04488 -0.05269,1.481452 0.07085,1.048422 0.394297,1.865239 1.010897,2.552843 0.06747,0.07524 0.237533,0.244719 0.303391,0.30235 0.239363,0.209466 0.497859,0.383163 0.773437,0.519714 0.249376,0.123568 0.485245,0.20225 0.699219,0.233247 0.08037,0.01164 0.223101,0.01268 0.283194,0.0021 0.05107,-0.009 0.113811,-0.03018 0.1504,-0.0507 0.0444,-0.0249 0.09189,-0.07382 0.112635,-0.116038 0.02914,-0.05929 0.04154,-0.133609 0.03198,-0.191533 -0.02574,-0.15589 -0.224632,-0.561086 -0.509959,-1.038936 -0.10317,-0.172785 -0.172379,-0.283174 -0.309805,-0.494141 -0.142607,-0.218921 -0.237977,-0.38335 -0.328521,-0.566406 -0.297221,-0.600907 -0.453335,-1.213625 -0.488676,-1.917969 -0.01065,-0.212204 -0.0015,-0.607939 0.01828,-0.791992 l 0.0024,-0.02246 h 2.044418 2.044417 v 2.742188 2.742187 H 19.784452 14.20828 Z"
     id="path259"
     inkscape:connector-curvature="0" />
  <path
     style="fill:#ffffff;stroke-width:0.00390625"
     d="m 14.218171,73.492698 c -1.205258,-1.44988 -2.223257,-3.007763 -3.432732,-5.253244 -0.04641,-0.08617 -0.08549,-0.159555 -0.08685,-0.163086 -0.0023,-0.006 0.286338,-0.0064 3.966704,-0.0064 h 3.969168 v 2.742188 2.742187 l -2.182617,-1.01e-4 -2.182617,-1.02e-4 -0.05106,-0.06142 z"
     id="path261"
     inkscape:connector-curvature="0" />
  <path
     style="fill:#ffffff;stroke-width:0.00390625"
     d="m 11.313442,69.198156 c -0.0087,-0.0139 -0.142781,-0.253845 -0.222093,-0.397461 C 10.396808,67.543026 9.7125251,66.197922 8.6421346,63.986242 8.5776681,63.853039 8.5224378,63.73922 8.5194007,63.733312 l -0.00552,-0.01074 h 3.7012723 3.701272 v 2.742187 2.742188 h -2.298738 -2.298738 z"
     id="path263"
     inkscape:connector-curvature="0" />
  <path
     style="fill:#ffffff;stroke-width:0.00390625"
     d="M 9.5009727,65.743263 C 9.293286,65.324504 8.9019339,64.524318 8.6484315,64.000099 8.4740731,63.639541 8.3555359,63.393795 8.1962234,63.062599 7.9050221,62.457218 7.5932329,61.793198 7.3653428,61.293067 7.2520065,61.044338 7.0361004,60.560035 7.0361004,60.554537 c 0,-9.37e-4 1.6426758,-0.0017 3.6503906,-0.0017 h 3.650391 v 2.742187 2.742188 H 11.99182 9.646757 Z"
     id="path265"
     inkscape:connector-curvature="0" />
  <path
     style="fill:#ffffff;stroke-width:0.00552427"
     d="m 34.500972,84.907347 c -0.0061,-0.0014 -0.117943,-0.0249 -0.248592,-0.05218 -2.381087,-0.497268 -4.666614,-1.183959 -6.855622,-2.059784 -2.97405,-1.189922 -5.699928,-2.707653 -8.109631,-4.515329 -0.145872,-0.109429 -0.412961,-0.314031 -0.493041,-0.377692 l -0.0511,-0.04062 v -0.184818 -0.184818 h 7.88866 7.88866 v 3.709548 c 0,2.040252 -0.0019,3.70926 -0.0041,3.708908 -0.0023,-3.54e-4 -0.0091,-0.0018 -0.01519,-0.0032 z"
     id="path267"
     inkscape:connector-curvature="0" />
  <path
     style="fill:#ffffff;stroke-width:0.00390625"
     d="m 22.822036,80.59732 c -0.949809,-0.54382 -1.808149,-1.086514 -2.654297,-1.678206 -1.356396,-0.948498 -2.59972,-1.968996 -3.757812,-3.084347 -0.173281,-0.166885 -0.545106,-0.535449 -0.61414,-0.608752 l -0.0469,-0.04981 h 5.019975 5.019975 v 2.742188 2.742187 l -1.428711,-3.2e-4 -1.428711,-3.21e-4 -0.109375,-0.06262 z"
     id="path269"
     inkscape:connector-curvature="0" />
  <path
     style="fill:#ffffff;stroke-width:0.00390625"
     d="m 18.146818,77.384078 c -0.897441,-0.740654 -1.711569,-1.494835 -2.548316,-2.360675 -0.924253,-0.956389 -1.657745,-1.82345 -2.357632,-2.786958 -0.05822,-0.08016 -0.171349,-0.238343 -0.176686,-0.24707 -0.0024,-0.0039 0.871117,-0.0049 4.362478,-0.0049 h 4.365465 v 2.742188 2.742187 h -1.771286 -1.771285 z"
     id="path271"
     inkscape:connector-curvature="0" />
  <path
     style="fill:#ffffff;stroke-width:0.00390625"
     d="M 47.987437,86.559509 C 46.3147,86.539652 44.806876,86.435981 42.965953,86.214256 41.583475,86.047747 40.010585,85.819958 37.387828,85.406422 l -0.06836,-0.01078 -9.83e-4,-1.293695 -9.82e-4,-1.293695 h 5.578131 5.578131 v 1.876953 1.876953 l -0.206055,-8.85e-4 c -0.11333,-4.86e-4 -0.239453,-0.0013 -0.280274,-0.0018 z"
     id="path273"
     inkscape:connector-curvature="0" />
  <path
     style="fill:#ffffff;stroke-width:0.00390625"
     d="m 42.944661,86.212409 c -0.02363,-0.0031 -0.1625,-0.0205 -0.308594,-0.03871 -1.479488,-0.184419 -3.303439,-0.454935 -6.267578,-0.929564 -1.528017,-0.244672 -2.924723,-0.538614 -4.308594,-0.906762 -0.09346,-0.02486 -0.181347,-0.04816 -0.195312,-0.05178 l -0.02539,-0.0066 -9.84e-4,-0.977291 -9.84e-4,-0.97729 h 5.578132 5.578133 v 1.947266 c 0,1.070996 -0.0013,1.947053 -0.0029,1.946793 -0.0016,-2.61e-4 -0.02226,-0.003 -0.0459,-0.0061 z"
     id="path275"
     inkscape:connector-curvature="0" />
  <path
     style="fill:#ffffff;stroke-width:0.00390625"
     d="m 47.96449,86.559353 c -0.322747,-0.004 -0.787615,-0.01515 -1.069336,-0.02565 l -0.06934,-0.0026 v -1.712295 -1.712296 h 5.578125 5.578125 v 1.330078 c 0,0.731543 -4.97e-4,1.330078 -0.0011,1.330078 -6.07e-4,0 -0.119699,0.02973 -0.264649,0.06607 -1.946656,0.487984 -3.293502,0.63025 -6.640498,0.70143 -1.261677,0.02683 -2.300175,0.03524 -3.111328,0.02518 z"
     id="path277"
     inkscape:connector-curvature="0" />
  <path
     style="fill:#ffffff;stroke-width:0.00552427"
     d="m 52.228509,83.547028 v -2.958691 h 7.88866 7.88866 v 0.929459 0.929459 l -0.02899,0.01173 c -0.872054,0.352821 -1.597723,0.624497 -2.638388,0.987751 -1.714836,0.59858 -3.896915,1.308898 -5.522354,1.797656 -2.481034,0.746029 -3.753438,1.011593 -5.521509,1.152394 -0.521053,0.04149 -1.263173,0.08127 -1.858918,0.09964 -0.05469,0.0017 -0.123674,0.0045 -0.153298,0.0062 l -0.05386,0.0031 z"
     id="path279"
     inkscape:connector-curvature="0" />
  <path
     style="fill:#ffffff;stroke-width:0.00552427"
     d="m 57.754998,82.031689 v -3.792785 h 2.51947 2.51947 l -0.01559,0.01851 c -0.0086,0.01018 -0.05179,0.06052 -0.09604,0.111867 -0.611421,0.709519 -0.95556,1.298815 -0.936852,1.604243 0.01491,0.243399 0.161252,0.309147 0.463332,0.208162 0.42357,-0.141599 1.136516,-0.619673 2.015137,-1.351272 0.191581,-0.159524 0.470119,-0.400174 0.632529,-0.54649 l 0.04972,-0.04479 4.310313,-1.15e-4 4.310313,-1.14e-4 v 0.576829 0.57683 l -0.09253,0.06857 c -1.557141,1.153977 -3.244299,2.085889 -5.339111,2.949092 -1.202628,0.495563 -2.519899,0.971536 -4.628056,1.672268 -2.285244,0.759595 -4.215023,1.351399 -5.488364,1.683113 -0.112419,0.02929 -0.208748,0.05451 -0.214066,0.05606 -0.0092,0.0027 -0.0097,-0.180413 -0.0097,-3.789976 z"
     id="path281"
     inkscape:connector-curvature="0" />
  <path
     style="fill:#ffffff;stroke-width:0.00552427"
     d="m 58.773849,75.795153 2.73e-4,-3.219269 0.04113,0.14272 c 0.068,0.235971 0.125265,0.403653 0.166508,0.487533 0.04618,0.09392 0.128443,0.153042 0.246148,0.176895 0.03606,0.0073 0.06298,0.0086 0.128484,0.006 0.131677,-0.0051 0.188441,-0.02387 0.249447,-0.08245 0.173207,-0.166322 0.301158,-0.642115 0.349526,-1.299729 0.01207,-0.164095 0.01825,-0.40678 0.01467,-0.575909 l -0.0037,-0.172638 3.713708,0.0014 3.713708,0.0014 0.0097,0.06353 c 0.0671,0.439406 0.07404,0.848748 0.02065,1.218102 -0.09773,0.676042 -0.40196,1.320437 -0.957175,2.027408 -0.433787,0.552353 -1.022233,1.149043 -1.915008,1.941835 -0.478643,0.425039 -0.775424,0.703929 -1.135425,1.066975 -0.517546,0.521925 -0.89894,0.960432 -1.206463,1.387129 l -0.03484,0.04834 h -1.700832 -1.700831 z"
     id="path283"
     inkscape:connector-curvature="0" />
  <path
     style="fill:#ffffff;stroke-width:0.00552427"
     d="m 65.34334,77.837725 c 0.405682,-0.37921 0.940213,-0.916421 1.312504,-1.319085 0.812246,-0.878512 1.37898,-1.624859 1.648567,-2.171039 0.250965,-0.508453 0.414417,-1.19527 0.474604,-1.994262 0.03013,-0.399958 0.03016,-0.876548 7.8e-5,-1.273345 -0.02383,-0.314369 -0.07034,-0.65964 -0.121037,-0.898468 -0.0076,-0.03603 -0.01392,-0.06738 -0.01394,-0.06966 -1.6e-5,-0.0023 1.988709,-0.0041 4.419389,-0.0041 h 4.419417 v 2.839249 2.839249 l -0.100818,0.106451 c -0.235782,0.248954 -0.395646,0.413101 -0.71103,0.730078 -0.441433,0.443663 -0.776417,0.766745 -1.148455,1.107653 l -0.145579,0.133398 -5.030663,-1.28e-4 -5.030663,-1.28e-4 z"
     id="path285"
     inkscape:connector-curvature="0" />
  <path
     style="fill:#ffffff;stroke-width:0.00390625"
     d="m 63.353095,70.736152 v -2.742191 h 5.578125 5.578125 v 2.742187 2.742188 h -2.950502 -2.950501 l 0.01301,-0.05566 c 0.05785,-0.247443 0.10976,-0.56792 0.137772,-0.850586 0.03091,-0.311882 0.04092,-0.521915 0.04086,-0.857422 -5.1e-5,-0.323577 -0.0091,-0.521995 -0.03705,-0.814453 -0.07775,-0.812812 -0.273147,-1.493947 -0.532165,-1.855027 -0.100076,-0.139508 -0.215347,-0.240097 -0.320498,-0.279676 -0.02825,-0.01063 -0.101391,-0.02634 -0.155592,-0.03341 -0.04149,-0.0054 -0.135555,1.8e-4 -0.207253,0.01233 -0.223853,0.03793 -0.357931,0.162199 -0.415195,0.384816 -0.07703,0.29947 -0.03069,0.781516 0.154486,1.60691 0.0503,0.224191 0.07211,0.327878 0.09206,0.4375 0.09665,0.531285 0.108089,1.006768 0.03471,1.44336 -0.04521,0.269 -0.122999,0.532333 -0.234245,0.792968 l -0.02834,0.06641 -1.898905,9.8e-4 -1.898905,9.81e-4 z"
     id="path287"
     inkscape:connector-curvature="0" />
  <path
     style="fill:#ffffff;stroke-width:0.00390625"
     d="m 48.191524,73.211555 c 0,-1.834733 3.32e-4,-1.928025 0.0068,-1.925523 0.0038,0.0014 0.105274,0.0384 0.225586,0.08213 1.174522,0.426838 2.295382,0.793586 2.732422,0.894056 0.0333,0.0077 0.233692,0.04659 0.445313,0.08652 0.211621,0.03993 0.434863,0.08233 0.496093,0.09422 0.06123,0.01189 0.122308,0.02337 0.135728,0.0255 0.08372,0.01333 0.208306,-0.04721 0.308018,-0.149657 0.04292,-0.04409 0.08055,-0.094 0.09665,-0.128162 0.03539,-0.0751 -0.0039,-0.172394 -0.115127,-0.285354 -0.266102,-0.270163 -0.930723,-0.632914 -1.900155,-1.037107 -0.689247,-0.287374 -1.50865,-0.584074 -2.362027,-0.855273 l -0.06934,-0.02204 v -0.16777 -0.167771 h 3.010449 3.010448 l 0.248341,0.06275 c 2.080227,0.525612 3.407439,0.907239 3.674949,1.056695 0.01458,0.0081 0.03582,0.02361 0.04719,0.03435 0.11964,0.113031 0.280672,0.497911 0.39736,0.949723 0.01165,0.04512 0.03607,0.148828 0.05427,0.230469 0.141219,0.633704 0.292044,1.14347 0.373234,1.261476 0.02924,0.0425 0.0828,0.08409 0.137705,0.106932 0.04993,0.02077 0.08627,0.02853 0.144689,0.0309 l 0.05371,0.0022 v 0.874454 0.874453 h -5.576172 -5.576172 z"
     id="path289"
     inkscape:connector-curvature="0" />
  <path
     style="fill:#ffffff;stroke-width:0.00390625"
     d="m 52.61283,72.234536 c 0,-0.0013 0.0036,-0.0073 0.0079,-0.01347 0.01456,-0.02045 0.02718,-0.05298 0.02962,-0.07639 0.0044,-0.04173 -0.01479,-0.09593 -0.05402,-0.152896 -0.02626,-0.03813 -0.105167,-0.119816 -0.161056,-0.166729 -0.527932,-0.44315 -1.972288,-1.085868 -3.798074,-1.690089 l -0.133789,-0.04428 v -0.900915 -0.900914 l 0.05566,0.01287 c 1.558227,0.36033 2.512615,0.585246 3.629021,0.855232 3.213725,0.777192 5.33575,1.348444 5.868931,1.579925 0.07526,0.03267 0.107091,0.05212 0.13668,0.08348 0.08536,0.09049 0.189569,0.308751 0.286506,0.600094 0.06398,0.192303 0.102361,0.33476 0.159951,0.59375 0.01744,0.07842 0.03492,0.155761 0.03885,0.171875 0.0039,0.01611 0.0083,0.03413 0.0096,0.04004 l 0.0024,0.01074 h -3.039137 c -1.671525,0 -3.039137,-10e-4 -3.039137,-0.0023 z"
     id="path291"
     inkscape:connector-curvature="0" />
  <path
     style="fill:#ffffff;stroke-width:0.00390625"
     d="m 59.64127,69.937312 c -0.05542,-0.05497 -0.246821,-0.149977 -0.52844,-0.26231 -1.433957,-0.571981 -5.604109,-1.782152 -9.809431,-2.846682 l -0.291853,-0.07388 5.322776,-9.78e-4 c 2.927527,-5.38e-4 5.323365,-3.89e-4 5.324084,3.3e-4 7.2e-4,7.2e-4 8.67e-4,0.720984 3.28e-4,1.600588 l -9.82e-4,1.599279 z"
     id="path293"
     inkscape:connector-curvature="0" />
  <path
     style="fill:#ffffff;stroke-width:0.00390625"
     d="m 59.953274,72.024949 c 0.01977,-0.253329 0.0219,-0.613964 0.0051,-0.874024 -0.02998,-0.46562 -0.103672,-0.825313 -0.216466,-1.05664 -0.0322,-0.06605 -0.06776,-0.122918 -0.09332,-0.149255 -0.156996,-0.161774 -1.162015,-0.529487 -2.910805,-1.064995 -0.9746,-0.298438 -2.283871,-0.676895 -3.488281,-1.008319 -0.08272,-0.02276 -0.153467,-0.04232 -0.157227,-0.04346 -0.0065,-0.002 -0.0068,-0.03522 -0.0068,-0.626813 v -0.624736 h 5.578125 5.578125 v 2.742187 2.742188 h -2.145641 -2.145641 z"
     id="path295"
     inkscape:connector-curvature="0" />
  <path
     style="fill:#ffffff;stroke-width:0.00390625"
     d="m 50.630612,67.169679 c -2.134744,-0.561247 -4.568542,-1.141798 -6.162109,-1.469892 -1.391579,-0.286507 -3.050581,-0.573259 -4.6875,-0.810214 l -0.08789,-0.01272 -9.88e-4,-0.616035 -9.89e-4,-0.616036 h 5.576184 5.576184 v 1.789063 c 0,1.701426 -3.36e-4,1.789041 -0.0068,1.788638 -0.0038,-2.34e-4 -0.09648,-0.02399 -0.206055,-0.0528 z"
     id="path297"
     inkscape:connector-curvature="0" />
  <path
     style="fill:#ffffff;stroke-width:0.00390625"
     d="M 44.786862,69.115201 C 44.58255,69.075074 44.146,68.998306 43.845456,68.949653 c -1.442835,-0.23357 -2.78047,-0.366801 -3.930664,-0.391502 l -0.223633,-0.0048 v -1.069593 -1.069593 l 0.0088,0.002 c 0.0048,0.0011 0.05801,0.01088 0.118164,0.02174 1.597766,0.288513 4.531303,0.907814 7.651482,1.615308 0.365884,0.08296 0.540452,0.122781 1.131722,0.258134 0.399383,0.09143 1.564774,0.363207 2.054687,0.479172 l 0.185547,0.04392 0.001,0.147361 10e-4,0.147361 -2.995164,-4.55e-4 -2.995164,-4.55e-4 z"
     id="path299"
     inkscape:connector-curvature="0" />
  <path
     style="fill:#ffffff;stroke-width:0.00552427"
     d="m 30.755088,68.389782 c 4.25e-4,-1.01253 0.0027,-1.817171 0.0052,-1.788091 0.01782,0.215118 0.124599,0.344915 0.320861,0.390044 0.05781,0.01329 0.213241,0.01321 0.293739,-1.48e-4 0.307798,-0.05109 0.691981,-0.218118 1.135524,-0.493676 0.05584,-0.03469 0.398131,-0.259322 0.760641,-0.499174 0.36251,-0.239853 0.662398,-0.437359 0.666419,-0.438901 0.004,-0.0015 0.221065,0.02822 0.482321,0.06614 0.261255,0.03792 1.101462,0.159878 1.867126,0.27102 0.765664,0.111143 1.537543,0.223146 1.715286,0.248895 0.830746,0.120351 0.99119,0.145612 1.527461,0.240495 1.423802,0.251913 3.754399,0.733621 6.470304,1.337339 l 0.526187,0.116966 v 0.834793 0.834793 l -0.125678,-0.03209 c -0.661626,-0.168941 -1.247339,-0.297777 -1.86306,-0.409808 -2.217391,-0.403456 -4.404007,-0.588649 -5.742481,-0.486352 -0.391824,0.02995 -0.71846,0.0918 -0.908742,0.172081 -0.116723,0.04925 -0.207625,0.122207 -0.23118,0.18555 -0.02294,0.0617 -0.01045,0.136636 0.03394,0.203509 0.03143,0.04736 0.08042,0.09815 0.10817,0.112153 0.252584,0.127494 1.900136,0.380556 3.81519,0.586009 0.792824,0.08506 1.332653,0.153422 1.922446,0.243461 0.199955,0.03053 0.664119,0.107719 0.792733,0.131836 l 0.06905,0.01295 -6.821095,5.87e-4 -6.821094,5.88e-4 z"
     id="path301"
     inkscape:connector-curvature="0" />
  <path
     style="fill:#ffffff;stroke-width:0.00552427"
     d="m 30.754754,64.503457 -4.39e-4,-2.028789 h 7.885898 7.885898 v 1.839955 c 0,1.749754 -4.75e-4,1.839813 -0.0097,1.837069 -0.02152,-0.0064 -0.506606,-0.117037 -0.896313,-0.204386 -1.675265,-0.375496 -3.436188,-0.699172 -5.411024,-0.994604 -2.154558,-0.322318 -4.025509,-0.532194 -5.399976,-0.605748 -0.166714,-0.0089 -1.295685,-0.01328 -1.437625,-0.0055 -0.768254,0.04184 -1.099354,0.182194 -1.535475,0.650882 -0.490905,0.527562 -1.023007,1.274221 -1.073537,1.506415 -0.0061,0.02803 -0.0074,-0.299769 -0.0077,-1.995247 z"
     id="path303"
     inkscape:connector-curvature="0" />
  <path
     style="fill:#ffffff;stroke-width:0.00552427"
     d="m 26.05316,67.330503 v -3.878039 h 7.88866 7.88866 v 0.87836 c 0,0.483097 -0.0014,0.878359 -0.003,0.878359 -0.0017,0 -0.09923,-0.01605 -0.216828,-0.03567 -0.93725,-0.156363 -2.085425,-0.326624 -3.072619,-0.455636 -1.621863,-0.211954 -3.11309,-0.354848 -3.923099,-0.375925 -0.267432,-0.007 -1.128224,-0.007 -1.253144,-7.7e-5 -0.756242,0.04198 -1.09186,0.18452 -1.521399,0.646159 -0.471184,0.506395 -0.978284,1.2081 -1.070044,1.480683 -0.02244,0.06667 -0.01092,0.198017 0.02546,0.290096 0.04626,0.117106 0.134614,0.192519 0.266654,0.22759 0.04845,0.01287 0.06374,0.01428 0.155916,0.01436 0.111266,9.5e-5 0.162483,-0.0063 0.280115,-0.03519 0.293994,-0.0721 0.664496,-0.247016 1.071319,-0.505765 0.04903,-0.03118 0.358523,-0.234948 0.687772,-0.452813 0.329248,-0.217865 0.617754,-0.408349 0.641124,-0.423298 l 0.04249,-0.02718 0.230961,0.03343 c 0.127029,0.01839 0.385089,0.05573 0.573466,0.08299 0.188378,0.02726 0.80613,0.116887 1.372782,0.199181 0.566652,0.08229 1.175703,0.170698 1.353446,0.196453 1.406406,0.203786 1.547964,0.225823 2.179325,0.339259 0.490241,0.08808 0.829303,0.152975 1.592372,0.304769 l 0.586954,0.11676 v 0.926213 0.926213 l -0.06767,-0.0069 c -0.533586,-0.05442 -1.135498,-0.09512 -1.664151,-0.11253 -0.22875,-0.0075 -0.771735,-0.0075 -0.955735,-1.1e-5 -0.875906,0.03585 -1.381857,0.16146 -1.483716,0.368363 -0.01085,0.02204 -0.01316,0.03536 -0.01325,0.07641 -10e-5,0.04587 0.0014,0.05293 0.01981,0.09115 0.0423,0.08798 0.09751,0.144839 0.166457,0.171427 0.339997,0.131116 1.97609,0.379056 3.735856,0.566145 0.130649,0.01389 0.243137,0.02644 0.249973,0.02788 l 0.01243,0.0026 v 0.671094 0.671093 h -7.88866 -7.88866 v -3.878038 z"
     id="path305"
     inkscape:connector-curvature="0" />
  <path
     style="fill:#ffffff;stroke-width:0.00390625"
     d="m 39.442405,71.676354 c 0,-1.680224 9.83e-4,-2.10351 0.0049,-2.103486 0.0027,1.6e-5 0.01543,0.0017 0.02832,0.0038 0.04386,0.0071 0.38999,0.0544 0.583985,0.07989 0.470595,0.06183 0.936898,0.117045 1.552734,0.183856 0.169727,0.01841 0.363086,0.03962 0.429688,0.04713 1.964442,0.221509 3.507032,0.524236 4.908203,0.963216 0.350376,0.10977 0.617911,0.201946 1.046875,0.360687 0.924705,0.342192 1.82446,0.653161 2.487305,0.859651 l 0.110351,0.03438 v 0.837198 0.837198 h -5.576172 -5.576172 z"
     id="path307"
     inkscape:connector-curvature="0" />
  <path
     style="fill:#ffffff;stroke-width:0.00390625"
     d=""
     id="path309"
     inkscape:connector-curvature="0" />
  <path
     style="fill:#ffffff;stroke-width:0.00390625"
     d="m 50.586236,70.853774 c -0.0036,-0.002 -0.06459,-0.02725 -0.135526,-0.05607 -1.57406,-0.639514 -3.581797,-1.250652 -5.262211,-1.601773 -1.012413,-0.211543 -2.29174,-0.406777 -3.378906,-0.515645 -0.800448,-0.08016 -1.43001,-0.117534 -2.053711,-0.12193 l -0.313477,-0.0022 v -0.130327 -0.130327 h 4.5463 4.546298 l 0.05819,0.01351 c 0.03201,0.0074 0.24051,0.05574 0.463342,0.107368 0.778684,0.180396 1.533485,0.357472 1.536466,0.360453 9.67e-4,9.67e-4 0.0013,0.469503 7.75e-4,1.04119 -9.2e-4,0.971949 -0.0014,1.039194 -0.0075,1.035761 z"
     id="path311"
     inkscape:connector-curvature="0" />
</svg>
