<svg version="1.1" xmlns="http://www.w3.org/2000/svg" width="32" height="32" viewBox="0 0 1024 1024">
<path d="M523.582 171.465c-272.801 0.003-493.957 133.115-493.957 342.133s221.15 338.938 493.957 338.94c215.342-0.051 405.824-67.461 470.793-224.764-71.611 100.957-238.294 124.475-410.698 124.603-243.451 0.002-320.502-83.653-320.503-240.38 0.002-156.72 77.055-240.381 320.503-240.38 164.802 0.036 326.022 13.762 401.678 108.020-72.656-147.104-256.49-208.106-461.772-208.176zM683.836 312.203c-128.276 0.023-241.746 56.553-280.442 139.704 42.659-53.371 137.679-47.156 240.38-47.22 145.014-0.001 200.309 23.042 200.309 105.886-0.002 82.849-55.301 105.892-200.309 105.891-98.173-0.013-189.939 16.429-235.001-33.392 43.278 77.762 152.787 129.21 275.065 129.247 162.506-0.002 300.47-91.256 300.47-201.742s-137.969-198.372-300.47-198.372z"></path>
</svg>
