<?xml version="1.0" encoding="UTF-8" standalone="no"?>
<!-- Created with Inkscape (http://www.inkscape.org/) -->

<svg
   xmlns:osb="http://www.openswatchbook.org/uri/2009/osb"
   xmlns:dc="http://purl.org/dc/elements/1.1/"
   xmlns:cc="http://creativecommons.org/ns#"
   xmlns:rdf="http://www.w3.org/1999/02/22-rdf-syntax-ns#"
   xmlns:svg="http://www.w3.org/2000/svg"
   xmlns="http://www.w3.org/2000/svg"
   xmlns:xlink="http://www.w3.org/1999/xlink"
   xmlns:sodipodi="http://sodipodi.sourceforge.net/DTD/sodipodi-0.dtd"
   xmlns:inkscape="http://www.inkscape.org/namespaces/inkscape"
   width="500mm"
   height="381mm"
   viewBox="0 0 500 381"
   version="1.1"
   id="svg4541"
   inkscape:version="0.92.2 (5c3e80d, 2017-08-06)"
   sodipodi:docname="logo2018.svg"
   inkscape:export-filename="C:\Users\User\Documents\logo2018large.png"
   inkscape:export-xdpi="73.440948"
   inkscape:export-ydpi="73.440948">
  <defs
     id="defs4535">
    <linearGradient
       inkscape:collect="always"
       id="linearGradient4683">
      <stop
         style="stop-color:#c80000;stop-opacity:1;"
         offset="0"
         id="stop4679" />
      <stop
         style="stop-color:#c80000;stop-opacity:0;"
         offset="1"
         id="stop4681" />
    </linearGradient>
    <linearGradient
       inkscape:collect="always"
       id="linearGradient4659">
      <stop
         style="stop-color:#c80000;stop-opacity:1;"
         offset="0"
         id="stop4655" />
      <stop
         style="stop-color:#c80000;stop-opacity:0;"
         offset="1"
         id="stop4657" />
    </linearGradient>
    <linearGradient
       inkscape:collect="always"
       id="linearGradient4651">
      <stop
         style="stop-color:#c80000;stop-opacity:1;"
         offset="0"
         id="stop4647" />
      <stop
         style="stop-color:#c80000;stop-opacity:0;"
         offset="1"
         id="stop4649" />
    </linearGradient>
    <linearGradient
       inkscape:collect="always"
       id="linearGradient4641">
      <stop
         style="stop-color:#c80000;stop-opacity:1;"
         offset="0"
         id="stop4637" />
      <stop
         style="stop-color:#c80000;stop-opacity:0;"
         offset="1"
         id="stop4639" />
    </linearGradient>
    <linearGradient
       inkscape:collect="always"
       id="linearGradient4631">
      <stop
         style="stop-color:#c80000;stop-opacity:1;"
         offset="0"
         id="stop4627" />
      <stop
         style="stop-color:#c80000;stop-opacity:0;"
         offset="1"
         id="stop4629" />
    </linearGradient>
    <linearGradient
       inkscape:collect="always"
       id="linearGradient4623">
      <stop
         style="stop-color:#c80000;stop-opacity:1;"
         offset="0"
         id="stop4619" />
      <stop
         style="stop-color:#c80000;stop-opacity:0;"
         offset="1"
         id="stop4621" />
    </linearGradient>
    <linearGradient
       osb:paint="gradient"
       id="linearGradient4591">
      <stop
         id="stop4587"
         offset="0"
         style="stop-color:#b50000;stop-opacity:1;" />
      <stop
         id="stop4589"
         offset="1"
         style="stop-color:#af0000;stop-opacity:0;" />
    </linearGradient>
    <linearGradient
       id="linearGradient4585"
       osb:paint="gradient">
      <stop
         style="stop-color:#c60000;stop-opacity:1;"
         offset="0"
         id="stop4581" />
      <stop
         style="stop-color:#960000;stop-opacity:0"
         offset="1"
         id="stop4583" />
    </linearGradient>
    <linearGradient
       inkscape:collect="always"
       id="linearGradient862">
      <stop
         style="stop-color:#640000;stop-opacity:1;"
         offset="0"
         id="stop858" />
      <stop
         style="stop-color:#640000;stop-opacity:0;"
         offset="1"
         id="stop860" />
    </linearGradient>
    <linearGradient
       osb:paint="gradient"
       id="linearGradient5494">
      <stop
         id="stop5490"
         offset="0"
         style="stop-color:#7b0000;stop-opacity:1;" />
      <stop
         id="stop5492"
         offset="1"
         style="stop-color:#af0000;stop-opacity:0" />
    </linearGradient>
    <linearGradient
       id="linearGradient5448"
       osb:paint="gradient">
      <stop
         style="stop-color:#af0000;stop-opacity:1;"
         offset="0"
         id="stop5444" />
      <stop
         style="stop-color:#af0000;stop-opacity:0;"
         offset="1"
         id="stop5446" />
    </linearGradient>
    <linearGradient
       inkscape:collect="always"
       xlink:href="#linearGradient862"
       id="linearGradient864"
       x1="254"
       y1="259.95834"
       x2="254"
       y2="233.5"
       gradientUnits="userSpaceOnUse" />
    <linearGradient
       inkscape:collect="always"
       xlink:href="#linearGradient4623"
       id="linearGradient4625"
       x1="349.25"
       y1="228.20833"
       x2="349.25"
       y2="21.833334"
       gradientUnits="userSpaceOnUse"
       gradientTransform="translate(79.500002,-47.999996)" />
    <linearGradient
       inkscape:collect="always"
       xlink:href="#linearGradient4631"
       id="linearGradient4633"
       x1="148.16667"
       y1="228.20833"
       x2="148.16667"
       y2="21.833334"
       gradientUnits="userSpaceOnUse"
       gradientTransform="translate(79.500002,-47.999996)" />
    <radialGradient
       inkscape:collect="always"
       xlink:href="#linearGradient4641"
       id="radialGradient4645"
       cx="249.72809"
       cy="156.48724"
       fx="249.72809"
       fy="156.48724"
       r="64.194496"
       gradientTransform="matrix(3.8584083,-0.03679804,0.02079077,2.1799831,-637.57833,-223.46282)"
       gradientUnits="userSpaceOnUse" />
    <linearGradient
       inkscape:collect="always"
       xlink:href="#linearGradient4651"
       id="linearGradient4653"
       x1="254"
       y1="254.66667"
       x2="254"
       y2="233.5"
       gradientUnits="userSpaceOnUse"
       gradientTransform="translate(79.500002,-47.999996)" />
    <linearGradient
       inkscape:collect="always"
       xlink:href="#linearGradient4659"
       id="linearGradient4661"
       x1="259.29166"
       y1="21.833334"
       x2="259.29166"
       y2="69.458336"
       gradientUnits="userSpaceOnUse"
       gradientTransform="translate(79.500002,-47.999996)" />
    <linearGradient
       inkscape:collect="always"
       xlink:href="#linearGradient4683"
       id="linearGradient4685"
       x1="238.125"
       y1="21.833334"
       x2="238.125"
       y2="69.458336"
       gradientUnits="userSpaceOnUse"
       gradientTransform="translate(79.500002,-47.999996)" />
  </defs>
  <sodipodi:namedview
     id="base"
     pagecolor="#ffffff"
     bordercolor="#666666"
     borderopacity="1.0"
     inkscape:pageopacity="0.0"
     inkscape:pageshadow="2"
     inkscape:zoom="0.4665165"
     inkscape:cx="524.67945"
     inkscape:cy="667.86009"
     inkscape:document-units="mm"
     inkscape:current-layer="layer1"
     showgrid="true"
     inkscape:window-width="1920"
     inkscape:window-height="1027"
     inkscape:window-x="1358"
     inkscape:window-y="-8"
     inkscape:window-maximized="1"
     fit-margin-top="10"
     fit-margin-left="0"
     fit-margin-right="0"
     fit-margin-bottom="10">
    <inkscape:grid
       type="xygrid"
       id="grid5092"
       originx="-79.528002"
       originy="0.47399931" />
  </sodipodi:namedview>
  <metadata
     id="metadata4538">
    <rdf:RDF>
      <cc:Work
         rdf:about="">
        <dc:format>image/svg+xml</dc:format>
        <dc:type
           rdf:resource="http://purl.org/dc/dcmitype/StillImage" />
        <dc:title />
      </cc:Work>
    </rdf:RDF>
  </metadata>
  <g
     inkscape:label="Layer 1"
     inkscape:groupmode="layer"
     id="layer1"
     transform="translate(-79.528,83.525993)">
    <path
       style="display:inline;opacity:1;fill:url(#radialGradient4645);fill-opacity:1;stroke:#640000;stroke-width:1;stroke-miterlimit:4;stroke-dasharray:none;stroke-dashoffset:0;stroke-opacity:1"
       d="m 330.77664,63.508084 c -36.03292,2.5e-4 -65.24308,17.58193 -65.24305,45.190016 -4e-5,27.60809 29.21013,44.76807 65.24305,44.76832 28.44324,-0.007 53.60307,-8.90999 62.1838,-29.68759 -9.45843,13.33541 -31.47444,16.44199 -54.2463,16.45843 -32.15534,1.3e-4 -42.33318,-11.04946 -42.33334,-31.75 1.6e-4,-20.700556 10.178,-31.750146 42.33334,-31.750006 21.76745,0.005 43.06205,1.81798 53.05464,14.26734 -9.59696,-19.42982 -33.87795,-27.48752 -60.99214,-27.49651 z m 21.16666,18.58905 c -16.94308,0.003 -31.93029,7.46963 -37.04166,18.452626 5.6342,-7.049072 18.18523,-6.228142 31.75,-6.236832 19.1543,-6e-5 26.45825,3.04345 26.45833,13.985712 -1.1e-4,10.94227 -7.30403,13.98628 -26.45833,13.98622 -12.96645,-0.002 -25.08757,2.17011 -31.03997,-4.41058 5.71671,10.27055 20.18024,17.06655 36.33163,17.07131 21.46411,-1.4e-4 39.68753,-12.05337 39.6875,-26.64695 0,-14.593582 -18.22341,-26.201366 -39.6875,-26.201506 z"
       id="path5192"
       inkscape:connector-curvature="0"
       inkscape:export-filename="C:\Users\User\Documents\path5245-5-1.png"
       inkscape:export-xdpi="42.760944"
       inkscape:export-ydpi="42.760944" />
    <path
       style="display:inline;opacity:1;fill:url(#linearGradient4633);fill-opacity:1;stroke:#640000;stroke-width:1;stroke-miterlimit:4;stroke-dasharray:none;stroke-dashoffset:0;stroke-opacity:1"
       d="m 312.06648,-25.546756 a 58.476264,107.5225 49.990893 0 0 -76.2523,32.44224 58.476264,107.5225 49.990893 0 0 -51.81321,63.33775 92.387199,107.24934 19.669624 0 0 -22.0187,49.078456 92.387199,107.24934 19.669624 0 0 70.47376,118.77377 92.387199,107.24934 19.669624 0 0 31.28861,-1.31427 67.377155,56.991376 1.5760614 0 1 -36.73461,-54.72513 86.978407,91.607447 65.249892 0 1 -45.53922,-92.262506 86.978407,91.607447 65.249892 0 1 13.62634,-32.23502 44.121963,81.128714 49.990893 0 1 20.13497,-18.87687 44.121963,81.128714 49.990893 0 1 28.71754,-17.10636 44.121963,81.128714 49.990893 0 1 23.73168,-23.14573 44.121963,81.128714 49.990893 0 1 52.0078,-23.9537 58.476264,107.5225 49.990893 0 0 -7.62266,-0.0126 z"
       id="path5245"
       inkscape:connector-curvature="0"
       inkscape:export-filename="C:\Users\User\Documents\path5245-5-1.png"
       inkscape:export-xdpi="42.760944"
       inkscape:export-ydpi="42.760944" />
    <path
       style="display:inline;opacity:1;fill:url(#linearGradient4625);fill-opacity:1;stroke:#640000;stroke-width:1;stroke-miterlimit:4;stroke-dasharray:none;stroke-dashoffset:0;stroke-opacity:1"
       d="m 347.12631,-25.546766 a 107.5225,58.476264 40.009107 0 1 76.25234,32.44224 107.5225,58.476264 40.009107 0 1 51.81321,63.33776 107.24934,92.3872 70.330376 0 1 22.0187,49.078456 107.24934,92.3872 70.330376 0 1 -70.47376,118.77377 107.24934,92.3872 70.330376 0 1 -31.28861,-1.31427 56.991377,67.377157 88.423939 0 0 36.73461,-54.72513 91.607447,86.978408 24.750108 0 0 45.53922,-92.262506 91.607447,86.978408 24.750108 0 0 -13.62634,-32.23503 81.128714,44.121964 40.009107 0 0 -20.13497,-18.87687 81.128714,44.121964 40.009107 0 0 -28.71754,-17.10636 81.128714,44.121964 40.009107 0 0 -23.73168,-23.14573 81.128714,44.121964 40.009107 0 0 -52.00788,-23.9537 107.5225,58.476264 40.009107 0 1 7.6227,-0.0126 z"
       id="path5245-5"
       inkscape:connector-curvature="0"
       inkscape:export-filename="C:\Users\User\Documents\path5245-5-1.png"
       inkscape:export-xdpi="42.760944"
       inkscape:export-ydpi="42.760944" />
    <path
       style="display:inline;opacity:1;fill:url(#linearGradient4685);fill-opacity:1;stroke:#640000;stroke-width:1;stroke-miterlimit:4;stroke-dasharray:none;stroke-dashoffset:0;stroke-opacity:1"
       d="m 312.06628,-25.546516 a 58.476264,107.5225 49.990893 0 0 -76.25231,32.44224 58.476264,107.5225 49.990893 0 0 -51.81321,63.33775 92.3872,107.24934 19.669624 0 0 -22.0187,49.078456 92.3872,107.24934 19.669624 0 0 70.47376,118.77378 92.3872,107.24934 19.669624 0 0 31.28861,-1.31427 67.377157,56.991377 1.5760614 0 1 -36.73461,-54.72514 86.978408,91.607447 65.249892 0 1 -45.53922,-92.262506 86.978408,91.607447 65.249892 0 1 13.62634,-32.23502 44.121964,81.128714 49.990893 0 1 20.13497,-18.87687 44.121964,81.128714 49.990893 0 1 28.71754,-17.10636 44.121964,81.128714 49.990893 0 1 23.73168,-23.14573 44.121964,81.128714 49.990893 0 1 52.0078,-23.95371 58.476264,107.5225 49.990893 0 0 -7.62265,-0.0126 z"
       id="path5245-56"
       inkscape:connector-curvature="0"
       inkscape:export-filename="C:\Users\User\Documents\path5245-5-1.png"
       inkscape:export-xdpi="42.760944"
       inkscape:export-ydpi="42.760944" />
    <g
       aria-label="CzarEc"
       style="font-style:normal;font-weight:normal;font-size:10.58333302px;line-height:1.25;font-family:sans-serif;letter-spacing:0px;word-spacing:0px;fill:url(#linearGradient4653);fill-opacity:1;stroke:#640000;stroke-width:1;stroke-miterlimit:4;stroke-dasharray:none;stroke-opacity:1"
       id="text5594">
      <path
         d="m 249.49378,187.761 q -2.82154,0 -4.82142,1.81384 -1.99987,1.81385 -1.99987,4.38733 v 8.83667 q 0,2.57349 1.98437,4.38733 1.99988,1.81385 4.83692,1.81385 h 16.13855 q 2.85254,0 4.83691,-1.81385 1.99988,-1.81384 1.98438,-4.38733 v -1.33325 h -5.7981 v 0.32556 q 0,1.00769 -0.79065,1.75183 -0.77515,0.68213 -1.93787,0.72864 h -12.7279 q -1.11621,-0.0155 -1.92237,-0.71313 -0.80615,-0.74414 -0.80615,-1.76734 v -6.82129 q 0,-1.0697 0.79065,-1.75183 0.82166,-0.74414 1.93787,-0.72864 h 12.7279 q 1.16272,-0.0465 1.93787,0.71314 0.79065,0.69763 0.79065,1.76733 v 0.35657 h 5.7981 v -1.36426 q 0.0155,-2.57348 -1.98438,-4.38733 -1.98437,-1.81384 -4.83691,-1.81384 z"
         style="font-style:normal;font-variant:normal;font-weight:normal;font-stretch:normal;font-size:31.75000381px;font-family:Plateia;-inkscape-font-specification:Plateia;fill:url(#linearGradient4653);fill-opacity:1;stroke:#640000;stroke-width:1;stroke-miterlimit:4;stroke-dasharray:none;stroke-opacity:1"
         id="path921"
         inkscape:connector-curvature="0" />
      <path
         d="m 275.89527,190.45851 v 4.51135 h 14.8053 l -15.3169,10.32495 -0.093,0.062 V 209 h 25.16126 v -4.51136 H 284.48389 L 299.8473,194.1017 v -3.64319 z"
         style="font-style:normal;font-variant:normal;font-weight:normal;font-stretch:normal;font-size:31.75000381px;font-family:Plateia;-inkscape-font-specification:Plateia;fill:url(#linearGradient4653);fill-opacity:1;stroke:#640000;stroke-width:1;stroke-miterlimit:4;stroke-dasharray:none;stroke-opacity:1"
         id="path923"
         inkscape:connector-curvature="0" />
      <path
         d="m 314.1255,190.45851 -11.79773,18.54151 h 5.92212 l 2.52697,-3.95325 h 11.89075 l 2.49597,3.95325 h 5.92212 l -11.78222,-18.54151 z m 2.60449,5.22449 3.20911,5.05395 h -6.43372 z"
         style="font-style:normal;font-variant:normal;font-weight:normal;font-stretch:normal;font-size:31.75000381px;font-family:Plateia;-inkscape-font-specification:Plateia;fill:url(#linearGradient4653);fill-opacity:1;stroke:#640000;stroke-width:1;stroke-miterlimit:4;stroke-dasharray:none;stroke-opacity:1"
         id="path925"
         inkscape:connector-curvature="0" />
      <path
         d="m 332.96156,190.45851 v 18.54151 h 5.47254 v -6.54224 h 7.82898 l 5.44153,6.54224 h 6.43371 l -5.93762,-6.68177 q 2.30994,-0.41858 3.84473,-2.03088 1.53479,-1.67432 1.53479,-3.82923 0,-2.52697 -1.93787,-4.2478 -1.90686,-1.75183 -4.66638,-1.75183 z m 5.47254,4.51135 h 12.06128 q 0.79065,-0.0155 1.20923,0.40308 0.44958,0.41858 0.44958,1.10071 0,0.68213 -0.44958,1.1007 -0.41858,0.41858 -1.20923,0.41858 -1.76734,0 -12.06128,0 z"
         style="font-style:normal;font-variant:normal;font-weight:normal;font-stretch:normal;font-size:31.75000381px;font-family:Plateia;-inkscape-font-specification:Plateia;fill:url(#linearGradient4653);fill-opacity:1;stroke:#640000;stroke-width:1;stroke-miterlimit:4;stroke-dasharray:none;stroke-opacity:1"
         id="path927"
         inkscape:connector-curvature="0" />
      <path
         d="m 360.92885,187.761 v 21.23902 h 26.23096 v -4.7284 h -20.43287 v -3.65869 h 17.70435 v -4.65088 h -17.70435 v -3.47266 h 20.43287 V 187.761 Z"
         style="font-style:normal;font-variant:normal;font-weight:normal;font-stretch:normal;font-size:31.75000381px;font-family:Plateia;-inkscape-font-specification:Plateia;fill:url(#linearGradient4653);fill-opacity:1;stroke:#640000;stroke-width:1;stroke-miterlimit:4;stroke-dasharray:none;stroke-opacity:1"
         id="path929"
         inkscape:connector-curvature="0" />
      <path
         d="m 396.02748,190.45851 q -2.48047,0 -4.29431,1.6123 -1.73633,1.61231 -1.78284,3.90674 v 7.51892 q 0,2.27894 1.76734,3.89124 1.79834,1.61231 4.30981,1.61231 h 13.70459 q 2.55799,0 4.29432,-1.59681 1.81384,-1.6278 1.78283,-3.90674 v -1.39526 h -5.47253 v 0.5271 q 0.0155,0.75964 -0.58911,1.31775 -0.57361,0.49609 -1.45728,0.5426 h -10.82105 q -0.83715,-0.0465 -1.44177,-0.5426 -0.60461,-0.55811 -0.60461,-1.31775 v -5.7981 q 0,-0.79065 0.58911,-1.31775 0.62012,-0.5581 1.45727,-0.5426 h 10.82105 q 0.85266,-0.0155 1.44177,0.5426 0.60462,0.5271 0.60462,1.31775 v 0.54261 h 5.47253 v -1.39527 q 0.0465,-2.29443 -1.76733,-3.90674 -1.76734,-1.6123 -4.30982,-1.6123 z"
         style="font-style:normal;font-variant:normal;font-weight:normal;font-stretch:normal;font-size:31.75000381px;font-family:Plateia;-inkscape-font-specification:Plateia;fill:url(#linearGradient4653);fill-opacity:1;stroke:#640000;stroke-width:1;stroke-miterlimit:4;stroke-dasharray:none;stroke-opacity:1"
         id="path931"
         inkscape:connector-curvature="0" />
    </g>
    <path
       style="display:inline;opacity:1;fill:url(#linearGradient4661);fill-opacity:1;stroke:#640000;stroke-width:1;stroke-miterlimit:4;stroke-dasharray:none;stroke-dashoffset:0;stroke-opacity:1"
       d="m 347.1266,-25.546536 a 107.5225,58.476264 40.009107 0 1 76.25234,32.44224 107.5225,58.476264 40.009107 0 1 51.81321,63.33778 107.24934,92.3872 70.330376 0 1 22.0187,49.078456 107.24934,92.3872 70.330376 0 1 -70.47376,118.77377 107.24934,92.3872 70.330376 0 1 -31.28861,-1.31427 56.991377,67.377157 88.423939 0 0 36.73461,-54.72513 91.607447,86.978408 24.750108 0 0 45.53922,-92.262506 91.607447,86.978408 24.750108 0 0 -13.62634,-32.23503 81.128714,44.121964 40.009107 0 0 -20.13497,-18.8769 81.128714,44.121964 40.009107 0 0 -28.71754,-17.10635 81.128714,44.121964 40.009107 0 0 -23.73168,-23.14573 81.128714,44.121964 40.009107 0 0 -52.00788,-23.9537 107.5225,58.476264 40.009107 0 1 7.6227,-0.0126 z"
       id="path5245-5-1"
       inkscape:connector-curvature="0"
       inkscape:export-filename="C:\Users\User\Documents\path5245-5-1.png"
       inkscape:export-xdpi="42.760944"
       inkscape:export-ydpi="42.760944" />
  </g>
</svg>
