<svg version="1.1" xmlns="http://www.w3.org/2000/svg" width="144" height="32" viewBox="0 0 144 32">
<path d="M21.936 5.358c-8.525 0-15.436 4.16-15.436 10.692s6.911 10.592 15.436 10.592c6.729-0.002 12.682-2.108 14.712-7.024-2.238 3.155-7.447 3.89-12.834 3.894-7.608 0-10.016-2.614-10.016-7.512s2.408-7.512 10.016-7.512c5.15 0.001 10.188 0.43 12.552 3.376-2.27-4.597-8.015-6.503-14.43-6.505zM26.944 9.756c-4.009 0.001-7.555 1.767-8.764 4.366 1.333-1.668 4.302-1.474 7.512-1.476 4.532-0 6.26 0.72 6.26 3.309s-1.728 3.309-6.26 3.309c-3.068-0-5.936 0.513-7.344-1.044 1.352 2.43 4.775 4.038 8.596 4.039 5.078-0 9.39-2.852 9.39-6.304s-4.312-6.199-9.39-6.199z"></path>
<path d="M44.356 8q-1.564 0-2.673 1.366t-1.109 3.305v6.657q0 1.939 1.1 3.305 1.109 1.366 2.682 1.366h8.948q1.582 0 2.682-1.366 1.109-1.366 1.1-3.305v-1.004h-3.215v0.245q0 0.759-0.438 1.32-0.43 0.514-1.075 0.549h-7.057q-0.619-0.012-1.066-0.537-0.447-0.561-0.447-1.331v-5.139q0-0.806 0.438-1.32 0.456-0.561 1.075-0.549h7.057q0.645-0.035 1.075 0.537 0.438 0.526 0.438 1.331v0.269h3.215v-1.028q0.009-1.939-1.1-3.305-1.1-1.366-2.682-1.366z"></path>
<path d="M58.995 10.032v3.399h8.209l-8.544 7.825v2.745h13.951v-3.399h-8.854l8.519-7.825v-2.745z"></path>
<path d="M80.193 10.032l-6.541 13.968h3.284l1.401-2.978h6.593l1.384 2.978h3.284l-6.533-13.968zM81.637 13.968l1.779 3.807h-3.567z"></path>
<path d="M90.637 10.032v13.968h3.034v-4.928h4.341l3.017 4.928h3.567l-3.292-5.034q1.281-0.315 2.132-1.53 0.851-1.261 0.851-2.885 0-1.904-1.075-3.2-1.057-1.32-2.587-1.32zM93.671 13.431h6.688q0.438-0.012 0.67 0.304 0.249 0.315 0.249 0.829t-0.249 0.829q-0.232 0.315-0.67 0.315-0.98 0-6.688 0z"></path>
<path d="M106.144 8v16h14.544v-3.562h-11.329v-2.756h9.817v-3.504h-9.817v-2.616h11.329v-3.562z"></path>
<path d="M125.605 10.032q-1.375 0-2.381 1.215-0.963 1.215-0.989 2.943v5.664q0 1.717 0.98 2.931 0.997 1.215 2.39 1.215h7.599q1.418 0 2.381-1.203 1.006-1.226 0.989-2.943v-1.051h-3.034v0.397q0.009 0.572-0.327 0.993-0.318 0.374-0.808 0.409h-6q-0.464-0.035-0.799-0.409-0.335-0.42-0.335-0.993v-4.368q0-0.596 0.327-0.993 0.344-0.42 0.808-0.409h6q0.473-0.012 0.799 0.409 0.335 0.397 0.335 0.993v0.409h3.034v-1.051q0.026-1.728-0.98-2.943-0.98-1.215-2.39-1.215z"></path>
</svg>
