<?xml version="1.0" encoding="UTF-8" standalone="no"?>
<!-- Created with Inkscape (http://www.inkscape.org/) -->

<svg
   xmlns:osb="http://www.openswatchbook.org/uri/2009/osb"
   xmlns:dc="http://purl.org/dc/elements/1.1/"
   xmlns:cc="http://creativecommons.org/ns#"
   xmlns:rdf="http://www.w3.org/1999/02/22-rdf-syntax-ns#"
   xmlns:svg="http://www.w3.org/2000/svg"
   xmlns="http://www.w3.org/2000/svg"
   xmlns:xlink="http://www.w3.org/1999/xlink"
   xmlns:sodipodi="http://sodipodi.sourceforge.net/DTD/sodipodi-0.dtd"
   xmlns:inkscape="http://www.inkscape.org/namespaces/inkscape"
   width="500mm"
   height="281mm"
   viewBox="0 0 500 281"
   version="1.1"
   id="svg4541"
   inkscape:version="0.92.2 (5c3e80d, 2017-08-06)"
   sodipodi:docname="logo2018.svg"
   inkscape:export-filename="C:\Users\User\logo2018.png"
   inkscape:export-xdpi="37.198601"
   inkscape:export-ydpi="37.198601">
  <defs
     id="defs4535">
    <linearGradient
       inkscape:collect="always"
       id="linearGradient4683">
      <stop
         style="stop-color:#c80000;stop-opacity:1;"
         offset="0"
         id="stop4679" />
      <stop
         style="stop-color:#c80000;stop-opacity:0;"
         offset="1"
         id="stop4681" />
    </linearGradient>
    <linearGradient
       inkscape:collect="always"
       id="linearGradient4659">
      <stop
         style="stop-color:#c80000;stop-opacity:1;"
         offset="0"
         id="stop4655" />
      <stop
         style="stop-color:#c80000;stop-opacity:0;"
         offset="1"
         id="stop4657" />
    </linearGradient>
    <linearGradient
       inkscape:collect="always"
       id="linearGradient4651">
      <stop
         style="stop-color:#c80000;stop-opacity:1;"
         offset="0"
         id="stop4647" />
      <stop
         style="stop-color:#c80000;stop-opacity:0;"
         offset="1"
         id="stop4649" />
    </linearGradient>
    <linearGradient
       inkscape:collect="always"
       id="linearGradient4641">
      <stop
         style="stop-color:#c80000;stop-opacity:1;"
         offset="0"
         id="stop4637" />
      <stop
         style="stop-color:#c80000;stop-opacity:0;"
         offset="1"
         id="stop4639" />
    </linearGradient>
    <linearGradient
       inkscape:collect="always"
       id="linearGradient4631">
      <stop
         style="stop-color:#c80000;stop-opacity:1;"
         offset="0"
         id="stop4627" />
      <stop
         style="stop-color:#c80000;stop-opacity:0;"
         offset="1"
         id="stop4629" />
    </linearGradient>
    <linearGradient
       inkscape:collect="always"
       id="linearGradient4623">
      <stop
         style="stop-color:#c80000;stop-opacity:1;"
         offset="0"
         id="stop4619" />
      <stop
         style="stop-color:#c80000;stop-opacity:0;"
         offset="1"
         id="stop4621" />
    </linearGradient>
    <linearGradient
       osb:paint="gradient"
       id="linearGradient4591">
      <stop
         id="stop4587"
         offset="0"
         style="stop-color:#b50000;stop-opacity:1;" />
      <stop
         id="stop4589"
         offset="1"
         style="stop-color:#af0000;stop-opacity:0;" />
    </linearGradient>
    <linearGradient
       id="linearGradient4585"
       osb:paint="gradient">
      <stop
         style="stop-color:#c60000;stop-opacity:1;"
         offset="0"
         id="stop4581" />
      <stop
         style="stop-color:#960000;stop-opacity:0"
         offset="1"
         id="stop4583" />
    </linearGradient>
    <linearGradient
       inkscape:collect="always"
       id="linearGradient862">
      <stop
         style="stop-color:#640000;stop-opacity:1;"
         offset="0"
         id="stop858" />
      <stop
         style="stop-color:#640000;stop-opacity:0;"
         offset="1"
         id="stop860" />
    </linearGradient>
    <linearGradient
       osb:paint="gradient"
       id="linearGradient5494">
      <stop
         id="stop5490"
         offset="0"
         style="stop-color:#7b0000;stop-opacity:1;" />
      <stop
         id="stop5492"
         offset="1"
         style="stop-color:#af0000;stop-opacity:0" />
    </linearGradient>
    <linearGradient
       id="linearGradient5448"
       osb:paint="gradient">
      <stop
         style="stop-color:#af0000;stop-opacity:1;"
         offset="0"
         id="stop5444" />
      <stop
         style="stop-color:#af0000;stop-opacity:0;"
         offset="1"
         id="stop5446" />
    </linearGradient>
    <linearGradient
       inkscape:collect="always"
       xlink:href="#linearGradient862"
       id="linearGradient864"
       x1="254"
       y1="259.95834"
       x2="254"
       y2="233.5"
       gradientUnits="userSpaceOnUse" />
    <linearGradient
       inkscape:collect="always"
       xlink:href="#linearGradient4623"
       id="linearGradient4625"
       x1="349.25"
       y1="228.20833"
       x2="349.25"
       y2="21.833334"
       gradientUnits="userSpaceOnUse" />
    <linearGradient
       inkscape:collect="always"
       xlink:href="#linearGradient4631"
       id="linearGradient4633"
       x1="148.16667"
       y1="228.20833"
       x2="148.16667"
       y2="21.833334"
       gradientUnits="userSpaceOnUse" />
    <radialGradient
       inkscape:collect="always"
       xlink:href="#linearGradient4641"
       id="radialGradient4645"
       cx="249.72809"
       cy="156.48724"
       fx="249.72809"
       fy="156.48724"
       r="64.194496"
       gradientTransform="matrix(3.8584083,-0.03679804,0.02079077,2.1799831,-717.07833,-175.46282)"
       gradientUnits="userSpaceOnUse" />
    <linearGradient
       inkscape:collect="always"
       xlink:href="#linearGradient4651"
       id="linearGradient4653"
       x1="254"
       y1="254.66667"
       x2="254"
       y2="233.5"
       gradientUnits="userSpaceOnUse" />
    <linearGradient
       inkscape:collect="always"
       xlink:href="#linearGradient4659"
       id="linearGradient4661"
       x1="259.29166"
       y1="21.833334"
       x2="259.29166"
       y2="69.458336"
       gradientUnits="userSpaceOnUse" />
    <linearGradient
       inkscape:collect="always"
       xlink:href="#linearGradient4683"
       id="linearGradient4685"
       x1="238.125"
       y1="21.833334"
       x2="238.125"
       y2="69.458336"
       gradientUnits="userSpaceOnUse" />
  </defs>
  <sodipodi:namedview
     id="base"
     pagecolor="#ffffff"
     bordercolor="#666666"
     borderopacity="1.0"
     inkscape:pageopacity="0.0"
     inkscape:pageshadow="2"
     inkscape:zoom="0.66449955"
     inkscape:cx="825.25772"
     inkscape:cy="554.78052"
     inkscape:document-units="mm"
     inkscape:current-layer="layer1"
     showgrid="true"
     inkscape:window-width="1920"
     inkscape:window-height="1027"
     inkscape:window-x="1358"
     inkscape:window-y="-8"
     inkscape:window-maximized="1">
    <inkscape:grid
       type="xygrid"
       id="grid5092" />
  </sodipodi:namedview>
  <metadata
     id="metadata4538">
    <rdf:RDF>
      <cc:Work
         rdf:about="">
        <dc:format>image/svg+xml</dc:format>
        <dc:type
           rdf:resource="http://purl.org/dc/dcmitype/StillImage" />
        <dc:title />
      </cc:Work>
    </rdf:RDF>
  </metadata>
  <g
     inkscape:label="Layer 1"
     inkscape:groupmode="layer"
     id="layer1"
     transform="translate(0,-16)">
    <path
       style="display:inline;opacity:1;fill:url(#radialGradient4645);fill-opacity:1;stroke:#640000;stroke-width:1;stroke-miterlimit:4;stroke-dasharray:none;stroke-dashoffset:0;stroke-opacity:1"
       d="m 251.27664,111.50808 c -36.03292,2.5e-4 -65.24308,17.58193 -65.24305,45.19001 -4e-5,27.60809 29.21013,44.76807 65.24305,44.76832 28.44324,-0.007 53.60307,-8.90999 62.1838,-29.68759 -9.45843,13.33541 -31.47444,16.44199 -54.2463,16.45843 -32.15534,1.3e-4 -42.33318,-11.04946 -42.33334,-31.75 1.6e-4,-20.70055 10.178,-31.75014 42.33334,-31.75 21.76745,0.005 43.06205,1.81798 53.05464,14.26734 -9.59696,-19.42982 -33.87795,-27.48752 -60.99214,-27.49651 z m 21.16666,18.58905 c -16.94308,0.003 -31.93029,7.46963 -37.04166,18.45262 5.6342,-7.04907 18.18523,-6.22814 31.75,-6.23683 19.1543,-6e-5 26.45825,3.04345 26.45833,13.98571 -1.1e-4,10.94227 -7.30403,13.98628 -26.45833,13.98622 -12.96645,-0.002 -25.08757,2.17011 -31.03997,-4.41058 5.71671,10.27055 20.18024,17.06655 36.33163,17.07131 21.46411,-1.4e-4 39.68753,-12.05337 39.6875,-26.64695 0,-14.59358 -18.22341,-26.20136 -39.6875,-26.2015 z"
       id="path5192"
       inkscape:connector-curvature="0" />
    <path
       style="display:inline;opacity:1;fill:url(#linearGradient4633);fill-opacity:1;stroke:#640000;stroke-width:1;stroke-miterlimit:4;stroke-dasharray:none;stroke-dashoffset:0;stroke-opacity:1"
       d="m 232.56648,22.45324 a 58.476264,107.5225 49.990893 0 0 -76.2523,32.442238 58.476264,107.5225 49.990893 0 0 -51.81321,63.337752 92.387199,107.24934 19.669624 0 0 -22.018702,49.07845 92.387199,107.24934 19.669624 0 0 70.473762,118.77378 92.387199,107.24934 19.669624 0 0 31.28861,-1.31427 67.377155,56.991376 1.5760614 0 1 -36.73461,-54.72514 86.978407,91.607447 65.249892 0 1 -45.53922,-92.2625 86.978407,91.607447 65.249892 0 1 13.62634,-32.23502 44.121963,81.128714 49.990893 0 1 20.13497,-18.876872 44.121963,81.128714 49.990893 0 1 28.71754,-17.106365 44.121963,81.128714 49.990893 0 1 23.73168,-23.145727 44.121963,81.128714 49.990893 0 1 52.0078,-23.953701 58.476264,107.5225 49.990893 0 0 -7.62266,-0.01262 z"
       id="path5245"
       inkscape:connector-curvature="0" />
    <path
       style="display:inline;opacity:1;fill:url(#linearGradient4625);fill-opacity:1;stroke:#640000;stroke-width:1;stroke-miterlimit:4;stroke-dasharray:none;stroke-dashoffset:0;stroke-opacity:1"
       d="m 267.62631,22.453222 a 107.5225,58.476264 40.009107 0 1 76.25234,32.44224 107.5225,58.476264 40.009107 0 1 51.81321,63.337768 107.24934,92.3872 70.330376 0 1 22.0187,49.07845 107.24934,92.3872 70.330376 0 1 -70.47376,118.77378 107.24934,92.3872 70.330376 0 1 -31.28861,-1.31427 56.991377,67.377157 88.423939 0 0 36.73461,-54.72514 91.607447,86.978408 24.750108 0 0 45.53922,-92.2625 91.607447,86.978408 24.750108 0 0 -13.62634,-32.23503 81.128714,44.121964 40.009107 0 0 -20.13497,-18.876878 81.128714,44.121964 40.009107 0 0 -28.71754,-17.10636 81.128714,44.121964 40.009107 0 0 -23.73168,-23.14573 81.128714,44.121964 40.009107 0 0 -52.00788,-23.9537 107.5225,58.476264 40.009107 0 1 7.6227,-0.0126 z"
       id="path5245-5"
       inkscape:connector-curvature="0" />
    <path
       style="display:inline;opacity:1;fill:url(#linearGradient4685);fill-opacity:1;stroke:#640000;stroke-width:1;stroke-miterlimit:4;stroke-dasharray:none;stroke-dashoffset:0;stroke-opacity:1"
       d="m 232.56628,22.453474 a 58.476264,107.5225 49.990893 0 0 -76.25231,32.442238 58.476264,107.5225 49.990893 0 0 -51.81321,63.337758 92.3872,107.24934 19.669624 0 0 -22.018697,49.07845 92.3872,107.24934 19.669624 0 0 70.473757,118.77379 92.3872,107.24934 19.669624 0 0 31.28861,-1.31427 67.377157,56.991377 1.5760614 0 1 -36.73461,-54.72515 86.978408,91.607447 65.249892 0 1 -45.53922,-92.2625 86.978408,91.607447 65.249892 0 1 13.62634,-32.23502 44.121964,81.128714 49.990893 0 1 20.13497,-18.876879 44.121964,81.128714 49.990893 0 1 28.71754,-17.10636 44.121964,81.128714 49.990893 0 1 23.73168,-23.14573 44.121964,81.128714 49.990893 0 1 52.0078,-23.953702 58.476264,107.5225 49.990893 0 0 -7.62265,-0.01262 z"
       id="path5245-56"
       inkscape:connector-curvature="0" />
    <text
       xml:space="preserve"
       style="font-style:normal;font-weight:normal;font-size:10.58333302px;line-height:1.25;font-family:sans-serif;letter-spacing:0px;word-spacing:0px;fill:url(#linearGradient4653);fill-opacity:1;stroke:#640000;stroke-width:1;stroke-miterlimit:4;stroke-dasharray:none;stroke-opacity:1"
       x="161.77724"
       y="257"
       id="text5594"><tspan
         sodipodi:role="line"
         id="tspan5592"
         x="161.77724"
         y="257"
         style="font-style:normal;font-variant:normal;font-weight:normal;font-stretch:normal;font-size:31.75000381px;font-family:Plateia;-inkscape-font-specification:Plateia;fill:url(#linearGradient4653);fill-opacity:1;stroke:#640000;stroke-width:1;stroke-miterlimit:4;stroke-dasharray:none;stroke-opacity:1"
         rotate="0 0 0 0 0 0 0">CzarEc</tspan></text>
    <path
       style="display:inline;opacity:1;fill:url(#linearGradient4661);fill-opacity:1;stroke:#640000;stroke-width:1;stroke-miterlimit:4;stroke-dasharray:none;stroke-dashoffset:0;stroke-opacity:1"
       d="m 267.6266,22.453457 a 107.5225,58.476264 40.009107 0 1 76.25234,32.44224 107.5225,58.476264 40.009107 0 1 51.81321,63.337783 107.24934,92.3872 70.330376 0 1 22.0187,49.07845 107.24934,92.3872 70.330376 0 1 -70.47376,118.77378 107.24934,92.3872 70.330376 0 1 -31.28861,-1.31427 56.991377,67.377157 88.423939 0 0 36.73461,-54.72514 91.607447,86.978408 24.750108 0 0 45.53922,-92.2625 91.607447,86.978408 24.750108 0 0 -13.62634,-32.23503 81.128714,44.121964 40.009107 0 0 -20.13497,-18.876903 81.128714,44.121964 40.009107 0 0 -28.71754,-17.10635 81.128714,44.121964 40.009107 0 0 -23.73168,-23.14573 81.128714,44.121964 40.009107 0 0 -52.00788,-23.9537 107.5225,58.476264 40.009107 0 1 7.6227,-0.0126 z"
       id="path5245-5-1"
       inkscape:connector-curvature="0" />
  </g>
</svg>
